<?xml version="1.0" encoding="UTF-8" standalone="no"?>
<!DOCTYPE svg PUBLIC "-//W3C//DTD SVG 1.1//EN"
 "http://www.w3.org/Graphics/SVG/1.1/DTD/svg11.dtd">
<!-- Generated by graphviz version 11.0.0 (20240428.1522)
 -->
<!-- Pages: 1 -->
<svg width="384pt" height="353pt"
 viewBox="0.00 0.00 383.62 353.25" xmlns="http://www.w3.org/2000/svg" xmlns:xlink="http://www.w3.org/1999/xlink">
<g id="graph0" class="graph" transform="scale(1 1) rotate(0) translate(4 349.25)">
<polygon fill="white" stroke="none" points="-4,4 -4,-349.25 379.62,-349.25 379.62,4 -4,4"/>
<g id="clust1" class="cluster">
<title>cluster_legend</title>
<polygon fill="none" stroke="black" points="8,-266.25 8,-337.25 367.62,-337.25 367.62,-266.25 8,-266.25"/>
<text text-anchor="middle" x="187.81" y="-325.65" font-family="Arial" font-size="8.00">Легенда</text>
</g>
<!-- dict_stg.getcollaborators -->
<g id="node1" class="node">
<title>dict_stg.getcollaborators</title>
<g id="a_node1"><a xlink:href="/table_info/dict_stg/getcollaborators" xlink:title="dict_stg.getcollaborators" target="_blank">
<polygon fill="lightcoral" stroke="black" points="244.38,-38.5 139.12,-38.5 139.12,-20 244.38,-20 244.38,-38.5"/>
<text text-anchor="middle" x="191.75" y="-26.9" font-family="Arial" font-size="8.00">dict_stg.getcollaborators</text>
</a>
</g>
</g>
<!-- dict_dds.dict_dkp -->
<g id="node2" class="node">
<title>dict_dds.dict_dkp</title>
<g id="a_node2"><a xlink:href="/table_info/dict_dds/dict_dkp" xlink:title="dict_dds.dict_dkp" target="_blank">
<polygon fill="lightyellow" stroke="black" points="352.5,-141.5 273.5,-141.5 273.5,-123 352.5,-123 352.5,-141.5"/>
<text text-anchor="middle" x="313" y="-129.9" font-family="Arial" font-size="8.00">dict_dds.dict_dkp</text>
</a>
</g>
</g>
<!-- dict_stg.getcollaborators&#45;&gt;dict_dds.dict_dkp -->
<g id="edge1" class="edge">
<title>dict_stg.getcollaborators&#45;&gt;dict_dds.dict_dkp</title>
<path fill="none" stroke="black" d="M216.45,-38.89C230.02,-44.41 244.38,-50.25 244.38,-50.25 244.38,-50.25 280.41,-93.94 299.87,-117.54"/>
<polygon fill="black" stroke="black" points="298.48,-118.61 303.01,-121.35 301.18,-116.38 298.48,-118.61"/>
</g>
<!-- stg.getsubdivisions -->
<g id="node3" class="node">
<title>stg.getsubdivisions</title>
<g id="a_node3"><a xlink:href="/table_info/stg/getsubdivisions" xlink:title="stg.getsubdivisions" target="_blank">
<polygon fill="lightcoral" stroke="black" points="106.25,-227.5 20.5,-227.5 20.5,-209 106.25,-209 106.25,-227.5"/>
<text text-anchor="middle" x="63.38" y="-215.9" font-family="Arial" font-size="8.00">stg.getsubdivisions</text>
</a>
</g>
</g>
<!-- stg.getsubdivisions&#45;&gt;dict_dds.dict_dkp -->
<g id="edge2" class="edge">
<title>stg.getsubdivisions&#45;&gt;dict_dds.dict_dkp</title>
<path fill="none" stroke="black" d="M106.58,-218.02C159.78,-217.72 244.38,-217.25 244.38,-217.25 244.38,-217.25 281.44,-170.66 300.69,-146.47"/>
<polygon fill="black" stroke="black" points="301.82,-147.86 303.56,-142.86 299.08,-145.68 301.82,-147.86"/>
</g>
<!-- dict_stg.getsubdivisions -->
<g id="node4" class="node">
<title>dict_stg.getsubdivisions</title>
<g id="a_node4"><a xlink:href="/table_info/dict_stg/getsubdivisions" xlink:title="dict_stg.getsubdivisions" target="_blank">
<polygon fill="lightcoral" stroke="black" points="243.25,-206.5 140.25,-206.5 140.25,-188 243.25,-188 243.25,-206.5"/>
<text text-anchor="middle" x="191.75" y="-194.9" font-family="Arial" font-size="8.00">dict_stg.getsubdivisions</text>
</a>
</g>
</g>
<!-- stg.getsubdivisions&#45;&gt;dict_stg.getsubdivisions -->
<g id="edge9" class="edge">
<title>stg.getsubdivisions&#45;&gt;dict_stg.getsubdivisions</title>
<path fill="none" stroke="black" d="M106.46,-211.26C115.21,-209.8 124.57,-208.25 133.75,-206.72"/>
<polygon fill="black" stroke="black" points="133.94,-208.47 138.58,-205.92 133.36,-205.01 133.94,-208.47"/>
</g>
<!-- dict_stg.getsubdivisions&#45;&gt;dict_dds.dict_dkp -->
<g id="edge3" class="edge">
<title>dict_stg.getsubdivisions&#45;&gt;dict_dds.dict_dkp</title>
<path fill="none" stroke="black" d="M211.97,-187.57C226.65,-180.18 244.38,-171.25 244.38,-171.25 244.38,-171.25 269.96,-156.5 289.65,-145.14"/>
<polygon fill="black" stroke="black" points="290.52,-146.66 293.97,-142.65 288.77,-143.63 290.52,-146.66"/>
</g>
<!-- stg.getpositions -->
<g id="node5" class="node">
<title>stg.getpositions</title>
<g id="a_node5"><a xlink:href="/table_info/stg/getpositions" xlink:title="stg.getpositions" target="_blank">
<polygon fill="lightcoral" stroke="black" points="99.88,-141.5 26.88,-141.5 26.88,-123 99.88,-123 99.88,-141.5"/>
<text text-anchor="middle" x="63.38" y="-129.9" font-family="Arial" font-size="8.00">stg.getpositions</text>
</a>
</g>
</g>
<!-- stg.getpositions&#45;&gt;dict_dds.dict_dkp -->
<g id="edge4" class="edge">
<title>stg.getpositions&#45;&gt;dict_dds.dict_dkp</title>
<path fill="none" stroke="black" d="M100.12,-132.25C144.08,-132.25 218.77,-132.25 266.71,-132.25"/>
<polygon fill="black" stroke="black" points="266.49,-134 271.49,-132.25 266.49,-130.5 266.49,-134"/>
</g>
<!-- dict_stg.getpositions -->
<g id="node7" class="node">
<title>dict_stg.getpositions</title>
<g id="a_node7"><a xlink:href="/table_info/dict_stg/getpositions" xlink:title="dict_stg.getpositions" target="_blank">
<polygon fill="lightcoral" stroke="black" points="236.88,-120.5 146.62,-120.5 146.62,-102 236.88,-102 236.88,-120.5"/>
<text text-anchor="middle" x="191.75" y="-108.9" font-family="Arial" font-size="8.00">dict_stg.getpositions</text>
</a>
</g>
</g>
<!-- stg.getpositions&#45;&gt;dict_stg.getpositions -->
<g id="edge10" class="edge">
<title>stg.getpositions&#45;&gt;dict_stg.getpositions</title>
<path fill="none" stroke="black" d="M100.25,-126.29C112.65,-124.23 126.8,-121.88 140.15,-119.66"/>
<polygon fill="black" stroke="black" points="140.09,-121.44 144.74,-118.9 139.52,-117.99 140.09,-121.44"/>
</g>
<!-- stg.getcollaborators -->
<g id="node6" class="node">
<title>stg.getcollaborators</title>
<g id="a_node6"><a xlink:href="/table_info/stg/getcollaborators" xlink:title="stg.getcollaborators" target="_blank">
<polygon fill="lightcoral" stroke="black" points="235.75,-79.5 147.75,-79.5 147.75,-61 235.75,-61 235.75,-79.5"/>
<text text-anchor="middle" x="191.75" y="-67.9" font-family="Arial" font-size="8.00">stg.getcollaborators</text>
</a>
</g>
</g>
<!-- stg.getcollaborators&#45;&gt;dict_dds.dict_dkp -->
<g id="edge5" class="edge">
<title>stg.getcollaborators&#45;&gt;dict_dds.dict_dkp</title>
<path fill="none" stroke="black" d="M216.45,-79.89C230.02,-85.41 244.38,-91.25 244.38,-91.25 244.38,-91.25 270.78,-107.26 290.59,-119.27"/>
<polygon fill="black" stroke="black" points="289.5,-120.65 294.68,-121.75 291.31,-117.66 289.5,-120.65"/>
</g>
<!-- dict_stg.getpositions&#45;&gt;dict_dds.dict_dkp -->
<g id="edge6" class="edge">
<title>dict_stg.getpositions&#45;&gt;dict_dds.dict_dkp</title>
<path fill="none" stroke="black" d="M237.15,-119.07C246.82,-120.77 257.06,-122.58 266.77,-124.28"/>
<polygon fill="black" stroke="black" points="266.33,-125.98 271.56,-125.13 266.94,-122.54 266.33,-125.98"/>
</g>
<!-- stg.GetCollaborators -->
<g id="node8" class="node">
<title>stg.GetCollaborators</title>
<g id="a_node8"><a xlink:href="/table_info/stg/GetCollaborators" xlink:title="stg.GetCollaborators" target="_blank">
<polygon fill="lightcoral" stroke="black" points="108.5,-59.5 18.25,-59.5 18.25,-41 108.5,-41 108.5,-59.5"/>
<text text-anchor="middle" x="63.38" y="-47.9" font-family="Arial" font-size="8.00">stg.GetCollaborators</text>
</a>
</g>
</g>
<!-- stg.GetCollaborators&#45;&gt;dict_stg.getcollaborators -->
<g id="edge7" class="edge">
<title>stg.GetCollaborators&#45;&gt;dict_stg.getcollaborators</title>
<path fill="none" stroke="black" d="M108.93,-42.85C116.63,-41.57 124.74,-40.22 132.73,-38.89"/>
<polygon fill="black" stroke="black" points="132.68,-40.67 137.33,-38.13 132.11,-37.22 132.68,-40.67"/>
</g>
<!-- dict_stg.GetCollaborators -->
<g id="node9" class="node">
<title>dict_stg.GetCollaborators</title>
<g id="a_node9"><a xlink:href="/table_info/dict_stg/GetCollaborators" xlink:title="dict_stg.GetCollaborators" target="_blank">
<polygon fill="lightcoral" stroke="black" points="117.12,-18.5 9.62,-18.5 9.62,0 117.12,0 117.12,-18.5"/>
<text text-anchor="middle" x="63.38" y="-6.9" font-family="Arial" font-size="8.00">dict_stg.GetCollaborators</text>
</a>
</g>
</g>
<!-- dict_stg.GetCollaborators&#45;&gt;dict_stg.getcollaborators -->
<g id="edge8" class="edge">
<title>dict_stg.GetCollaborators&#45;&gt;dict_stg.getcollaborators</title>
<path fill="none" stroke="black" d="M117.6,-17.67C122.54,-18.45 127.55,-19.25 132.53,-20.04"/>
<polygon fill="black" stroke="black" points="132.09,-21.74 137.3,-20.79 132.64,-18.28 132.09,-21.74"/>
</g>
<!-- key1 -->
<g id="node10" class="node">
<title>key1</title>
<polygon fill="lightyellow" stroke="black" points="110.75,-310.25 16,-310.25 16,-274.25 110.75,-274.25 110.75,-310.25"/>
<text text-anchor="middle" x="63.38" y="-289.9" font-family="Arial" font-size="8.00">dict_dds Справочник</text>
</g>
<!-- key2 -->
<g id="node11" class="node">
<title>key2</title>
<polygon fill="lightblue" stroke="black" points="226.75,-310.25 156.75,-310.25 156.75,-274.25 226.75,-274.25 226.75,-310.25"/>
<text text-anchor="middle" x="191.75" y="-289.9" font-family="Arial" font-size="8.00">other schemas</text>
</g>
<!-- key1&#45;&gt;key2 -->
<!-- key3 -->
<g id="node12" class="node">
<title>key3</title>
<polygon fill="lightcoral" stroke="black" points="359.62,-310.25 266.38,-310.25 266.38,-274.25 359.62,-274.25 359.62,-310.25"/>
<text text-anchor="middle" x="313" y="-289.9" font-family="Arial" font-size="8.00">таблица выключена</text>
</g>
<!-- key2&#45;&gt;key3 -->
</g>
</svg>
