<?xml version="1.0" encoding="UTF-8" standalone="no"?>
<!DOCTYPE svg PUBLIC "-//W3C//DTD SVG 1.1//EN"
 "http://www.w3.org/Graphics/SVG/1.1/DTD/svg11.dtd">
<!-- Generated by graphviz version 11.0.0 (20240428.1522)
 -->
<!-- Pages: 1 -->
<svg width="7593pt" height="7138pt"
 viewBox="0.00 0.00 1822.40 1713.00" xmlns="http://www.w3.org/2000/svg" xmlns:xlink="http://www.w3.org/1999/xlink">
<g id="graph0" class="graph" transform="scale(4.16667 4.16667) rotate(0) translate(4 1709)">
<polygon fill="white" stroke="none" points="-4,4 -4,-1709 1818.4,-1709 1818.4,4 -4,4"/>
<g id="clust1" class="cluster">
<title>cluster_legend</title>
<polygon fill="none" stroke="black" points="146.53,-1612 146.53,-1697 1665.62,-1697 1665.62,-1612 146.53,-1612"/>
<text text-anchor="middle" x="906.08" y="-1672.1" font-family="Arial" font-size="22.00">Легенда</text>
</g>
<!-- dict_dds.condition_payment_comment -->
<g id="node1" class="node">
<title>dict_dds.condition_payment_comment</title>
<polygon fill="lightyellow" stroke="black" points="1173.6,-1476 640.8,-1476 640.8,-1404 1173.6,-1404 1173.6,-1476"/>
<text text-anchor="middle" x="907.2" y="-1431.47" font-family="Arial" font-size="22.00">dict_dds.condition_payment_comment</text>
</g>
<!-- dm.account_debt -->
<g id="node2" class="node">
<title>dm.account_debt</title>
<polygon fill="lightcoral" stroke="black" points="1814.4,-828 1281.6,-828 1281.6,-756 1814.4,-756 1814.4,-828"/>
<text text-anchor="middle" x="1548" y="-783.48" font-family="Arial" font-size="22.00">dm.account_debt</text>
</g>
<!-- dict_dds.condition_payment_comment&#45;&gt;dm.account_debt -->
<g id="edge1" class="edge">
<title>dict_dds.condition_payment_comment&#45;&gt;dm.account_debt</title>
<path fill="none" stroke="black" stroke-width="2" d="M997.68,-1403.59C1074.73,-1372.23 1173.6,-1332 1173.6,-1332 1173.6,-1332 1418.93,-977.22 1511.88,-842.8"/>
<polygon fill="black" stroke="black" stroke-width="2" points="1515.99,-846.08 1520.2,-830.76 1507.35,-840.11 1515.99,-846.08"/>
</g>
<!-- dict_dds.entity_plant_and_subsidiary -->
<g id="node3" class="node">
<title>dict_dds.entity_plant_and_subsidiary</title>
<polygon fill="lightyellow" stroke="black" points="1173.6,-1260 640.8,-1260 640.8,-1188 1173.6,-1188 1173.6,-1260"/>
<text text-anchor="middle" x="907.2" y="-1215.47" font-family="Arial" font-size="22.00">dict_dds.entity_plant_and_subsidiary</text>
</g>
<!-- dict_dds.entity_plant_and_subsidiary&#45;&gt;dm.account_debt -->
<g id="edge2" class="edge">
<title>dict_dds.entity_plant_and_subsidiary&#45;&gt;dm.account_debt</title>
<path fill="none" stroke="black" stroke-width="2" d="M997.68,-1187.59C1074.73,-1156.23 1173.6,-1116 1173.6,-1116 1173.6,-1116 1387.68,-930.24 1491.65,-840.03"/>
<polygon fill="black" stroke="black" stroke-width="2" points="1495.08,-844 1502.97,-830.21 1488.2,-836.07 1495.08,-844"/>
</g>
<!-- ods.map_zfi_kntr_data_keys -->
<g id="node4" class="node">
<title>ods.map_zfi_kntr_data_keys</title>
<polygon fill="lightblue" stroke="black" points="1173.6,-1044 640.8,-1044 640.8,-972 1173.6,-972 1173.6,-1044"/>
<text text-anchor="middle" x="907.2" y="-999.48" font-family="Arial" font-size="22.00">ods.map_zfi_kntr_data_keys</text>
</g>
<!-- ods.map_zfi_kntr_data_keys&#45;&gt;dm.account_debt -->
<g id="edge3" class="edge">
<title>ods.map_zfi_kntr_data_keys&#45;&gt;dm.account_debt</title>
<path fill="none" stroke="black" stroke-width="2" d="M1015.84,-971.6C1128.1,-933.64 1303.89,-874.2 1422.17,-834.21"/>
<polygon fill="black" stroke="black" stroke-width="2" points="1423.79,-839.2 1436.32,-829.43 1420.43,-829.26 1423.79,-839.2"/>
</g>
<!-- dict_dds.general_ledger_account_chart -->
<g id="node5" class="node">
<title>dict_dds.general_ledger_account_chart</title>
<polygon fill="lightyellow" stroke="black" points="1173.6,-828 640.8,-828 640.8,-756 1173.6,-756 1173.6,-828"/>
<text text-anchor="middle" x="907.2" y="-783.48" font-family="Arial" font-size="22.00">dict_dds.general_ledger_account_chart</text>
</g>
<!-- dict_dds.general_ledger_account_chart&#45;&gt;dm.account_debt -->
<g id="edge4" class="edge">
<title>dict_dds.general_ledger_account_chart&#45;&gt;dm.account_debt</title>
<path fill="none" stroke="black" stroke-width="2" d="M1174.02,-792C1203.52,-792 1233.65,-792 1263.36,-792"/>
<polygon fill="black" stroke="black" stroke-width="2" points="1263.27,-797.25 1278.27,-792 1263.27,-786.75 1263.27,-797.25"/>
</g>
<!-- dict_dds.unit_balance -->
<g id="node6" class="node">
<title>dict_dds.unit_balance</title>
<polygon fill="lightyellow" stroke="black" points="1173.6,-612 640.8,-612 640.8,-540 1173.6,-540 1173.6,-612"/>
<text text-anchor="middle" x="907.2" y="-567.48" font-family="Arial" font-size="22.00">dict_dds.unit_balance</text>
</g>
<!-- dict_dds.unit_balance&#45;&gt;dm.account_debt -->
<g id="edge5" class="edge">
<title>dict_dds.unit_balance&#45;&gt;dm.account_debt</title>
<path fill="none" stroke="black" stroke-width="2" d="M1015.84,-612.4C1128.1,-650.36 1303.89,-709.8 1422.17,-749.79"/>
<polygon fill="black" stroke="black" stroke-width="2" points="1420.43,-754.74 1436.32,-754.57 1423.79,-744.8 1420.43,-754.74"/>
</g>
<!-- dict_dds.currency_rate -->
<g id="node7" class="node">
<title>dict_dds.currency_rate</title>
<polygon fill="lightyellow" stroke="black" points="1173.6,-396 640.8,-396 640.8,-324 1173.6,-324 1173.6,-396"/>
<text text-anchor="middle" x="907.2" y="-351.48" font-family="Arial" font-size="22.00">dict_dds.currency_rate</text>
</g>
<!-- dict_dds.currency_rate&#45;&gt;dm.account_debt -->
<g id="edge6" class="edge">
<title>dict_dds.currency_rate&#45;&gt;dm.account_debt</title>
<path fill="none" stroke="black" stroke-width="2" d="M997.68,-396.41C1074.73,-427.77 1173.6,-468 1173.6,-468 1173.6,-468 1387.68,-653.76 1491.65,-743.97"/>
<polygon fill="black" stroke="black" stroke-width="2" points="1488.2,-747.93 1502.97,-753.79 1495.08,-740 1488.2,-747.93"/>
</g>
<!-- dm_calc.accounting_counterparty -->
<g id="node8" class="node">
<title>dm_calc.accounting_counterparty</title>
<polygon fill="lightblue" stroke="black" points="1173.6,-180 640.8,-180 640.8,-108 1173.6,-108 1173.6,-180"/>
<text text-anchor="middle" x="907.2" y="-135.47" font-family="Arial" font-size="22.00">dm_calc.accounting_counterparty</text>
</g>
<!-- dm_calc.accounting_counterparty&#45;&gt;dm.account_debt -->
<g id="edge7" class="edge">
<title>dm_calc.accounting_counterparty&#45;&gt;dm.account_debt</title>
<path fill="none" stroke="black" stroke-width="2" d="M997.68,-180.41C1074.73,-211.77 1173.6,-252 1173.6,-252 1173.6,-252 1418.93,-606.78 1511.88,-741.2"/>
<polygon fill="black" stroke="black" stroke-width="2" points="1507.35,-743.89 1520.2,-753.24 1515.99,-737.92 1507.35,-743.89"/>
</g>
<!-- dict_dds.address -->
<g id="node9" class="node">
<title>dict_dds.address</title>
<polygon fill="lightyellow" stroke="black" points="532.8,-288 0,-288 0,-216 532.8,-216 532.8,-288"/>
<text text-anchor="middle" x="266.4" y="-243.47" font-family="Arial" font-size="22.00">dict_dds.address</text>
</g>
<!-- dict_dds.address&#45;&gt;dm_calc.accounting_counterparty -->
<g id="edge8" class="edge">
<title>dict_dds.address&#45;&gt;dm_calc.accounting_counterparty</title>
<path fill="none" stroke="black" stroke-width="2" d="M483.22,-215.51C544.16,-205.21 610.73,-193.95 672.65,-183.49"/>
<polygon fill="black" stroke="black" stroke-width="2" points="673.51,-188.66 687.43,-180.99 671.76,-178.31 673.51,-188.66"/>
</g>
<!-- dict_dds.counterparty -->
<g id="node10" class="node">
<title>dict_dds.counterparty</title>
<polygon fill="lightyellow" stroke="black" points="532.8,-72 0,-72 0,0 532.8,0 532.8,-72"/>
<text text-anchor="middle" x="266.4" y="-27.48" font-family="Arial" font-size="22.00">dict_dds.counterparty</text>
</g>
<!-- dict_dds.counterparty&#45;&gt;dm_calc.accounting_counterparty -->
<g id="edge9" class="edge">
<title>dict_dds.counterparty&#45;&gt;dm_calc.accounting_counterparty</title>
<path fill="none" stroke="black" stroke-width="2" d="M483.22,-72.49C544.16,-82.79 610.73,-94.05 672.65,-104.51"/>
<polygon fill="black" stroke="black" stroke-width="2" points="671.76,-109.69 687.43,-107.01 673.51,-99.34 671.76,-109.69"/>
</g>
<!-- key1 -->
<g id="node11" class="node">
<title>key1</title>
<polygon fill="lightyellow" stroke="black" points="378.28,-1656 154.53,-1656 154.53,-1620 378.28,-1620 378.28,-1656"/>
<text text-anchor="middle" x="266.4" y="-1629.47" font-family="Arial" font-size="22.00">dict_dds Справочник</text>
</g>
<!-- key2 -->
<g id="node12" class="node">
<title>key2</title>
<polygon fill="lightblue" stroke="black" points="987.2,-1656 827.2,-1656 827.2,-1620 987.2,-1620 987.2,-1656"/>
<text text-anchor="middle" x="907.2" y="-1629.47" font-family="Arial" font-size="22.00">other schemas</text>
</g>
<!-- key1&#45;&gt;key2 -->
<!-- key3 -->
<g id="node13" class="node">
<title>key3</title>
<polygon fill="lightcoral" stroke="black" points="1657.62,-1656 1438.38,-1656 1438.38,-1620 1657.62,-1620 1657.62,-1656"/>
<text text-anchor="middle" x="1548" y="-1629.47" font-family="Arial" font-size="22.00">таблица выключена</text>
</g>
<!-- key2&#45;&gt;key3 -->
</g>
</svg>
