<?xml version="1.0" encoding="UTF-8" standalone="no"?>
<!DOCTYPE svg PUBLIC "-//W3C//DTD SVG 1.1//EN"
 "http://www.w3.org/Graphics/SVG/1.1/DTD/svg11.dtd">
<!-- Generated by graphviz version 11.0.0 (20240428.1522)
 -->
<!-- Pages: 1 -->
<svg width="497pt" height="570pt"
 viewBox="0.00 0.00 497.00 570.25" xmlns="http://www.w3.org/2000/svg" xmlns:xlink="http://www.w3.org/1999/xlink">
<g id="graph0" class="graph" transform="scale(1 1) rotate(0) translate(4 566.25)">
<polygon fill="white" stroke="none" points="-4,4 -4,-566.25 493,-566.25 493,4 -4,4"/>
<g id="clust1" class="cluster">
<title>cluster_legend</title>
<polygon fill="none" stroke="black" points="32.12,-483.25 32.12,-554.25 481,-554.25 481,-483.25 32.12,-483.25"/>
<text text-anchor="middle" x="256.56" y="-542.65" font-family="Arial" font-size="8.00">Легенда</text>
</g>
<!-- dict_dds.currency_rate -->
<g id="node1" class="node">
<title>dict_dds.currency_rate</title>
<g id="a_node1"><a xlink:href="/table_info/dict_dds/currency_rate" xlink:title="dict_dds.currency_rate" target="_blank">
<polygon fill="lightyellow" stroke="black" points="327.75,-387.5 227,-387.5 227,-369 327.75,-369 327.75,-387.5"/>
<text text-anchor="middle" x="277.38" y="-375.9" font-family="Arial" font-size="8.00">dict_dds.currency_rate</text>
</a>
</g>
</g>
<!-- dm.account_debt -->
<g id="node2" class="node">
<title>dm.account_debt</title>
<g id="a_node2"><a xlink:href="/table_info/dm/account_debt" xlink:title="dm.account_debt" target="_blank">
<polygon fill="lightcoral" stroke="black" points="465.5,-264.5 387.25,-264.5 387.25,-246 465.5,-246 465.5,-264.5"/>
<text text-anchor="middle" x="426.38" y="-252.9" font-family="Arial" font-size="8.00">dm.account_debt</text>
</a>
</g>
</g>
<!-- dict_dds.currency_rate&#45;&gt;dm.account_debt -->
<g id="edge1" class="edge">
<title>dict_dds.currency_rate&#45;&gt;dm.account_debt</title>
<path fill="none" stroke="black" d="M314.81,-368.61C335.68,-363.09 357.75,-357.25 357.75,-357.25 357.75,-357.25 396.99,-298.07 415.69,-269.86"/>
<polygon fill="black" stroke="black" points="416.99,-271.06 418.3,-265.92 414.08,-269.12 416.99,-271.06"/>
</g>
<!-- dict_dds.entity_plant_and_subsidiary -->
<g id="node3" class="node">
<title>dict_dds.entity_plant_and_subsidiary</title>
<g id="a_node3"><a xlink:href="/table_info/dict_dds/entity_plant_and_subsidiary" xlink:title="dict_dds.entity_plant_and_subsidiary" target="_blank">
<polygon fill="lightyellow" stroke="black" points="352.5,-346.5 202.25,-346.5 202.25,-328 352.5,-328 352.5,-346.5"/>
<text text-anchor="middle" x="277.38" y="-334.9" font-family="Arial" font-size="8.00">dict_dds.entity_plant_and_subsidiary</text>
</a>
</g>
</g>
<!-- dict_dds.entity_plant_and_subsidiary&#45;&gt;dm.account_debt -->
<g id="edge2" class="edge">
<title>dict_dds.entity_plant_and_subsidiary&#45;&gt;dm.account_debt</title>
<path fill="none" stroke="black" d="M314.81,-327.61C335.68,-322.09 357.75,-316.25 357.75,-316.25 357.75,-316.25 390.08,-287.09 410.03,-269.09"/>
<polygon fill="black" stroke="black" points="411.14,-270.44 413.68,-265.8 408.8,-267.84 411.14,-270.44"/>
</g>
<!-- dict_dds.condition_payment_comment -->
<g id="node4" class="node">
<title>dict_dds.condition_payment_comment</title>
<g id="a_node4"><a xlink:href="/table_info/dict_dds/condition_payment_comment" xlink:title="dict_dds.condition_payment_comment" target="_blank">
<polygon fill="lightyellow" stroke="black" points="354,-305.5 200.75,-305.5 200.75,-287 354,-287 354,-305.5"/>
<text text-anchor="middle" x="277.38" y="-293.9" font-family="Arial" font-size="8.00">dict_dds.condition_payment_comment</text>
</a>
</g>
</g>
<!-- dict_dds.condition_payment_comment&#45;&gt;dm.account_debt -->
<g id="edge3" class="edge">
<title>dict_dds.condition_payment_comment&#45;&gt;dm.account_debt</title>
<path fill="none" stroke="black" d="M314.81,-286.61C335.68,-281.09 357.75,-275.25 357.75,-275.25 357.75,-275.25 371.55,-271.17 386.68,-266.69"/>
<polygon fill="black" stroke="black" points="387,-268.42 391.3,-265.33 386.01,-265.07 387,-268.42"/>
</g>
<!-- dm_calc.accounting_external_contracts -->
<g id="node5" class="node">
<title>dm_calc.accounting_external_contracts</title>
<g id="a_node5"><a xlink:href="/table_info/dm_calc/accounting_external_contracts" xlink:title="dm_calc.accounting_external_contracts" target="_blank">
<polygon fill="lightblue" stroke="black" points="357.75,-264.5 197,-264.5 197,-246 357.75,-246 357.75,-264.5"/>
<text text-anchor="middle" x="277.38" y="-252.9" font-family="Arial" font-size="8.00">dm_calc.accounting_external_contracts</text>
</a>
</g>
</g>
<!-- dm_calc.accounting_external_contracts&#45;&gt;dm.account_debt -->
<g id="edge4" class="edge">
<title>dm_calc.accounting_external_contracts&#45;&gt;dm.account_debt</title>
<path fill="none" stroke="black" d="M357.9,-255.25C365.67,-255.25 373.35,-255.25 380.58,-255.25"/>
<polygon fill="black" stroke="black" points="380.58,-257 385.58,-255.25 380.58,-253.5 380.58,-257"/>
</g>
<!-- dict_dds.general_ledger_account_chart -->
<g id="node6" class="node">
<title>dict_dds.general_ledger_account_chart</title>
<g id="a_node6"><a xlink:href="/table_info/dict_dds/general_ledger_account_chart" xlink:title="dict_dds.general_ledger_account_chart" target="_blank">
<polygon fill="lightyellow" stroke="black" points="357.38,-223.5 197.38,-223.5 197.38,-205 357.38,-205 357.38,-223.5"/>
<text text-anchor="middle" x="277.38" y="-211.9" font-family="Arial" font-size="8.00">dict_dds.general_ledger_account_chart</text>
</a>
</g>
</g>
<!-- dict_dds.general_ledger_account_chart&#45;&gt;dm.account_debt -->
<g id="edge5" class="edge">
<title>dict_dds.general_ledger_account_chart&#45;&gt;dm.account_debt</title>
<path fill="none" stroke="black" d="M314.81,-223.89C335.68,-229.41 357.75,-235.25 357.75,-235.25 357.75,-235.25 371.55,-239.33 386.68,-243.81"/>
<polygon fill="black" stroke="black" points="386.01,-245.43 391.3,-245.17 387,-242.08 386.01,-245.43"/>
</g>
<!-- ods.map_zfi_kntr_data_keys -->
<g id="node7" class="node">
<title>ods.map_zfi_kntr_data_keys</title>
<g id="a_node7"><a xlink:href="/table_info/ods/map_zfi_kntr_data_keys" xlink:title="ods.map_zfi_kntr_data_keys" target="_blank">
<polygon fill="lightblue" stroke="black" points="337.5,-182.5 217.25,-182.5 217.25,-164 337.5,-164 337.5,-182.5"/>
<text text-anchor="middle" x="277.38" y="-170.9" font-family="Arial" font-size="8.00">ods.map_zfi_kntr_data_keys</text>
</a>
</g>
</g>
<!-- ods.map_zfi_kntr_data_keys&#45;&gt;dm.account_debt -->
<g id="edge6" class="edge">
<title>ods.map_zfi_kntr_data_keys&#45;&gt;dm.account_debt</title>
<path fill="none" stroke="black" d="M314.81,-182.89C335.68,-188.41 357.75,-194.25 357.75,-194.25 357.75,-194.25 390.08,-223.41 410.03,-241.41"/>
<polygon fill="black" stroke="black" points="408.8,-242.66 413.68,-244.7 411.14,-240.06 408.8,-242.66"/>
</g>
<!-- dm_calc.accounting_counterparty -->
<g id="node8" class="node">
<title>dm_calc.accounting_counterparty</title>
<g id="a_node8"><a xlink:href="/table_info/dm_calc/accounting_counterparty" xlink:title="dm_calc.accounting_counterparty" target="_blank">
<polygon fill="lightblue" stroke="black" points="346.88,-59.5 207.88,-59.5 207.88,-41 346.88,-41 346.88,-59.5"/>
<text text-anchor="middle" x="277.38" y="-47.9" font-family="Arial" font-size="8.00">dm_calc.accounting_counterparty</text>
</a>
</g>
</g>
<!-- dm_calc.accounting_counterparty&#45;&gt;dm.account_debt -->
<g id="edge7" class="edge">
<title>dm_calc.accounting_counterparty&#45;&gt;dm.account_debt</title>
<path fill="none" stroke="black" d="M285.7,-59.76C305.35,-85.25 357.75,-153.25 357.75,-153.25 357.75,-153.25 396.99,-212.43 415.69,-240.64"/>
<polygon fill="black" stroke="black" points="414.08,-241.38 418.3,-244.58 416.99,-239.44 414.08,-241.38"/>
</g>
<!-- ods.sales_contract -->
<g id="node9" class="node">
<title>ods.sales_contract</title>
<g id="a_node9"><a xlink:href="/table_info/ods/sales_contract" xlink:title="ods.sales_contract" target="_blank">
<polygon fill="lightblue" stroke="black" points="130.38,-469.5 44.62,-469.5 44.62,-451 130.38,-451 130.38,-469.5"/>
<text text-anchor="middle" x="87.5" y="-457.9" font-family="Arial" font-size="8.00">ods.sales_contract</text>
</a>
</g>
</g>
<!-- ods.sales_contract&#45;&gt;dm_calc.accounting_external_contracts -->
<g id="edge8" class="edge">
<title>ods.sales_contract&#45;&gt;dm_calc.accounting_external_contracts</title>
<path fill="none" stroke="black" d="M128.46,-450.55C151.12,-445.05 175,-439.25 175,-439.25 175,-439.25 197,-276.25 197,-276.25 197,-276.25 215.13,-271.45 234.06,-266.45"/>
<polygon fill="black" stroke="black" points="234.09,-268.25 238.48,-265.28 233.2,-264.86 234.09,-268.25"/>
</g>
<!-- dict_dds.settings_and_parameters_sap -->
<g id="node10" class="node">
<title>dict_dds.settings_and_parameters_sap</title>
<g id="a_node10"><a xlink:href="/table_info/dict_dds/settings_and_parameters_sap" xlink:title="dict_dds.settings_and_parameters_sap" target="_blank">
<polygon fill="lightyellow" stroke="black" points="167.12,-428.5 7.88,-428.5 7.88,-410 167.12,-410 167.12,-428.5"/>
<text text-anchor="middle" x="87.5" y="-416.9" font-family="Arial" font-size="8.00">dict_dds.settings_and_parameters_sap</text>
</a>
</g>
</g>
<!-- dict_dds.settings_and_parameters_sap&#45;&gt;dm_calc.accounting_external_contracts -->
<g id="edge9" class="edge">
<title>dict_dds.settings_and_parameters_sap&#45;&gt;dm_calc.accounting_external_contracts</title>
<path fill="none" stroke="black" d="M128.46,-409.55C151.12,-404.05 175,-398.25 175,-398.25 175,-398.25 197,-276.25 197,-276.25 197,-276.25 215.13,-271.45 234.06,-266.45"/>
<polygon fill="black" stroke="black" points="234.09,-268.25 238.48,-265.28 233.2,-264.86 234.09,-268.25"/>
</g>
<!-- dict_dds.purchase_group -->
<g id="node11" class="node">
<title>dict_dds.purchase_group</title>
<g id="a_node11"><a xlink:href="/table_info/dict_dds/purchase_group" xlink:title="dict_dds.purchase_group" target="_blank">
<polygon fill="lightyellow" stroke="black" points="142,-387.5 33,-387.5 33,-369 142,-369 142,-387.5"/>
<text text-anchor="middle" x="87.5" y="-375.9" font-family="Arial" font-size="8.00">dict_dds.purchase_group</text>
</a>
</g>
</g>
<!-- dict_dds.purchase_group&#45;&gt;dm_calc.accounting_external_contracts -->
<g id="edge10" class="edge">
<title>dict_dds.purchase_group&#45;&gt;dm_calc.accounting_external_contracts</title>
<path fill="none" stroke="black" d="M128.46,-368.55C151.12,-363.05 175,-357.25 175,-357.25 175,-357.25 197,-276.25 197,-276.25 197,-276.25 215.13,-271.45 234.06,-266.45"/>
<polygon fill="black" stroke="black" points="234.09,-268.25 238.48,-265.28 233.2,-264.86 234.09,-268.25"/>
</g>
<!-- ods.purchase_agreement -->
<g id="node12" class="node">
<title>ods.purchase_agreement</title>
<g id="a_node12"><a xlink:href="/table_info/ods/purchase_agreement" xlink:title="ods.purchase_agreement" target="_blank">
<polygon fill="lightblue" stroke="black" points="142,-346.5 33,-346.5 33,-328 142,-328 142,-346.5"/>
<text text-anchor="middle" x="87.5" y="-334.9" font-family="Arial" font-size="8.00">ods.purchase_agreement</text>
</a>
</g>
</g>
<!-- ods.purchase_agreement&#45;&gt;dm_calc.accounting_external_contracts -->
<g id="edge11" class="edge">
<title>ods.purchase_agreement&#45;&gt;dm_calc.accounting_external_contracts</title>
<path fill="none" stroke="black" d="M128.46,-327.55C151.12,-322.05 175,-316.25 175,-316.25 175,-316.25 197,-276.25 197,-276.25 197,-276.25 215.13,-271.45 234.06,-266.45"/>
<polygon fill="black" stroke="black" points="234.09,-268.25 238.48,-265.28 233.2,-264.86 234.09,-268.25"/>
</g>
<!-- dict_dds.user_main_data -->
<g id="node13" class="node">
<title>dict_dds.user_main_data</title>
<g id="a_node13"><a xlink:href="/table_info/dict_dds/user_main_data" xlink:title="dict_dds.user_main_data" target="_blank">
<polygon fill="lightyellow" stroke="black" points="140.88,-305.5 34.13,-305.5 34.13,-287 140.88,-287 140.88,-305.5"/>
<text text-anchor="middle" x="87.5" y="-293.9" font-family="Arial" font-size="8.00">dict_dds.user_main_data</text>
</a>
</g>
</g>
<!-- dict_dds.user_main_data&#45;&gt;dm_calc.accounting_external_contracts -->
<g id="edge12" class="edge">
<title>dict_dds.user_main_data&#45;&gt;dm_calc.accounting_external_contracts</title>
<path fill="none" stroke="black" d="M133.02,-286.53C160.88,-280.45 196.85,-272.61 225.78,-266.29"/>
<polygon fill="black" stroke="black" points="225.86,-268.07 230.37,-265.29 225.11,-264.65 225.86,-268.07"/>
</g>
<!-- dict_dds.address -->
<g id="node14" class="node">
<title>dict_dds.address</title>
<g id="a_node14"><a xlink:href="/table_info/dict_dds/address" xlink:title="dict_dds.address" target="_blank">
<polygon fill="lightyellow" stroke="black" points="127,-59.5 48,-59.5 48,-41 127,-41 127,-59.5"/>
<text text-anchor="middle" x="87.5" y="-47.9" font-family="Arial" font-size="8.00">dict_dds.address</text>
</a>
</g>
</g>
<!-- dict_dds.address&#45;&gt;dm_calc.accounting_counterparty -->
<g id="edge13" class="edge">
<title>dict_dds.address&#45;&gt;dm_calc.accounting_counterparty</title>
<path fill="none" stroke="black" d="M127.43,-50.25C148.73,-50.25 175.86,-50.25 201.12,-50.25"/>
<polygon fill="black" stroke="black" points="200.98,-52 205.98,-50.25 200.98,-48.5 200.98,-52"/>
</g>
<!-- dict_dds.counterparty -->
<g id="node15" class="node">
<title>dict_dds.counterparty</title>
<g id="a_node15"><a xlink:href="/table_info/dict_dds/counterparty" xlink:title="dict_dds.counterparty" target="_blank">
<polygon fill="lightyellow" stroke="black" points="135.25,-18.5 39.75,-18.5 39.75,0 135.25,0 135.25,-18.5"/>
<text text-anchor="middle" x="87.5" y="-6.9" font-family="Arial" font-size="8.00">dict_dds.counterparty</text>
</a>
</g>
</g>
<!-- dict_dds.counterparty&#45;&gt;dm_calc.accounting_counterparty -->
<g id="edge14" class="edge">
<title>dict_dds.counterparty&#45;&gt;dm_calc.accounting_counterparty</title>
<path fill="none" stroke="black" d="M133.02,-18.97C160.88,-25.05 196.85,-32.89 225.78,-39.21"/>
<polygon fill="black" stroke="black" points="225.11,-40.85 230.37,-40.21 225.86,-37.43 225.11,-40.85"/>
</g>
<!-- ods.purchase_document_counterparty_role -->
<g id="node16" class="node">
<title>ods.purchase_document_counterparty_role</title>
<g id="a_node16"><a xlink:href="/table_info/ods/purchase_document_counterparty_role" xlink:title="ods.purchase_document_counterparty_role" target="_blank">
<polygon fill="lightblue" stroke="black" points="175,-264.5 0,-264.5 0,-246 175,-246 175,-264.5"/>
<text text-anchor="middle" x="87.5" y="-252.9" font-family="Arial" font-size="8.00">ods.purchase_document_counterparty_role</text>
</a>
</g>
</g>
<!-- ods.purchase_document_counterparty_role&#45;&gt;dm_calc.accounting_external_contracts -->
<g id="edge15" class="edge">
<title>ods.purchase_document_counterparty_role&#45;&gt;dm_calc.accounting_external_contracts</title>
<path fill="none" stroke="black" d="M175.29,-255.25C180.29,-255.25 185.32,-255.25 190.32,-255.25"/>
<polygon fill="black" stroke="black" points="190.12,-257 195.12,-255.25 190.12,-253.5 190.12,-257"/>
</g>
<!-- ods.sales_document_counterparty_role -->
<g id="node17" class="node">
<title>ods.sales_document_counterparty_role</title>
<g id="a_node17"><a xlink:href="/table_info/ods/sales_document_counterparty_role" xlink:title="ods.sales_document_counterparty_role" target="_blank">
<polygon fill="lightblue" stroke="black" points="167.5,-223.5 7.5,-223.5 7.5,-205 167.5,-205 167.5,-223.5"/>
<text text-anchor="middle" x="87.5" y="-211.9" font-family="Arial" font-size="8.00">ods.sales_document_counterparty_role</text>
</a>
</g>
</g>
<!-- ods.sales_document_counterparty_role&#45;&gt;dm_calc.accounting_external_contracts -->
<g id="edge16" class="edge">
<title>ods.sales_document_counterparty_role&#45;&gt;dm_calc.accounting_external_contracts</title>
<path fill="none" stroke="black" d="M133.02,-223.97C160.88,-230.05 196.85,-237.89 225.78,-244.21"/>
<polygon fill="black" stroke="black" points="225.11,-245.85 230.37,-245.21 225.86,-242.43 225.11,-245.85"/>
</g>
<!-- ods.purchase_contract -->
<g id="node18" class="node">
<title>ods.purchase_contract</title>
<g id="a_node18"><a xlink:href="/table_info/ods/purchase_contract" xlink:title="ods.purchase_contract" target="_blank">
<polygon fill="lightblue" stroke="black" points="137.88,-182.5 37.12,-182.5 37.12,-164 137.88,-164 137.88,-182.5"/>
<text text-anchor="middle" x="87.5" y="-170.9" font-family="Arial" font-size="8.00">ods.purchase_contract</text>
</a>
</g>
</g>
<!-- ods.purchase_contract&#45;&gt;dm_calc.accounting_external_contracts -->
<g id="edge17" class="edge">
<title>ods.purchase_contract&#45;&gt;dm_calc.accounting_external_contracts</title>
<path fill="none" stroke="black" d="M128.46,-182.95C151.12,-188.45 175,-194.25 175,-194.25 175,-194.25 197,-234.25 197,-234.25 197,-234.25 215.13,-239.05 234.06,-244.05"/>
<polygon fill="black" stroke="black" points="233.2,-245.64 238.48,-245.22 234.09,-242.25 233.2,-245.64"/>
</g>
<!-- ods.financial_loan_terms -->
<g id="node19" class="node">
<title>ods.financial_loan_terms</title>
<g id="a_node19"><a xlink:href="/table_info/ods/financial_loan_terms" xlink:title="ods.financial_loan_terms" target="_blank">
<polygon fill="lightblue" stroke="black" points="140.5,-141.5 34.5,-141.5 34.5,-123 140.5,-123 140.5,-141.5"/>
<text text-anchor="middle" x="87.5" y="-129.9" font-family="Arial" font-size="8.00">ods.financial_loan_terms</text>
</a>
</g>
</g>
<!-- ods.financial_loan_terms&#45;&gt;dm_calc.accounting_external_contracts -->
<g id="edge18" class="edge">
<title>ods.financial_loan_terms&#45;&gt;dm_calc.accounting_external_contracts</title>
<path fill="none" stroke="black" d="M128.46,-141.95C151.12,-147.45 175,-153.25 175,-153.25 175,-153.25 197,-234.25 197,-234.25 197,-234.25 215.13,-239.05 234.06,-244.05"/>
<polygon fill="black" stroke="black" points="233.2,-245.64 238.48,-245.22 234.09,-242.25 233.2,-245.64"/>
</g>
<!-- dict_dds.sales_group -->
<g id="node20" class="node">
<title>dict_dds.sales_group</title>
<g id="a_node20"><a xlink:href="/table_info/dict_dds/sales_group" xlink:title="dict_dds.sales_group" target="_blank">
<polygon fill="lightyellow" stroke="black" points="134.5,-100.5 40.5,-100.5 40.5,-82 134.5,-82 134.5,-100.5"/>
<text text-anchor="middle" x="87.5" y="-88.9" font-family="Arial" font-size="8.00">dict_dds.sales_group</text>
</a>
</g>
</g>
<!-- dict_dds.sales_group&#45;&gt;dm_calc.accounting_external_contracts -->
<g id="edge19" class="edge">
<title>dict_dds.sales_group&#45;&gt;dm_calc.accounting_external_contracts</title>
<path fill="none" stroke="black" d="M128.46,-100.95C151.12,-106.45 175,-112.25 175,-112.25 175,-112.25 197,-234.25 197,-234.25 197,-234.25 215.13,-239.05 234.06,-244.05"/>
<polygon fill="black" stroke="black" points="233.2,-245.64 238.48,-245.22 234.09,-242.25 233.2,-245.64"/>
</g>
<!-- key1 -->
<g id="node21" class="node">
<title>key1</title>
<polygon fill="lightyellow" stroke="black" points="134.88,-527.25 40.12,-527.25 40.12,-491.25 134.88,-491.25 134.88,-527.25"/>
<text text-anchor="middle" x="87.5" y="-506.9" font-family="Arial" font-size="8.00">dict_dds Справочник</text>
</g>
<!-- key2 -->
<g id="node22" class="node">
<title>key2</title>
<polygon fill="lightblue" stroke="black" points="312.38,-527.25 242.38,-527.25 242.38,-491.25 312.38,-491.25 312.38,-527.25"/>
<text text-anchor="middle" x="277.38" y="-506.9" font-family="Arial" font-size="8.00">other schemas</text>
</g>
<!-- key1&#45;&gt;key2 -->
<!-- key3 -->
<g id="node23" class="node">
<title>key3</title>
<polygon fill="lightcoral" stroke="black" points="473,-527.25 379.75,-527.25 379.75,-491.25 473,-491.25 473,-527.25"/>
<text text-anchor="middle" x="426.38" y="-506.9" font-family="Arial" font-size="8.00">таблица выключена</text>
</g>
<!-- key2&#45;&gt;key3 -->
</g>
</svg>
