<?xml version="1.0" encoding="UTF-8" standalone="no"?>
<!DOCTYPE svg PUBLIC "-//W3C//DTD SVG 1.1//EN"
 "http://www.w3.org/Graphics/SVG/1.1/DTD/svg11.dtd">
<!-- Generated by graphviz version 11.0.0 (20240428.1522)
 -->
<!-- Pages: 1 -->
<svg width="530pt" height="720pt"
 viewBox="0.00 0.00 529.77 720.00" xmlns="http://www.w3.org/2000/svg" xmlns:xlink="http://www.w3.org/1999/xlink">
<g id="graph0" class="graph" transform="scale(0.980592 0.980592) rotate(0) translate(4 730.25)">
<polygon fill="white" stroke="none" points="-4,4 -4,-730.25 536.25,-730.25 536.25,4 -4,4"/>
<g id="clust1" class="cluster">
<title>cluster_legend</title>
<polygon fill="none" stroke="black" points="32.12,-647.25 32.12,-718.25 517.38,-718.25 517.38,-647.25 32.12,-647.25"/>
<text text-anchor="middle" x="274.75" y="-706.65" font-family="Arial" font-size="8.00">Легенда</text>
</g>
<!-- dm_calc.accounting_counterparty -->
<g id="node1" class="node">
<title>dm_calc.accounting_counterparty</title>
<g id="a_node1"><a xlink:href="/table_info/dm_calc/accounting_counterparty" xlink:title="dm_calc.accounting_counterparty" target="_blank">
<polygon fill="lightblue" stroke="black" points="353.62,-59.5 214.62,-59.5 214.62,-41 353.62,-41 353.62,-59.5"/>
<text text-anchor="middle" x="284.12" y="-47.9" font-family="Arial" font-size="8.00">dm_calc.accounting_counterparty</text>
</a>
</g>
</g>
<!-- dm.account_balance_by_contract -->
<g id="node2" class="node">
<title>dm.account_balance_by_contract</title>
<g id="a_node2"><a xlink:href="/table_info/dm/account_balance_by_contract" xlink:title="dm.account_balance_by_contract" target="_blank">
<polygon fill="lightcoral" stroke="black" points="532.25,-427.5 393.25,-427.5 393.25,-409 532.25,-409 532.25,-427.5"/>
<text text-anchor="middle" x="462.75" y="-415.9" font-family="Arial" font-size="8.00">dm.account_balance_by_contract</text>
</a>
</g>
</g>
<!-- dm_calc.accounting_counterparty&#45;&gt;dm.account_balance_by_contract -->
<g id="edge1" class="edge">
<title>dm_calc.accounting_counterparty&#45;&gt;dm.account_balance_by_contract</title>
<path fill="none" stroke="black" d="M289.67,-59.72C313.53,-109.42 424.35,-340.33 454.28,-402.69"/>
<polygon fill="black" stroke="black" points="452.68,-403.39 456.42,-407.14 455.83,-401.88 452.68,-403.39"/>
</g>
<!-- dict_dds.unit_balance -->
<g id="node3" class="node">
<title>dict_dds.unit_balance</title>
<g id="a_node3"><a xlink:href="/table_info/dict_dds/unit_balance" xlink:title="dict_dds.unit_balance" target="_blank">
<polygon fill="lightyellow" stroke="black" points="331.5,-614.5 236.75,-614.5 236.75,-596 331.5,-596 331.5,-614.5"/>
<text text-anchor="middle" x="284.12" y="-602.9" font-family="Arial" font-size="8.00">dict_dds.unit_balance</text>
</a>
</g>
</g>
<!-- dict_dds.unit_balance&#45;&gt;dm.account_balance_by_contract -->
<g id="edge2" class="edge">
<title>dict_dds.unit_balance&#45;&gt;dm.account_balance_by_contract</title>
<path fill="none" stroke="black" d="M317.19,-595.57C341.68,-588.18 371.25,-579.25 371.25,-579.25 371.25,-579.25 430.62,-473.62 453.19,-433.48"/>
<polygon fill="black" stroke="black" points="454.69,-434.37 455.62,-429.16 451.64,-432.66 454.69,-434.37"/>
</g>
<!-- dict_dds.entity_plant_and_subsidiary -->
<g id="node4" class="node">
<title>dict_dds.entity_plant_and_subsidiary</title>
<g id="a_node4"><a xlink:href="/table_info/dict_dds/entity_plant_and_subsidiary" xlink:title="dict_dds.entity_plant_and_subsidiary" target="_blank">
<polygon fill="lightyellow" stroke="black" points="162.62,-633.5 12.38,-633.5 12.38,-615 162.62,-615 162.62,-633.5"/>
<text text-anchor="middle" x="87.5" y="-621.9" font-family="Arial" font-size="8.00">dict_dds.entity_plant_and_subsidiary</text>
</a>
</g>
</g>
<!-- dict_dds.entity_plant_and_subsidiary&#45;&gt;dm.account_balance_by_contract -->
<g id="edge3" class="edge">
<title>dict_dds.entity_plant_and_subsidiary&#45;&gt;dm.account_balance_by_contract</title>
<path fill="none" stroke="black" d="M128.46,-614.55C151.12,-609.05 175,-603.25 175,-603.25 175,-603.25 197,-585.25 197,-585.25 197,-585.25 371.25,-539.25 371.25,-539.25 371.25,-539.25 426.71,-465.1 450.8,-432.89"/>
<polygon fill="black" stroke="black" points="452.15,-434.01 453.74,-428.96 449.35,-431.91 452.15,-434.01"/>
</g>
<!-- dm_calc.account_balance_by_contract -->
<g id="node8" class="node">
<title>dm_calc.account_balance_by_contract</title>
<g id="a_node8"><a xlink:href="/table_info/dm_calc/account_balance_by_contract" xlink:title="dm_calc.account_balance_by_contract" target="_blank">
<polygon fill="lightcoral" stroke="black" points="363.38,-528.5 204.88,-528.5 204.88,-510 363.38,-510 363.38,-528.5"/>
<text text-anchor="middle" x="284.12" y="-516.9" font-family="Arial" font-size="8.00">dm_calc.account_balance_by_contract</text>
</a>
</g>
</g>
<!-- dict_dds.entity_plant_and_subsidiary&#45;&gt;dm_calc.account_balance_by_contract -->
<g id="edge14" class="edge">
<title>dict_dds.entity_plant_and_subsidiary&#45;&gt;dm_calc.account_balance_by_contract</title>
<path fill="none" stroke="black" d="M128.46,-614.55C151.12,-609.05 175,-603.25 175,-603.25 175,-603.25 197,-545.25 197,-545.25 197,-545.25 221.92,-537.73 244.95,-530.78"/>
<polygon fill="black" stroke="black" points="245.33,-532.49 249.61,-529.37 244.31,-529.14 245.33,-532.49"/>
</g>
<!-- dict_dds.general_ledger_account_chart -->
<g id="node5" class="node">
<title>dict_dds.general_ledger_account_chart</title>
<g id="a_node5"><a xlink:href="/table_info/dict_dds/general_ledger_account_chart" xlink:title="dict_dds.general_ledger_account_chart" target="_blank">
<polygon fill="lightyellow" stroke="black" points="364.12,-427.5 204.12,-427.5 204.12,-409 364.12,-409 364.12,-427.5"/>
<text text-anchor="middle" x="284.12" y="-415.9" font-family="Arial" font-size="8.00">dict_dds.general_ledger_account_chart</text>
</a>
</g>
</g>
<!-- dict_dds.general_ledger_account_chart&#45;&gt;dm.account_balance_by_contract -->
<g id="edge4" class="edge">
<title>dict_dds.general_ledger_account_chart&#45;&gt;dm.account_balance_by_contract</title>
<path fill="none" stroke="black" d="M364.4,-418.25C371.85,-418.25 379.39,-418.25 386.79,-418.25"/>
<polygon fill="black" stroke="black" points="386.47,-420 391.47,-418.25 386.47,-416.5 386.47,-420"/>
</g>
<!-- dm_calc.accounting_external_contracts -->
<g id="node6" class="node">
<title>dm_calc.accounting_external_contracts</title>
<g id="a_node6"><a xlink:href="/table_info/dm_calc/accounting_external_contracts" xlink:title="dm_calc.accounting_external_contracts" target="_blank">
<polygon fill="lightblue" stroke="black" points="364.5,-325.5 203.75,-325.5 203.75,-307 364.5,-307 364.5,-325.5"/>
<text text-anchor="middle" x="284.12" y="-313.9" font-family="Arial" font-size="8.00">dm_calc.accounting_external_contracts</text>
</a>
</g>
</g>
<!-- dm_calc.accounting_external_contracts&#45;&gt;dm.account_balance_by_contract -->
<g id="edge5" class="edge">
<title>dm_calc.accounting_external_contracts&#45;&gt;dm.account_balance_by_contract</title>
<path fill="none" stroke="black" d="M301.74,-325.85C333.7,-344.3 403.71,-384.73 439.59,-405.46"/>
<polygon fill="black" stroke="black" points="438.53,-406.86 443.74,-407.85 440.28,-403.83 438.53,-406.86"/>
</g>
<!-- ods.map_budget_subtype_by_counterparty -->
<g id="node7" class="node">
<title>ods.map_budget_subtype_by_counterparty</title>
<g id="a_node7"><a xlink:href="/table_info/ods/map_budget_subtype_by_counterparty" xlink:title="ods.map_budget_subtype_by_counterparty" target="_blank">
<polygon fill="lightblue" stroke="black" points="371.25,-284.5 197,-284.5 197,-266 371.25,-266 371.25,-284.5"/>
<text text-anchor="middle" x="284.12" y="-272.9" font-family="Arial" font-size="8.00">ods.map_budget_subtype_by_counterparty</text>
</a>
</g>
</g>
<!-- ods.map_budget_subtype_by_counterparty&#45;&gt;dm.account_balance_by_contract -->
<g id="edge6" class="edge">
<title>ods.map_budget_subtype_by_counterparty&#45;&gt;dm.account_balance_by_contract</title>
<path fill="none" stroke="black" d="M324.91,-284.95C347.48,-290.45 371.25,-296.25 371.25,-296.25 371.25,-296.25 426.71,-371.02 450.8,-403.49"/>
<polygon fill="black" stroke="black" points="449.36,-404.49 453.75,-407.46 452.17,-402.4 449.36,-404.49"/>
</g>
<!-- dm_calc.account_balance_by_contract&#45;&gt;dm.account_balance_by_contract -->
<g id="edge7" class="edge">
<title>dm_calc.account_balance_by_contract&#45;&gt;dm.account_balance_by_contract</title>
<path fill="none" stroke="black" d="M302.06,-509.57C334.11,-491.24 403.6,-451.5 439.42,-431.02"/>
<polygon fill="black" stroke="black" points="440.08,-432.66 443.55,-428.66 438.34,-429.62 440.08,-432.66"/>
</g>
<!-- ods.sales_contract -->
<g id="node9" class="node">
<title>ods.sales_contract</title>
<g id="a_node9"><a xlink:href="/table_info/ods/sales_contract" xlink:title="ods.sales_contract" target="_blank">
<polygon fill="lightblue" stroke="black" points="130.38,-469.5 44.62,-469.5 44.62,-451 130.38,-451 130.38,-469.5"/>
<text text-anchor="middle" x="87.5" y="-457.9" font-family="Arial" font-size="8.00">ods.sales_contract</text>
</a>
</g>
</g>
<!-- ods.sales_contract&#45;&gt;dm_calc.accounting_external_contracts -->
<g id="edge8" class="edge">
<title>ods.sales_contract&#45;&gt;dm_calc.accounting_external_contracts</title>
<path fill="none" stroke="black" d="M128.46,-450.55C151.12,-445.05 175,-439.25 175,-439.25 175,-439.25 197,-398.25 197,-398.25 197,-398.25 243.66,-353.82 268.3,-330.37"/>
<polygon fill="black" stroke="black" points="269.4,-331.74 271.81,-327.02 266.98,-329.2 269.4,-331.74"/>
</g>
<!-- dict_dds.settings_and_parameters_sap -->
<g id="node10" class="node">
<title>dict_dds.settings_and_parameters_sap</title>
<g id="a_node10"><a xlink:href="/table_info/dict_dds/settings_and_parameters_sap" xlink:title="dict_dds.settings_and_parameters_sap" target="_blank">
<polygon fill="lightyellow" stroke="black" points="167.12,-428.5 7.88,-428.5 7.88,-410 167.12,-410 167.12,-428.5"/>
<text text-anchor="middle" x="87.5" y="-416.9" font-family="Arial" font-size="8.00">dict_dds.settings_and_parameters_sap</text>
</a>
</g>
</g>
<!-- dict_dds.settings_and_parameters_sap&#45;&gt;dm_calc.accounting_external_contracts -->
<g id="edge9" class="edge">
<title>dict_dds.settings_and_parameters_sap&#45;&gt;dm_calc.accounting_external_contracts</title>
<path fill="none" stroke="black" d="M128.46,-409.55C151.12,-404.05 175,-398.25 175,-398.25 175,-398.25 234.56,-353.08 265.27,-329.79"/>
<polygon fill="black" stroke="black" points="266.16,-331.31 269.09,-326.89 264.05,-328.52 266.16,-331.31"/>
</g>
<!-- ods.accounting_document_position -->
<g id="node11" class="node">
<title>ods.accounting_document_position</title>
<g id="a_node11"><a xlink:href="/table_info/ods/accounting_document_position" xlink:title="ods.accounting_document_position" target="_blank">
<polygon fill="lightcoral" stroke="black" points="159.25,-592.5 15.75,-592.5 15.75,-574 159.25,-574 159.25,-592.5"/>
<text text-anchor="middle" x="87.5" y="-580.9" font-family="Arial" font-size="8.00">ods.accounting_document_position</text>
</a>
</g>
</g>
<!-- ods.accounting_document_position&#45;&gt;dm_calc.account_balance_by_contract -->
<g id="edge10" class="edge">
<title>ods.accounting_document_position&#45;&gt;dm_calc.account_balance_by_contract</title>
<path fill="none" stroke="black" d="M128.46,-573.55C151.12,-568.05 175,-562.25 175,-562.25 175,-562.25 197,-545.25 197,-545.25 197,-545.25 221.92,-537.73 244.95,-530.78"/>
<polygon fill="black" stroke="black" points="245.33,-532.49 249.61,-529.37 244.31,-529.14 245.33,-532.49"/>
</g>
<!-- dict_dds.purchase_group -->
<g id="node12" class="node">
<title>dict_dds.purchase_group</title>
<g id="a_node12"><a xlink:href="/table_info/dict_dds/purchase_group" xlink:title="dict_dds.purchase_group" target="_blank">
<polygon fill="lightyellow" stroke="black" points="142,-387.5 33,-387.5 33,-369 142,-369 142,-387.5"/>
<text text-anchor="middle" x="87.5" y="-375.9" font-family="Arial" font-size="8.00">dict_dds.purchase_group</text>
</a>
</g>
</g>
<!-- dict_dds.purchase_group&#45;&gt;dm_calc.accounting_external_contracts -->
<g id="edge11" class="edge">
<title>dict_dds.purchase_group&#45;&gt;dm_calc.accounting_external_contracts</title>
<path fill="none" stroke="black" d="M128.46,-368.55C151.12,-363.05 175,-357.25 175,-357.25 175,-357.25 219.78,-340.27 251.7,-328.16"/>
<polygon fill="black" stroke="black" points="252.03,-329.91 256.09,-326.5 250.79,-326.64 252.03,-329.91"/>
</g>
<!-- ods.accounting_document_header -->
<g id="node13" class="node">
<title>ods.accounting_document_header</title>
<g id="a_node13"><a xlink:href="/table_info/ods/accounting_document_header" xlink:title="ods.accounting_document_header" target="_blank">
<polygon fill="lightcoral" stroke="black" points="158.12,-551.5 16.88,-551.5 16.88,-533 158.12,-533 158.12,-551.5"/>
<text text-anchor="middle" x="87.5" y="-539.9" font-family="Arial" font-size="8.00">ods.accounting_document_header</text>
</a>
</g>
</g>
<!-- ods.accounting_document_header&#45;&gt;dm_calc.account_balance_by_contract -->
<g id="edge12" class="edge">
<title>ods.accounting_document_header&#45;&gt;dm_calc.account_balance_by_contract</title>
<path fill="none" stroke="black" d="M158.49,-533.98C171.32,-532.46 184.84,-530.86 198.05,-529.3"/>
<polygon fill="black" stroke="black" points="198.25,-531.04 203.01,-528.72 197.84,-527.57 198.25,-531.04"/>
</g>
<!-- ods.purchase_agreement -->
<g id="node14" class="node">
<title>ods.purchase_agreement</title>
<g id="a_node14"><a xlink:href="/table_info/ods/purchase_agreement" xlink:title="ods.purchase_agreement" target="_blank">
<polygon fill="lightblue" stroke="black" points="142,-346.5 33,-346.5 33,-328 142,-328 142,-346.5"/>
<text text-anchor="middle" x="87.5" y="-334.9" font-family="Arial" font-size="8.00">ods.purchase_agreement</text>
</a>
</g>
</g>
<!-- ods.purchase_agreement&#45;&gt;dm_calc.accounting_external_contracts -->
<g id="edge13" class="edge">
<title>ods.purchase_agreement&#45;&gt;dm_calc.accounting_external_contracts</title>
<path fill="none" stroke="black" d="M142.46,-331.43C159.44,-329.6 178.63,-327.53 197.26,-325.52"/>
<polygon fill="black" stroke="black" points="197.26,-327.28 202.04,-325 196.88,-323.8 197.26,-327.28"/>
</g>
<!-- dict_dds.user_main_data -->
<g id="node15" class="node">
<title>dict_dds.user_main_data</title>
<g id="a_node15"><a xlink:href="/table_info/dict_dds/user_main_data" xlink:title="dict_dds.user_main_data" target="_blank">
<polygon fill="lightyellow" stroke="black" points="140.88,-305.5 34.13,-305.5 34.13,-287 140.88,-287 140.88,-305.5"/>
<text text-anchor="middle" x="87.5" y="-293.9" font-family="Arial" font-size="8.00">dict_dds.user_main_data</text>
</a>
</g>
</g>
<!-- dict_dds.user_main_data&#45;&gt;dm_calc.accounting_external_contracts -->
<g id="edge15" class="edge">
<title>dict_dds.user_main_data&#45;&gt;dm_calc.accounting_external_contracts</title>
<path fill="none" stroke="black" d="M141.17,-301.66C158.36,-303.43 177.93,-305.44 196.93,-307.39"/>
<polygon fill="black" stroke="black" points="196.68,-309.13 201.84,-307.9 197.04,-305.64 196.68,-309.13"/>
</g>
<!-- dict_dds.address -->
<g id="node16" class="node">
<title>dict_dds.address</title>
<g id="a_node16"><a xlink:href="/table_info/dict_dds/address" xlink:title="dict_dds.address" target="_blank">
<polygon fill="lightyellow" stroke="black" points="127,-59.5 48,-59.5 48,-41 127,-41 127,-59.5"/>
<text text-anchor="middle" x="87.5" y="-47.9" font-family="Arial" font-size="8.00">dict_dds.address</text>
</a>
</g>
</g>
<!-- dict_dds.address&#45;&gt;dm_calc.accounting_counterparty -->
<g id="edge16" class="edge">
<title>dict_dds.address&#45;&gt;dm_calc.accounting_counterparty</title>
<path fill="none" stroke="black" d="M127.42,-50.25C150.52,-50.25 180.59,-50.25 208.13,-50.25"/>
<polygon fill="black" stroke="black" points="207.82,-52 212.82,-50.25 207.82,-48.5 207.82,-52"/>
</g>
<!-- dict_dds.counterparty -->
<g id="node17" class="node">
<title>dict_dds.counterparty</title>
<g id="a_node17"><a xlink:href="/table_info/dict_dds/counterparty" xlink:title="dict_dds.counterparty" target="_blank">
<polygon fill="lightyellow" stroke="black" points="135.25,-18.5 39.75,-18.5 39.75,0 135.25,0 135.25,-18.5"/>
<text text-anchor="middle" x="87.5" y="-6.9" font-family="Arial" font-size="8.00">dict_dds.counterparty</text>
</a>
</g>
</g>
<!-- dict_dds.counterparty&#45;&gt;dm_calc.accounting_counterparty -->
<g id="edge17" class="edge">
<title>dict_dds.counterparty&#45;&gt;dm_calc.accounting_counterparty</title>
<path fill="none" stroke="black" d="M134.62,-18.97C163.48,-25.05 200.74,-32.89 230.72,-39.21"/>
<polygon fill="black" stroke="black" points="230.26,-40.9 235.51,-40.22 230.98,-37.48 230.26,-40.9"/>
</g>
<!-- ods.accounting_balance -->
<g id="node18" class="node">
<title>ods.accounting_balance</title>
<g id="a_node18"><a xlink:href="/table_info/ods/accounting_balance" xlink:title="ods.accounting_balance" target="_blank">
<polygon fill="lightblue" stroke="black" points="139.75,-510.5 35.25,-510.5 35.25,-492 139.75,-492 139.75,-510.5"/>
<text text-anchor="middle" x="87.5" y="-498.9" font-family="Arial" font-size="8.00">ods.accounting_balance</text>
</a>
</g>
</g>
<!-- ods.accounting_balance&#45;&gt;dm_calc.account_balance_by_contract -->
<g id="edge18" class="edge">
<title>ods.accounting_balance&#45;&gt;dm_calc.account_balance_by_contract</title>
<path fill="none" stroke="black" d="M140.14,-506.03C157.93,-507.67 178.34,-509.56 198.07,-511.38"/>
<polygon fill="black" stroke="black" points="197.8,-513.12 202.94,-511.83 198.13,-509.63 197.8,-513.12"/>
</g>
<!-- ods.purchase_document_counterparty_role -->
<g id="node19" class="node">
<title>ods.purchase_document_counterparty_role</title>
<g id="a_node19"><a xlink:href="/table_info/ods/purchase_document_counterparty_role" xlink:title="ods.purchase_document_counterparty_role" target="_blank">
<polygon fill="lightblue" stroke="black" points="175,-264.5 0,-264.5 0,-246 175,-246 175,-264.5"/>
<text text-anchor="middle" x="87.5" y="-252.9" font-family="Arial" font-size="8.00">ods.purchase_document_counterparty_role</text>
</a>
</g>
</g>
<!-- ods.purchase_document_counterparty_role&#45;&gt;dm_calc.accounting_external_contracts -->
<g id="edge19" class="edge">
<title>ods.purchase_document_counterparty_role&#45;&gt;dm_calc.accounting_external_contracts</title>
<path fill="none" stroke="black" d="M128.46,-264.95C151.12,-270.45 175,-276.25 175,-276.25 175,-276.25 197,-295.25 197,-295.25 197,-295.25 216.69,-300.05 237.25,-305.06"/>
<polygon fill="black" stroke="black" points="236.6,-306.71 241.87,-306.19 237.43,-303.31 236.6,-306.71"/>
</g>
<!-- ods.sales_document_counterparty_role -->
<g id="node20" class="node">
<title>ods.sales_document_counterparty_role</title>
<g id="a_node20"><a xlink:href="/table_info/ods/sales_document_counterparty_role" xlink:title="ods.sales_document_counterparty_role" target="_blank">
<polygon fill="lightblue" stroke="black" points="167.5,-223.5 7.5,-223.5 7.5,-205 167.5,-205 167.5,-223.5"/>
<text text-anchor="middle" x="87.5" y="-211.9" font-family="Arial" font-size="8.00">ods.sales_document_counterparty_role</text>
</a>
</g>
</g>
<!-- ods.sales_document_counterparty_role&#45;&gt;dm_calc.accounting_external_contracts -->
<g id="edge20" class="edge">
<title>ods.sales_document_counterparty_role&#45;&gt;dm_calc.accounting_external_contracts</title>
<path fill="none" stroke="black" d="M128.46,-223.95C151.12,-229.45 175,-235.25 175,-235.25 175,-235.25 197,-295.25 197,-295.25 197,-295.25 216.69,-300.05 237.25,-305.06"/>
<polygon fill="black" stroke="black" points="236.6,-306.71 241.87,-306.19 237.43,-303.31 236.6,-306.71"/>
</g>
<!-- ods.purchase_contract -->
<g id="node21" class="node">
<title>ods.purchase_contract</title>
<g id="a_node21"><a xlink:href="/table_info/ods/purchase_contract" xlink:title="ods.purchase_contract" target="_blank">
<polygon fill="lightblue" stroke="black" points="137.88,-182.5 37.12,-182.5 37.12,-164 137.88,-164 137.88,-182.5"/>
<text text-anchor="middle" x="87.5" y="-170.9" font-family="Arial" font-size="8.00">ods.purchase_contract</text>
</a>
</g>
</g>
<!-- ods.purchase_contract&#45;&gt;dm_calc.accounting_external_contracts -->
<g id="edge21" class="edge">
<title>ods.purchase_contract&#45;&gt;dm_calc.accounting_external_contracts</title>
<path fill="none" stroke="black" d="M128.46,-182.95C151.12,-188.45 175,-194.25 175,-194.25 175,-194.25 197,-295.25 197,-295.25 197,-295.25 216.69,-300.05 237.25,-305.06"/>
<polygon fill="black" stroke="black" points="236.6,-306.71 241.87,-306.19 237.43,-303.31 236.6,-306.71"/>
</g>
<!-- ods.financial_loan_terms -->
<g id="node22" class="node">
<title>ods.financial_loan_terms</title>
<g id="a_node22"><a xlink:href="/table_info/ods/financial_loan_terms" xlink:title="ods.financial_loan_terms" target="_blank">
<polygon fill="lightblue" stroke="black" points="140.5,-141.5 34.5,-141.5 34.5,-123 140.5,-123 140.5,-141.5"/>
<text text-anchor="middle" x="87.5" y="-129.9" font-family="Arial" font-size="8.00">ods.financial_loan_terms</text>
</a>
</g>
</g>
<!-- ods.financial_loan_terms&#45;&gt;dm_calc.accounting_external_contracts -->
<g id="edge22" class="edge">
<title>ods.financial_loan_terms&#45;&gt;dm_calc.accounting_external_contracts</title>
<path fill="none" stroke="black" d="M128.46,-141.95C151.12,-147.45 175,-153.25 175,-153.25 175,-153.25 197,-295.25 197,-295.25 197,-295.25 216.69,-300.05 237.25,-305.06"/>
<polygon fill="black" stroke="black" points="236.6,-306.71 241.87,-306.19 237.43,-303.31 236.6,-306.71"/>
</g>
<!-- dict_dds.sales_group -->
<g id="node23" class="node">
<title>dict_dds.sales_group</title>
<g id="a_node23"><a xlink:href="/table_info/dict_dds/sales_group" xlink:title="dict_dds.sales_group" target="_blank">
<polygon fill="lightyellow" stroke="black" points="134.5,-100.5 40.5,-100.5 40.5,-82 134.5,-82 134.5,-100.5"/>
<text text-anchor="middle" x="87.5" y="-88.9" font-family="Arial" font-size="8.00">dict_dds.sales_group</text>
</a>
</g>
</g>
<!-- dict_dds.sales_group&#45;&gt;dm_calc.accounting_external_contracts -->
<g id="edge23" class="edge">
<title>dict_dds.sales_group&#45;&gt;dm_calc.accounting_external_contracts</title>
<path fill="none" stroke="black" d="M128.46,-100.95C151.12,-106.45 175,-112.25 175,-112.25 175,-112.25 197,-295.25 197,-295.25 197,-295.25 216.69,-300.05 237.25,-305.06"/>
<polygon fill="black" stroke="black" points="236.6,-306.71 241.87,-306.19 237.43,-303.31 236.6,-306.71"/>
</g>
<!-- key1 -->
<g id="node24" class="node">
<title>key1</title>
<polygon fill="lightyellow" stroke="black" points="134.88,-691.25 40.12,-691.25 40.12,-655.25 134.88,-655.25 134.88,-691.25"/>
<text text-anchor="middle" x="87.5" y="-670.9" font-family="Arial" font-size="8.00">dict_dds Справочник</text>
</g>
<!-- key2 -->
<g id="node25" class="node">
<title>key2</title>
<polygon fill="lightblue" stroke="black" points="319.12,-691.25 249.12,-691.25 249.12,-655.25 319.12,-655.25 319.12,-691.25"/>
<text text-anchor="middle" x="284.12" y="-670.9" font-family="Arial" font-size="8.00">other schemas</text>
</g>
<!-- key1&#45;&gt;key2 -->
<!-- key3 -->
<g id="node26" class="node">
<title>key3</title>
<polygon fill="lightcoral" stroke="black" points="509.38,-691.25 416.12,-691.25 416.12,-655.25 509.38,-655.25 509.38,-691.25"/>
<text text-anchor="middle" x="462.75" y="-670.9" font-family="Arial" font-size="8.00">таблица выключена</text>
</g>
<!-- key2&#45;&gt;key3 -->
</g>
</svg>
