<?xml version="1.0" encoding="UTF-8" standalone="no"?>
<!DOCTYPE svg PUBLIC "-//W3C//DTD SVG 1.1//EN"
 "http://www.w3.org/Graphics/SVG/1.1/DTD/svg11.dtd">
<!-- Generated by graphviz version 11.0.0 (20240428.1522)
 -->
<!-- Pages: 1 -->
<svg width="358pt" height="165pt"
 viewBox="0.00 0.00 357.75 165.25" xmlns="http://www.w3.org/2000/svg" xmlns:xlink="http://www.w3.org/1999/xlink">
<g id="graph0" class="graph" transform="scale(1 1) rotate(0) translate(4 161.25)">
<polygon fill="white" stroke="none" points="-4,4 -4,-161.25 353.75,-161.25 353.75,4 -4,4"/>
<g id="clust1" class="cluster">
<title>cluster_legend</title>
<polygon fill="none" stroke="black" points="8,-78.25 8,-149.25 341.75,-149.25 341.75,-78.25 8,-78.25"/>
<text text-anchor="middle" x="174.88" y="-137.65" font-family="Arial" font-size="8.00">Легенда</text>
</g>
<!-- dict_dds.plant_and_subsidiary -->
<g id="node1" class="node">
<title>dict_dds.plant_and_subsidiary</title>
<g id="a_node1"><a xlink:href="/table_info/dict_dds/plant_and_subsidiary" xlink:title="dict_dds.plant_and_subsidiary" target="_blank">
<polygon fill="lightyellow" stroke="black" points="126.5,-60.5 0.25,-60.5 0.25,-42 126.5,-42 126.5,-60.5"/>
<text text-anchor="middle" x="63.38" y="-48.9" font-family="Arial" font-size="8.00">dict_dds.plant_and_subsidiary</text>
</a>
</g>
</g>
<!-- dm.alumina_balance -->
<g id="node2" class="node">
<title>dm.alumina_balance</title>
<g id="a_node2"><a xlink:href="/table_info/dm/alumina_balance" xlink:title="dm.alumina_balance" target="_blank">
<polygon fill="lightblue" stroke="black" points="331.5,-39.5 242.75,-39.5 242.75,-21 331.5,-21 331.5,-39.5"/>
<text text-anchor="middle" x="287.12" y="-27.9" font-family="Arial" font-size="8.00">dm.alumina_balance</text>
</a>
</g>
</g>
<!-- dict_dds.plant_and_subsidiary&#45;&gt;dm.alumina_balance -->
<g id="edge1" class="edge">
<title>dict_dds.plant_and_subsidiary&#45;&gt;dm.alumina_balance</title>
<path fill="none" stroke="black" d="M126.73,-45.34C161.32,-42.07 203.76,-38.05 236.14,-34.98"/>
<polygon fill="black" stroke="black" points="236.16,-36.74 240.97,-34.53 235.83,-33.26 236.16,-36.74"/>
</g>
<!-- dm.plant_data -->
<g id="node3" class="node">
<title>dm.plant_data</title>
<g id="a_node3"><a xlink:href="/table_info/dm/plant_data" xlink:title="dm.plant_data" target="_blank">
<polygon fill="lightblue" stroke="black" points="216.62,-18.5 150.38,-18.5 150.38,0 216.62,0 216.62,-18.5"/>
<text text-anchor="middle" x="183.5" y="-6.9" font-family="Arial" font-size="8.00">dm.plant_data</text>
</a>
</g>
</g>
<!-- dict_dds.plant_and_subsidiary&#45;&gt;dm.plant_data -->
<g id="edge3" class="edge">
<title>dict_dds.plant_and_subsidiary&#45;&gt;dm.plant_data</title>
<path fill="none" stroke="black" d="M91.8,-41.54C108.45,-35.64 126.5,-29.25 126.5,-29.25 126.5,-29.25 137.33,-25.38 149.46,-21.05"/>
<polygon fill="black" stroke="black" points="149.94,-22.74 154.06,-19.41 148.76,-19.44 149.94,-22.74"/>
</g>
<!-- dm.plant_data&#45;&gt;dm.alumina_balance -->
<g id="edge2" class="edge">
<title>dm.plant_data&#45;&gt;dm.alumina_balance</title>
<path fill="none" stroke="black" d="M216.93,-15.95C223.16,-17.24 229.81,-18.61 236.44,-19.98"/>
<polygon fill="black" stroke="black" points="235.77,-21.63 241.02,-20.93 236.48,-18.2 235.77,-21.63"/>
</g>
<!-- dict_dds.material_texts -->
<g id="node4" class="node">
<title>dict_dds.material_texts</title>
<g id="a_node4"><a xlink:href="/table_info/dict_dds/material_texts" xlink:title="dict_dds.material_texts" target="_blank">
<polygon fill="lightyellow" stroke="black" points="113,-18.5 13.75,-18.5 13.75,0 113,0 113,-18.5"/>
<text text-anchor="middle" x="63.38" y="-6.9" font-family="Arial" font-size="8.00">dict_dds.material_texts</text>
</a>
</g>
</g>
<!-- dict_dds.material_texts&#45;&gt;dm.plant_data -->
<g id="edge4" class="edge">
<title>dict_dds.material_texts&#45;&gt;dm.plant_data</title>
<path fill="none" stroke="black" d="M113.44,-9.25C123.44,-9.25 133.82,-9.25 143.41,-9.25"/>
<polygon fill="black" stroke="black" points="143.39,-11 148.39,-9.25 143.39,-7.5 143.39,-11"/>
</g>
<!-- key1 -->
<g id="node5" class="node">
<title>key1</title>
<polygon fill="lightyellow" stroke="black" points="110.75,-122.25 16,-122.25 16,-86.25 110.75,-86.25 110.75,-122.25"/>
<text text-anchor="middle" x="63.38" y="-101.9" font-family="Arial" font-size="8.00">dict_dds Справочник</text>
</g>
<!-- key2 -->
<g id="node6" class="node">
<title>key2</title>
<polygon fill="lightblue" stroke="black" points="218.5,-122.25 148.5,-122.25 148.5,-86.25 218.5,-86.25 218.5,-122.25"/>
<text text-anchor="middle" x="183.5" y="-101.9" font-family="Arial" font-size="8.00">other schemas</text>
</g>
<!-- key1&#45;&gt;key2 -->
<!-- key3 -->
<g id="node7" class="node">
<title>key3</title>
<polygon fill="lightcoral" stroke="black" points="333.75,-122.25 240.5,-122.25 240.5,-86.25 333.75,-86.25 333.75,-122.25"/>
<text text-anchor="middle" x="287.12" y="-101.9" font-family="Arial" font-size="8.00">таблица выключена</text>
</g>
<!-- key2&#45;&gt;key3 -->
</g>
</svg>
