<?xml version="1.0" encoding="UTF-8" standalone="no"?>
<!DOCTYPE svg PUBLIC "-//W3C//DTD SVG 1.1//EN"
 "http://www.w3.org/Graphics/SVG/1.1/DTD/svg11.dtd">
<!-- Generated by graphviz version 11.0.0 (20240428.1522)
 -->
<!-- Pages: 1 -->
<svg width="497pt" height="488pt"
 viewBox="0.00 0.00 497.00 488.25" xmlns="http://www.w3.org/2000/svg" xmlns:xlink="http://www.w3.org/1999/xlink">
<g id="graph0" class="graph" transform="scale(1 1) rotate(0) translate(4 484.25)">
<polygon fill="white" stroke="none" points="-4,4 -4,-484.25 493,-484.25 493,4 -4,4"/>
<g id="clust1" class="cluster">
<title>cluster_legend</title>
<polygon fill="none" stroke="black" points="32.12,-401.25 32.12,-472.25 481,-472.25 481,-401.25 32.12,-401.25"/>
<text text-anchor="middle" x="256.56" y="-460.65" font-family="Arial" font-size="8.00">Легенда</text>
</g>
<!-- ods.sales_contract -->
<g id="node1" class="node">
<title>ods.sales_contract</title>
<g id="a_node1"><a xlink:href="/table_info/ods/sales_contract" xlink:title="ods.sales_contract" target="_blank">
<polygon fill="lightblue" stroke="black" points="130.38,-387.5 44.62,-387.5 44.62,-369 130.38,-369 130.38,-387.5"/>
<text text-anchor="middle" x="87.5" y="-375.9" font-family="Arial" font-size="8.00">ods.sales_contract</text>
</a>
</g>
</g>
<!-- dm_calc.accounting_external_contracts -->
<g id="node2" class="node">
<title>dm_calc.accounting_external_contracts</title>
<g id="a_node2"><a xlink:href="/table_info/dm_calc/accounting_external_contracts" xlink:title="dm_calc.accounting_external_contracts" target="_blank">
<polygon fill="lightblue" stroke="black" points="357.75,-202.5 197,-202.5 197,-184 357.75,-184 357.75,-202.5"/>
<text text-anchor="middle" x="277.38" y="-190.9" font-family="Arial" font-size="8.00">dm_calc.accounting_external_contracts</text>
</a>
</g>
</g>
<!-- ods.sales_contract&#45;&gt;dm_calc.accounting_external_contracts -->
<g id="edge1" class="edge">
<title>ods.sales_contract&#45;&gt;dm_calc.accounting_external_contracts</title>
<path fill="none" stroke="black" d="M128.46,-368.55C151.12,-363.05 175,-357.25 175,-357.25 175,-357.25 242.4,-248.22 267.28,-207.96"/>
<polygon fill="black" stroke="black" points="268.7,-209 269.84,-203.82 265.72,-207.16 268.7,-209"/>
</g>
<!-- dict_dds.settings_and_parameters_sap -->
<g id="node3" class="node">
<title>dict_dds.settings_and_parameters_sap</title>
<g id="a_node3"><a xlink:href="/table_info/dict_dds/settings_and_parameters_sap" xlink:title="dict_dds.settings_and_parameters_sap" target="_blank">
<polygon fill="lightyellow" stroke="black" points="167.12,-346.5 7.88,-346.5 7.88,-328 167.12,-328 167.12,-346.5"/>
<text text-anchor="middle" x="87.5" y="-334.9" font-family="Arial" font-size="8.00">dict_dds.settings_and_parameters_sap</text>
</a>
</g>
</g>
<!-- dict_dds.settings_and_parameters_sap&#45;&gt;dm_calc.accounting_external_contracts -->
<g id="edge2" class="edge">
<title>dict_dds.settings_and_parameters_sap&#45;&gt;dm_calc.accounting_external_contracts</title>
<path fill="none" stroke="black" d="M128.46,-327.55C151.12,-322.05 175,-316.25 175,-316.25 175,-316.25 237.64,-240.25 264.44,-207.73"/>
<polygon fill="black" stroke="black" points="265.63,-209.04 267.46,-204.07 262.93,-206.81 265.63,-209.04"/>
</g>
<!-- dict_dds.purchase_group -->
<g id="node4" class="node">
<title>dict_dds.purchase_group</title>
<g id="a_node4"><a xlink:href="/table_info/dict_dds/purchase_group" xlink:title="dict_dds.purchase_group" target="_blank">
<polygon fill="lightyellow" stroke="black" points="142,-305.5 33,-305.5 33,-287 142,-287 142,-305.5"/>
<text text-anchor="middle" x="87.5" y="-293.9" font-family="Arial" font-size="8.00">dict_dds.purchase_group</text>
</a>
</g>
</g>
<!-- dict_dds.purchase_group&#45;&gt;dm_calc.accounting_external_contracts -->
<g id="edge3" class="edge">
<title>dict_dds.purchase_group&#45;&gt;dm_calc.accounting_external_contracts</title>
<path fill="none" stroke="black" d="M128.46,-286.55C151.12,-281.05 175,-275.25 175,-275.25 175,-275.25 230.85,-230.08 259.64,-206.79"/>
<polygon fill="black" stroke="black" points="260.38,-208.44 263.17,-203.93 258.18,-205.71 260.38,-208.44"/>
</g>
<!-- ods.purchase_agreement -->
<g id="node5" class="node">
<title>ods.purchase_agreement</title>
<g id="a_node5"><a xlink:href="/table_info/ods/purchase_agreement" xlink:title="ods.purchase_agreement" target="_blank">
<polygon fill="lightblue" stroke="black" points="142,-264.5 33,-264.5 33,-246 142,-246 142,-264.5"/>
<text text-anchor="middle" x="87.5" y="-252.9" font-family="Arial" font-size="8.00">ods.purchase_agreement</text>
</a>
</g>
</g>
<!-- ods.purchase_agreement&#45;&gt;dm_calc.accounting_external_contracts -->
<g id="edge4" class="edge">
<title>ods.purchase_agreement&#45;&gt;dm_calc.accounting_external_contracts</title>
<path fill="none" stroke="black" d="M128.46,-245.55C151.12,-240.05 175,-234.25 175,-234.25 175,-234.25 216.64,-217.41 246.54,-205.32"/>
<polygon fill="black" stroke="black" points="246.97,-207.03 250.95,-203.53 245.66,-203.79 246.97,-207.03"/>
</g>
<!-- dict_dds.user_main_data -->
<g id="node6" class="node">
<title>dict_dds.user_main_data</title>
<g id="a_node6"><a xlink:href="/table_info/dict_dds/user_main_data" xlink:title="dict_dds.user_main_data" target="_blank">
<polygon fill="lightyellow" stroke="black" points="140.88,-223.5 34.13,-223.5 34.13,-205 140.88,-205 140.88,-223.5"/>
<text text-anchor="middle" x="87.5" y="-211.9" font-family="Arial" font-size="8.00">dict_dds.user_main_data</text>
</a>
</g>
</g>
<!-- dict_dds.user_main_data&#45;&gt;dm_calc.accounting_external_contracts -->
<g id="edge5" class="edge">
<title>dict_dds.user_main_data&#45;&gt;dm_calc.accounting_external_contracts</title>
<path fill="none" stroke="black" d="M141.33,-208.34C156.61,-206.64 173.68,-204.73 190.42,-202.86"/>
<polygon fill="black" stroke="black" points="190.29,-204.63 195.07,-202.34 189.9,-201.15 190.29,-204.63"/>
</g>
<!-- ods.purchase_document_counterparty_role -->
<g id="node7" class="node">
<title>ods.purchase_document_counterparty_role</title>
<g id="a_node7"><a xlink:href="/table_info/ods/purchase_document_counterparty_role" xlink:title="ods.purchase_document_counterparty_role" target="_blank">
<polygon fill="lightblue" stroke="black" points="175,-182.5 0,-182.5 0,-164 175,-164 175,-182.5"/>
<text text-anchor="middle" x="87.5" y="-170.9" font-family="Arial" font-size="8.00">ods.purchase_document_counterparty_role</text>
</a>
</g>
</g>
<!-- ods.purchase_document_counterparty_role&#45;&gt;dm_calc.accounting_external_contracts -->
<g id="edge6" class="edge">
<title>ods.purchase_document_counterparty_role&#45;&gt;dm_calc.accounting_external_contracts</title>
<path fill="none" stroke="black" d="M175.29,-182.49C180.29,-183.02 185.32,-183.56 190.32,-184.09"/>
<polygon fill="black" stroke="black" points="189.97,-185.81 195.13,-184.6 190.34,-182.33 189.97,-185.81"/>
</g>
<!-- ods.sales_document_counterparty_role -->
<g id="node8" class="node">
<title>ods.sales_document_counterparty_role</title>
<g id="a_node8"><a xlink:href="/table_info/ods/sales_document_counterparty_role" xlink:title="ods.sales_document_counterparty_role" target="_blank">
<polygon fill="lightblue" stroke="black" points="167.5,-141.5 7.5,-141.5 7.5,-123 167.5,-123 167.5,-141.5"/>
<text text-anchor="middle" x="87.5" y="-129.9" font-family="Arial" font-size="8.00">ods.sales_document_counterparty_role</text>
</a>
</g>
</g>
<!-- ods.sales_document_counterparty_role&#45;&gt;dm_calc.accounting_external_contracts -->
<g id="edge7" class="edge">
<title>ods.sales_document_counterparty_role&#45;&gt;dm_calc.accounting_external_contracts</title>
<path fill="none" stroke="black" d="M128.46,-141.95C151.12,-147.45 175,-153.25 175,-153.25 175,-153.25 216.16,-169.49 246.03,-181.28"/>
<polygon fill="black" stroke="black" points="245.13,-182.8 250.43,-183.01 246.42,-179.55 245.13,-182.8"/>
</g>
<!-- ods.purchase_contract -->
<g id="node9" class="node">
<title>ods.purchase_contract</title>
<g id="a_node9"><a xlink:href="/table_info/ods/purchase_contract" xlink:title="ods.purchase_contract" target="_blank">
<polygon fill="lightblue" stroke="black" points="137.88,-100.5 37.12,-100.5 37.12,-82 137.88,-82 137.88,-100.5"/>
<text text-anchor="middle" x="87.5" y="-88.9" font-family="Arial" font-size="8.00">ods.purchase_contract</text>
</a>
</g>
</g>
<!-- ods.purchase_contract&#45;&gt;dm_calc.accounting_external_contracts -->
<g id="edge8" class="edge">
<title>ods.purchase_contract&#45;&gt;dm_calc.accounting_external_contracts</title>
<path fill="none" stroke="black" d="M128.46,-100.95C151.12,-106.45 175,-112.25 175,-112.25 175,-112.25 230.39,-156.5 259.28,-179.59"/>
<polygon fill="black" stroke="black" points="258.17,-180.94 263.17,-182.7 260.35,-178.21 258.17,-180.94"/>
</g>
<!-- ods.financial_loan_terms -->
<g id="node10" class="node">
<title>ods.financial_loan_terms</title>
<g id="a_node10"><a xlink:href="/table_info/ods/financial_loan_terms" xlink:title="ods.financial_loan_terms" target="_blank">
<polygon fill="lightblue" stroke="black" points="140.5,-59.5 34.5,-59.5 34.5,-41 140.5,-41 140.5,-59.5"/>
<text text-anchor="middle" x="87.5" y="-47.9" font-family="Arial" font-size="8.00">ods.financial_loan_terms</text>
</a>
</g>
</g>
<!-- ods.financial_loan_terms&#45;&gt;dm_calc.accounting_external_contracts -->
<g id="edge9" class="edge">
<title>ods.financial_loan_terms&#45;&gt;dm_calc.accounting_external_contracts</title>
<path fill="none" stroke="black" d="M128.46,-59.95C151.12,-65.45 175,-71.25 175,-71.25 175,-71.25 237.64,-146.63 264.44,-178.89"/>
<polygon fill="black" stroke="black" points="262.91,-179.79 267.45,-182.51 265.6,-177.55 262.91,-179.79"/>
</g>
<!-- dict_dds.sales_group -->
<g id="node11" class="node">
<title>dict_dds.sales_group</title>
<g id="a_node11"><a xlink:href="/table_info/dict_dds/sales_group" xlink:title="dict_dds.sales_group" target="_blank">
<polygon fill="lightyellow" stroke="black" points="134.5,-18.5 40.5,-18.5 40.5,0 134.5,0 134.5,-18.5"/>
<text text-anchor="middle" x="87.5" y="-6.9" font-family="Arial" font-size="8.00">dict_dds.sales_group</text>
</a>
</g>
</g>
<!-- dict_dds.sales_group&#45;&gt;dm_calc.accounting_external_contracts -->
<g id="edge10" class="edge">
<title>dict_dds.sales_group&#45;&gt;dm_calc.accounting_external_contracts</title>
<path fill="none" stroke="black" d="M128.46,-18.95C151.12,-24.45 175,-30.25 175,-30.25 175,-30.25 241.78,-137.63 266.94,-178.08"/>
<polygon fill="black" stroke="black" points="265.41,-178.93 269.54,-182.26 268.38,-177.09 265.41,-178.93"/>
</g>
<!-- key1 -->
<g id="node12" class="node">
<title>key1</title>
<polygon fill="lightyellow" stroke="black" points="134.88,-445.25 40.12,-445.25 40.12,-409.25 134.88,-409.25 134.88,-445.25"/>
<text text-anchor="middle" x="87.5" y="-424.9" font-family="Arial" font-size="8.00">dict_dds Справочник</text>
</g>
<!-- key2 -->
<g id="node13" class="node">
<title>key2</title>
<polygon fill="lightblue" stroke="black" points="312.38,-445.25 242.38,-445.25 242.38,-409.25 312.38,-409.25 312.38,-445.25"/>
<text text-anchor="middle" x="277.38" y="-424.9" font-family="Arial" font-size="8.00">other schemas</text>
</g>
<!-- key1&#45;&gt;key2 -->
<!-- key3 -->
<g id="node14" class="node">
<title>key3</title>
<polygon fill="lightcoral" stroke="black" points="473,-445.25 379.75,-445.25 379.75,-409.25 473,-409.25 473,-445.25"/>
<text text-anchor="middle" x="426.38" y="-424.9" font-family="Arial" font-size="8.00">таблица выключена</text>
</g>
<!-- key2&#45;&gt;key3 -->
</g>
</svg>
