<?xml version="1.0" encoding="UTF-8" standalone="no"?>
<!DOCTYPE svg PUBLIC "-//W3C//DTD SVG 1.1//EN"
 "http://www.w3.org/Graphics/SVG/1.1/DTD/svg11.dtd">
<!-- Generated by graphviz version 11.0.0 (20240428.1522)
 -->
<!-- Pages: 1 -->
<svg width="498pt" height="1440pt"
 viewBox="0.00 0.00 498.14 1440.00" xmlns="http://www.w3.org/2000/svg" xmlns:xlink="http://www.w3.org/1999/xlink">
<g id="graph0" class="graph" transform="scale(0.94659 0.94659) rotate(0) translate(4 1517.25)">
<polygon fill="white" stroke="none" points="-4,4 -4,-1517.25 522.25,-1517.25 522.25,4 -4,4"/>
<g id="clust1" class="cluster">
<title>cluster_legend</title>
<polygon fill="none" stroke="black" points="36.62,-1434.25 36.62,-1505.25 510.25,-1505.25 510.25,-1434.25 36.62,-1434.25"/>
<text text-anchor="middle" x="273.44" y="-1493.65" font-family="Arial" font-size="8.00">Легенда</text>
</g>
<!-- ods.delivery_notice -->
<g id="node1" class="node">
<title>ods.delivery_notice</title>
<g id="a_node1"><a xlink:href="/table_info/ods/delivery_notice" xlink:title="ods.delivery_notice" target="_blank">
<polygon fill="lightblue" stroke="black" points="332.62,-18.5 246.12,-18.5 246.12,0 332.62,0 332.62,-18.5"/>
<text text-anchor="middle" x="289.38" y="-6.9" font-family="Arial" font-size="8.00">ods.delivery_notice</text>
</a>
</g>
</g>
<!-- dm_calc.sd_sales_main_scm -->
<g id="node2" class="node">
<title>dm_calc.sd_sales_main_scm</title>
<g id="a_node2"><a xlink:href="/table_info/dm_calc/sd_sales_main_scm" xlink:title="dm_calc.sd_sales_main_scm" target="_blank">
<polygon fill="lightblue" stroke="black" points="516.5,-715.5 394.75,-715.5 394.75,-697 516.5,-697 516.5,-715.5"/>
<text text-anchor="middle" x="455.62" y="-703.9" font-family="Arial" font-size="8.00">dm_calc.sd_sales_main_scm</text>
</a>
</g>
</g>
<!-- ods.delivery_notice&#45;&gt;dm_calc.sd_sales_main_scm -->
<g id="edge1" class="edge">
<title>ods.delivery_notice&#45;&gt;dm_calc.sd_sales_main_scm</title>
<path fill="none" stroke="black" d="M328.19,-18.89C349.84,-24.41 372.75,-30.25 372.75,-30.25 372.75,-30.25 440.37,-588.58 452.71,-690.41"/>
<polygon fill="black" stroke="black" points="450.95,-690.44 453.29,-695.19 454.42,-690.02 450.95,-690.44"/>
</g>
<!-- dict_dds.material -->
<g id="node3" class="node">
<title>dict_dds.material</title>
<g id="a_node3"><a xlink:href="/table_info/dict_dds/material" xlink:title="dict_dds.material" target="_blank">
<polygon fill="lightyellow" stroke="black" points="327.75,-1420.5 251,-1420.5 251,-1402 327.75,-1402 327.75,-1420.5"/>
<text text-anchor="middle" x="289.38" y="-1408.9" font-family="Arial" font-size="8.00">dict_dds.material</text>
</a>
</g>
</g>
<!-- dict_dds.material&#45;&gt;dm_calc.sd_sales_main_scm -->
<g id="edge2" class="edge">
<title>dict_dds.material&#45;&gt;dm_calc.sd_sales_main_scm</title>
<path fill="none" stroke="black" d="M328.19,-1401.61C349.84,-1396.09 372.75,-1390.25 372.75,-1390.25 372.75,-1390.25 440.37,-825.32 452.71,-722.28"/>
<polygon fill="black" stroke="black" points="454.43,-722.59 453.29,-717.42 450.96,-722.18 454.43,-722.59"/>
</g>
<!-- dict_dds.transport_transfer_type_texts -->
<g id="node4" class="node">
<title>dict_dds.transport_transfer_type_texts</title>
<g id="a_node4"><a xlink:href="/table_info/dict_dds/transport_transfer_type_texts" xlink:title="dict_dds.transport_transfer_type_texts" target="_blank">
<polygon fill="lightyellow" stroke="black" points="368.62,-1379.5 210.12,-1379.5 210.12,-1361 368.62,-1361 368.62,-1379.5"/>
<text text-anchor="middle" x="289.38" y="-1367.9" font-family="Arial" font-size="8.00">dict_dds.transport_transfer_type_texts</text>
</a>
</g>
</g>
<!-- dict_dds.transport_transfer_type_texts&#45;&gt;dm_calc.sd_sales_main_scm -->
<g id="edge3" class="edge">
<title>dict_dds.transport_transfer_type_texts&#45;&gt;dm_calc.sd_sales_main_scm</title>
<path fill="none" stroke="black" d="M328.19,-1360.61C349.84,-1355.09 372.75,-1349.25 372.75,-1349.25 372.75,-1349.25 439.95,-821.46 452.59,-722.23"/>
<polygon fill="black" stroke="black" points="454.32,-722.52 453.21,-717.34 450.85,-722.08 454.32,-722.52"/>
</g>
<!-- dict_dds.transport_shipment_type -->
<g id="node5" class="node">
<title>dict_dds.transport_shipment_type</title>
<g id="a_node5"><a xlink:href="/table_info/dict_dds/transport_shipment_type" xlink:title="dict_dds.transport_shipment_type" target="_blank">
<polygon fill="lightyellow" stroke="black" points="358.88,-1338.5 219.88,-1338.5 219.88,-1320 358.88,-1320 358.88,-1338.5"/>
<text text-anchor="middle" x="289.38" y="-1326.9" font-family="Arial" font-size="8.00">dict_dds.transport_shipment_type</text>
</a>
</g>
</g>
<!-- dict_dds.transport_shipment_type&#45;&gt;dm_calc.sd_sales_main_scm -->
<g id="edge4" class="edge">
<title>dict_dds.transport_shipment_type&#45;&gt;dm_calc.sd_sales_main_scm</title>
<path fill="none" stroke="black" d="M328.19,-1319.61C349.84,-1314.09 372.75,-1308.25 372.75,-1308.25 372.75,-1308.25 439.54,-817.18 452.47,-722.09"/>
<polygon fill="black" stroke="black" points="454.2,-722.4 453.13,-717.21 450.73,-721.92 454.2,-722.4"/>
</g>
<!-- ods.sales_contract -->
<g id="node6" class="node">
<title>ods.sales_contract</title>
<g id="a_node6"><a xlink:href="/table_info/ods/sales_contract" xlink:title="ods.sales_contract" target="_blank">
<polygon fill="lightblue" stroke="black" points="332.25,-1297.5 246.5,-1297.5 246.5,-1279 332.25,-1279 332.25,-1297.5"/>
<text text-anchor="middle" x="289.38" y="-1285.9" font-family="Arial" font-size="8.00">ods.sales_contract</text>
</a>
</g>
</g>
<!-- ods.sales_contract&#45;&gt;dm_calc.sd_sales_main_scm -->
<g id="edge5" class="edge">
<title>ods.sales_contract&#45;&gt;dm_calc.sd_sales_main_scm</title>
<path fill="none" stroke="black" d="M328.19,-1278.61C349.84,-1273.09 372.75,-1267.25 372.75,-1267.25 372.75,-1267.25 438.84,-814.39 452.26,-722.43"/>
<polygon fill="black" stroke="black" points="453.99,-722.69 452.99,-717.48 450.53,-722.18 453.99,-722.69"/>
</g>
<!-- dict_dds.counterparty -->
<g id="node7" class="node">
<title>dict_dds.counterparty</title>
<g id="a_node7"><a xlink:href="/table_info/dict_dds/counterparty" xlink:title="dict_dds.counterparty" target="_blank">
<polygon fill="lightyellow" stroke="black" points="337.12,-1256.5 241.62,-1256.5 241.62,-1238 337.12,-1238 337.12,-1256.5"/>
<text text-anchor="middle" x="289.38" y="-1244.9" font-family="Arial" font-size="8.00">dict_dds.counterparty</text>
</a>
</g>
</g>
<!-- dict_dds.counterparty&#45;&gt;dm_calc.sd_sales_main_scm -->
<g id="edge6" class="edge">
<title>dict_dds.counterparty&#45;&gt;dm_calc.sd_sales_main_scm</title>
<path fill="none" stroke="black" d="M328.19,-1237.61C349.84,-1232.09 372.75,-1226.25 372.75,-1226.25 372.75,-1226.25 438.43,-809.1 452.14,-722.05"/>
<polygon fill="black" stroke="black" points="453.85,-722.43 452.9,-717.21 450.39,-721.88 453.85,-722.43"/>
</g>
<!-- dict_dds.delivery_split_reason_texts -->
<g id="node8" class="node">
<title>dict_dds.delivery_split_reason_texts</title>
<g id="a_node8"><a xlink:href="/table_info/dict_dds/delivery_split_reason_texts" xlink:title="dict_dds.delivery_split_reason_texts" target="_blank">
<polygon fill="lightyellow" stroke="black" points="363.75,-1215.5 215,-1215.5 215,-1197 363.75,-1197 363.75,-1215.5"/>
<text text-anchor="middle" x="289.38" y="-1203.9" font-family="Arial" font-size="8.00">dict_dds.delivery_split_reason_texts</text>
</a>
</g>
</g>
<!-- dict_dds.delivery_split_reason_texts&#45;&gt;dm_calc.sd_sales_main_scm -->
<g id="edge7" class="edge">
<title>dict_dds.delivery_split_reason_texts&#45;&gt;dm_calc.sd_sales_main_scm</title>
<path fill="none" stroke="black" d="M328.19,-1196.61C349.84,-1191.09 372.75,-1185.25 372.75,-1185.25 372.75,-1185.25 437.74,-805.01 451.92,-722.09"/>
<polygon fill="black" stroke="black" points="453.62,-722.53 452.73,-717.31 450.17,-721.94 453.62,-722.53"/>
</g>
<!-- ods.delivery_lot -->
<g id="node9" class="node">
<title>ods.delivery_lot</title>
<g id="a_node9"><a xlink:href="/table_info/ods/delivery_lot" xlink:title="ods.delivery_lot" target="_blank">
<polygon fill="lightblue" stroke="black" points="325.88,-1174.5 252.88,-1174.5 252.88,-1156 325.88,-1156 325.88,-1174.5"/>
<text text-anchor="middle" x="289.38" y="-1162.9" font-family="Arial" font-size="8.00">ods.delivery_lot</text>
</a>
</g>
</g>
<!-- ods.delivery_lot&#45;&gt;dm_calc.sd_sales_main_scm -->
<g id="edge8" class="edge">
<title>ods.delivery_lot&#45;&gt;dm_calc.sd_sales_main_scm</title>
<path fill="none" stroke="black" d="M326.27,-1156.1C348.46,-1150.44 372.75,-1144.25 372.75,-1144.25 372.75,-1144.25 436.93,-800.9 451.64,-722.19"/>
<polygon fill="black" stroke="black" points="453.36,-722.53 452.56,-717.29 449.92,-721.89 453.36,-722.53"/>
</g>
<!-- ods.bill_of_lading_in_foreign_port -->
<g id="node10" class="node">
<title>ods.bill_of_lading_in_foreign_port</title>
<g id="a_node10"><a xlink:href="/table_info/ods/bill_of_lading_in_foreign_port" xlink:title="ods.bill_of_lading_in_foreign_port" target="_blank">
<polygon fill="lightblue" stroke="black" points="358.12,-1133.5 220.62,-1133.5 220.62,-1115 358.12,-1115 358.12,-1133.5"/>
<text text-anchor="middle" x="289.38" y="-1121.9" font-family="Arial" font-size="8.00">ods.bill_of_lading_in_foreign_port</text>
</a>
</g>
</g>
<!-- ods.bill_of_lading_in_foreign_port&#45;&gt;dm_calc.sd_sales_main_scm -->
<g id="edge9" class="edge">
<title>ods.bill_of_lading_in_foreign_port&#45;&gt;dm_calc.sd_sales_main_scm</title>
<path fill="none" stroke="black" d="M321.05,-1114.57C344.47,-1107.18 372.75,-1098.25 372.75,-1098.25 372.75,-1098.25 436.11,-794.89 451.36,-721.9"/>
<polygon fill="black" stroke="black" points="452.98,-722.67 452.29,-717.42 449.56,-721.96 452.98,-722.67"/>
</g>
<!-- dict_dds.transport_hub -->
<g id="node11" class="node">
<title>dict_dds.transport_hub</title>
<g id="a_node11"><a xlink:href="/table_info/dict_dds/transport_hub" xlink:title="dict_dds.transport_hub" target="_blank">
<polygon fill="lightyellow" stroke="black" points="142,-1047.5 42,-1047.5 42,-1029 142,-1029 142,-1047.5"/>
<text text-anchor="middle" x="92" y="-1035.9" font-family="Arial" font-size="8.00">dict_dds.transport_hub</text>
</a>
</g>
</g>
<!-- dict_dds.transport_hub&#45;&gt;dm_calc.sd_sales_main_scm -->
<g id="edge10" class="edge">
<title>dict_dds.transport_hub&#45;&gt;dm_calc.sd_sales_main_scm</title>
<path fill="none" stroke="black" d="M142.23,-1046.96C172.69,-1052.35 206,-1058.25 206,-1058.25 206,-1058.25 372.75,-1058.25 372.75,-1058.25 372.75,-1058.25 435.06,-790.36 450.97,-721.98"/>
<polygon fill="black" stroke="black" points="452.66,-722.41 452.09,-717.14 449.25,-721.61 452.66,-722.41"/>
</g>
<!-- ods.nomination_in_russian_port -->
<g id="node13" class="node">
<title>ods.nomination_in_russian_port</title>
<g id="a_node13"><a xlink:href="/table_info/ods/nomination_in_russian_port" xlink:title="ods.nomination_in_russian_port" target="_blank">
<polygon fill="lightblue" stroke="black" points="354.75,-1047.5 224,-1047.5 224,-1029 354.75,-1029 354.75,-1047.5"/>
<text text-anchor="middle" x="289.38" y="-1035.9" font-family="Arial" font-size="8.00">ods.nomination_in_russian_port</text>
</a>
</g>
</g>
<!-- dict_dds.transport_hub&#45;&gt;ods.nomination_in_russian_port -->
<g id="edge43" class="edge">
<title>dict_dds.transport_hub&#45;&gt;ods.nomination_in_russian_port</title>
<path fill="none" stroke="black" d="M142.3,-1038.25C165.02,-1038.25 192.41,-1038.25 217.3,-1038.25"/>
<polygon fill="black" stroke="black" points="217.06,-1040 222.06,-1038.25 217.06,-1036.5 217.06,-1040"/>
</g>
<!-- ods.nomination_in_foreign_port -->
<g id="node33" class="node">
<title>ods.nomination_in_foreign_port</title>
<g id="a_node33"><a xlink:href="/table_info/ods/nomination_in_foreign_port" xlink:title="ods.nomination_in_foreign_port" target="_blank">
<polygon fill="lightblue" stroke="black" points="354,-1006.5 224.75,-1006.5 224.75,-988 354,-988 354,-1006.5"/>
<text text-anchor="middle" x="289.38" y="-994.9" font-family="Arial" font-size="8.00">ods.nomination_in_foreign_port</text>
</a>
</g>
</g>
<!-- dict_dds.transport_hub&#45;&gt;ods.nomination_in_foreign_port -->
<g id="edge38" class="edge">
<title>dict_dds.transport_hub&#45;&gt;ods.nomination_in_foreign_port</title>
<path fill="none" stroke="black" d="M139.3,-1028.53C168.27,-1022.45 205.67,-1014.61 235.76,-1008.29"/>
<polygon fill="black" stroke="black" points="236.05,-1010.02 240.59,-1007.28 235.33,-1006.59 236.05,-1010.02"/>
</g>
<!-- dict_dds.plant_and_subsidiary -->
<g id="node12" class="node">
<title>dict_dds.plant_and_subsidiary</title>
<g id="a_node12"><a xlink:href="/table_info/dict_dds/plant_and_subsidiary" xlink:title="dict_dds.plant_and_subsidiary" target="_blank">
<polygon fill="lightyellow" stroke="black" points="352.5,-920.5 226.25,-920.5 226.25,-902 352.5,-902 352.5,-920.5"/>
<text text-anchor="middle" x="289.38" y="-908.9" font-family="Arial" font-size="8.00">dict_dds.plant_and_subsidiary</text>
</a>
</g>
</g>
<!-- dict_dds.plant_and_subsidiary&#45;&gt;dm_calc.sd_sales_main_scm -->
<g id="edge11" class="edge">
<title>dict_dds.plant_and_subsidiary&#45;&gt;dm_calc.sd_sales_main_scm</title>
<path fill="none" stroke="black" d="M328.19,-901.61C349.84,-896.09 372.75,-890.25 372.75,-890.25 372.75,-890.25 427.93,-766.24 447.69,-721.83"/>
<polygon fill="black" stroke="black" points="449.29,-722.55 449.72,-717.27 446.09,-721.12 449.29,-722.55"/>
</g>
<!-- ods.nomination_in_russian_port&#45;&gt;dm_calc.sd_sales_main_scm -->
<g id="edge12" class="edge">
<title>ods.nomination_in_russian_port&#45;&gt;dm_calc.sd_sales_main_scm</title>
<path fill="none" stroke="black" d="M328.19,-1028.61C349.84,-1023.09 372.75,-1017.25 372.75,-1017.25 372.75,-1017.25 433.74,-785.58 450.44,-722.14"/>
<polygon fill="black" stroke="black" points="452.12,-722.64 451.7,-717.36 448.73,-721.75 452.12,-722.64"/>
</g>
<!-- dict_dds.specification -->
<g id="node14" class="node">
<title>dict_dds.specification</title>
<g id="a_node14"><a xlink:href="/table_info/dict_dds/specification" xlink:title="dict_dds.specification" target="_blank">
<polygon fill="lightyellow" stroke="black" points="336.75,-879.5 242,-879.5 242,-861 336.75,-861 336.75,-879.5"/>
<text text-anchor="middle" x="289.38" y="-867.9" font-family="Arial" font-size="8.00">dict_dds.specification</text>
</a>
</g>
</g>
<!-- dict_dds.specification&#45;&gt;dm_calc.sd_sales_main_scm -->
<g id="edge13" class="edge">
<title>dict_dds.specification&#45;&gt;dm_calc.sd_sales_main_scm</title>
<path fill="none" stroke="black" d="M328.19,-860.61C349.84,-855.09 372.75,-849.25 372.75,-849.25 372.75,-849.25 425.27,-757.52 446.18,-721"/>
<polygon fill="black" stroke="black" points="447.54,-722.15 448.5,-716.95 444.5,-720.42 447.54,-722.15"/>
</g>
<!-- dict_dds.incoterms -->
<g id="node15" class="node">
<title>dict_dds.incoterms</title>
<g id="a_node15"><a xlink:href="/table_info/dict_dds/incoterms" xlink:title="dict_dds.incoterms" target="_blank">
<polygon fill="lightyellow" stroke="black" points="331.5,-838.5 247.25,-838.5 247.25,-820 331.5,-820 331.5,-838.5"/>
<text text-anchor="middle" x="289.38" y="-826.9" font-family="Arial" font-size="8.00">dict_dds.incoterms</text>
</a>
</g>
</g>
<!-- dict_dds.incoterms&#45;&gt;dm_calc.sd_sales_main_scm -->
<g id="edge14" class="edge">
<title>dict_dds.incoterms&#45;&gt;dm_calc.sd_sales_main_scm</title>
<path fill="none" stroke="black" d="M328.19,-819.61C349.84,-814.09 372.75,-808.25 372.75,-808.25 372.75,-808.25 420.65,-748.57 443.18,-720.51"/>
<polygon fill="black" stroke="black" points="444.36,-721.84 446.12,-716.84 441.63,-719.65 444.36,-721.84"/>
</g>
<!-- ods.bill_of_lading_in_russian_port -->
<g id="node16" class="node">
<title>ods.bill_of_lading_in_russian_port</title>
<g id="a_node16"><a xlink:href="/table_info/ods/bill_of_lading_in_russian_port" xlink:title="ods.bill_of_lading_in_russian_port" target="_blank">
<polygon fill="lightblue" stroke="black" points="358.88,-797.5 219.88,-797.5 219.88,-779 358.88,-779 358.88,-797.5"/>
<text text-anchor="middle" x="289.38" y="-785.9" font-family="Arial" font-size="8.00">ods.bill_of_lading_in_russian_port</text>
</a>
</g>
</g>
<!-- ods.bill_of_lading_in_russian_port&#45;&gt;dm_calc.sd_sales_main_scm -->
<g id="edge15" class="edge">
<title>ods.bill_of_lading_in_russian_port&#45;&gt;dm_calc.sd_sales_main_scm</title>
<path fill="none" stroke="black" d="M328.19,-778.61C349.84,-773.09 372.75,-767.25 372.75,-767.25 372.75,-767.25 412.56,-737.59 436.66,-719.64"/>
<polygon fill="black" stroke="black" points="437.65,-721.08 440.62,-716.69 435.56,-718.27 437.65,-721.08"/>
</g>
<!-- dict_dds.warehouse -->
<g id="node17" class="node">
<title>dict_dds.warehouse</title>
<g id="a_node17"><a xlink:href="/table_info/dict_dds/warehouse" xlink:title="dict_dds.warehouse" target="_blank">
<polygon fill="lightyellow" stroke="black" points="334.88,-756.5 243.88,-756.5 243.88,-738 334.88,-738 334.88,-756.5"/>
<text text-anchor="middle" x="289.38" y="-744.9" font-family="Arial" font-size="8.00">dict_dds.warehouse</text>
</a>
</g>
</g>
<!-- dict_dds.warehouse&#45;&gt;dm_calc.sd_sales_main_scm -->
<g id="edge16" class="edge">
<title>dict_dds.warehouse&#45;&gt;dm_calc.sd_sales_main_scm</title>
<path fill="none" stroke="black" d="M329.3,-737.53C353.35,-731.53 384.31,-723.8 409.44,-717.53"/>
<polygon fill="black" stroke="black" points="409.8,-719.24 414.23,-716.33 408.95,-715.85 409.8,-719.24"/>
</g>
<!-- dict_dds.material_specification -->
<g id="node18" class="node">
<title>dict_dds.material_specification</title>
<g id="a_node18"><a xlink:href="/table_info/dict_dds/material_specification" xlink:title="dict_dds.material_specification" target="_blank">
<polygon fill="lightyellow" stroke="black" points="352.88,-715.5 225.88,-715.5 225.88,-697 352.88,-697 352.88,-715.5"/>
<text text-anchor="middle" x="289.38" y="-703.9" font-family="Arial" font-size="8.00">dict_dds.material_specification</text>
</a>
</g>
</g>
<!-- dict_dds.material_specification&#45;&gt;dm_calc.sd_sales_main_scm -->
<g id="edge17" class="edge">
<title>dict_dds.material_specification&#45;&gt;dm_calc.sd_sales_main_scm</title>
<path fill="none" stroke="black" d="M352.94,-706.25C364.41,-706.25 376.43,-706.25 388.02,-706.25"/>
<polygon fill="black" stroke="black" points="387.89,-708 392.89,-706.25 387.89,-704.5 387.89,-708"/>
</g>
<!-- dict_dds.transport_route -->
<g id="node19" class="node">
<title>dict_dds.transport_route</title>
<g id="a_node19"><a xlink:href="/table_info/dict_dds/transport_route" xlink:title="dict_dds.transport_route" target="_blank">
<polygon fill="lightyellow" stroke="black" points="144.62,-964.5 39.38,-964.5 39.38,-946 144.62,-946 144.62,-964.5"/>
<text text-anchor="middle" x="92" y="-952.9" font-family="Arial" font-size="8.00">dict_dds.transport_route</text>
</a>
</g>
</g>
<!-- dict_dds.transport_route&#45;&gt;dm_calc.sd_sales_main_scm -->
<g id="edge18" class="edge">
<title>dict_dds.transport_route&#45;&gt;dm_calc.sd_sales_main_scm</title>
<path fill="none" stroke="black" d="M144.96,-950.79C225.86,-943.85 372.75,-931.25 372.75,-931.25 372.75,-931.25 430.4,-772.83 448.95,-721.85"/>
<polygon fill="black" stroke="black" points="450.52,-722.64 450.59,-717.34 447.24,-721.44 450.52,-722.64"/>
</g>
<!-- dict_dds.transport_route&#45;&gt;ods.nomination_in_foreign_port -->
<g id="edge39" class="edge">
<title>dict_dds.transport_route&#45;&gt;ods.nomination_in_foreign_port</title>
<path fill="none" stroke="black" d="M138.31,-964.99C167.9,-971.35 206.6,-979.67 237.28,-986.27"/>
<polygon fill="black" stroke="black" points="236.57,-987.9 241.83,-987.24 237.31,-984.48 236.57,-987.9"/>
</g>
<!-- dict_dds.material_texts -->
<g id="node20" class="node">
<title>dict_dds.material_texts</title>
<g id="a_node20"><a xlink:href="/table_info/dict_dds/material_texts" xlink:title="dict_dds.material_texts" target="_blank">
<polygon fill="lightyellow" stroke="black" points="339,-674.5 239.75,-674.5 239.75,-656 339,-656 339,-674.5"/>
<text text-anchor="middle" x="289.38" y="-662.9" font-family="Arial" font-size="8.00">dict_dds.material_texts</text>
</a>
</g>
</g>
<!-- dict_dds.material_texts&#45;&gt;dm_calc.sd_sales_main_scm -->
<g id="edge19" class="edge">
<title>dict_dds.material_texts&#45;&gt;dm_calc.sd_sales_main_scm</title>
<path fill="none" stroke="black" d="M329.3,-674.97C353.35,-680.97 384.31,-688.7 409.44,-694.97"/>
<polygon fill="black" stroke="black" points="408.95,-696.65 414.23,-696.17 409.8,-693.26 408.95,-696.65"/>
</g>
<!-- dict_dds.incoterms_location -->
<g id="node21" class="node">
<title>dict_dds.incoterms_location</title>
<g id="a_node21"><a xlink:href="/table_info/dict_dds/incoterms_location" xlink:title="dict_dds.incoterms_location" target="_blank">
<polygon fill="lightyellow" stroke="black" points="347.62,-633.5 231.12,-633.5 231.12,-615 347.62,-615 347.62,-633.5"/>
<text text-anchor="middle" x="289.38" y="-621.9" font-family="Arial" font-size="8.00">dict_dds.incoterms_location</text>
</a>
</g>
</g>
<!-- dict_dds.incoterms_location&#45;&gt;dm_calc.sd_sales_main_scm -->
<g id="edge20" class="edge">
<title>dict_dds.incoterms_location&#45;&gt;dm_calc.sd_sales_main_scm</title>
<path fill="none" stroke="black" d="M328.19,-633.89C349.84,-639.41 372.75,-645.25 372.75,-645.25 372.75,-645.25 412.56,-674.91 436.66,-692.86"/>
<polygon fill="black" stroke="black" points="435.56,-694.23 440.62,-695.81 437.65,-691.42 435.56,-694.23"/>
</g>
<!-- ods.plant_delivery -->
<g id="node22" class="node">
<title>ods.plant_delivery</title>
<g id="a_node22"><a xlink:href="/table_info/ods/plant_delivery" xlink:title="ods.plant_delivery" target="_blank">
<polygon fill="lightblue" stroke="black" points="330.38,-592.5 248.38,-592.5 248.38,-574 330.38,-574 330.38,-592.5"/>
<text text-anchor="middle" x="289.38" y="-580.9" font-family="Arial" font-size="8.00">ods.plant_delivery</text>
</a>
</g>
</g>
<!-- ods.plant_delivery&#45;&gt;dm_calc.sd_sales_main_scm -->
<g id="edge21" class="edge">
<title>ods.plant_delivery&#45;&gt;dm_calc.sd_sales_main_scm</title>
<path fill="none" stroke="black" d="M328.19,-592.89C349.84,-598.41 372.75,-604.25 372.75,-604.25 372.75,-604.25 420.65,-663.93 443.18,-691.99"/>
<polygon fill="black" stroke="black" points="441.63,-692.85 446.12,-695.66 444.36,-690.66 441.63,-692.85"/>
</g>
<!-- dict_dds.sales_order_market -->
<g id="node23" class="node">
<title>dict_dds.sales_order_market</title>
<g id="a_node23"><a xlink:href="/table_info/dict_dds/sales_order_market" xlink:title="dict_dds.sales_order_market" target="_blank">
<polygon fill="lightyellow" stroke="black" points="349.88,-551.5 228.88,-551.5 228.88,-533 349.88,-533 349.88,-551.5"/>
<text text-anchor="middle" x="289.38" y="-539.9" font-family="Arial" font-size="8.00">dict_dds.sales_order_market</text>
</a>
</g>
</g>
<!-- dict_dds.sales_order_market&#45;&gt;dm_calc.sd_sales_main_scm -->
<g id="edge22" class="edge">
<title>dict_dds.sales_order_market&#45;&gt;dm_calc.sd_sales_main_scm</title>
<path fill="none" stroke="black" d="M328.19,-551.89C349.84,-557.41 372.75,-563.25 372.75,-563.25 372.75,-563.25 425.27,-654.98 446.18,-691.5"/>
<polygon fill="black" stroke="black" points="444.5,-692.08 448.5,-695.55 447.54,-690.35 444.5,-692.08"/>
</g>
<!-- ods.delivery_number_deleted -->
<g id="node24" class="node">
<title>ods.delivery_number_deleted</title>
<g id="a_node24"><a xlink:href="/table_info/ods/delivery_number_deleted" xlink:title="ods.delivery_number_deleted" target="_blank">
<polygon fill="lightblue" stroke="black" points="350.62,-510.5 228.12,-510.5 228.12,-492 350.62,-492 350.62,-510.5"/>
<text text-anchor="middle" x="289.38" y="-498.9" font-family="Arial" font-size="8.00">ods.delivery_number_deleted</text>
</a>
</g>
</g>
<!-- ods.delivery_number_deleted&#45;&gt;dm_calc.sd_sales_main_scm -->
<g id="edge23" class="edge">
<title>ods.delivery_number_deleted&#45;&gt;dm_calc.sd_sales_main_scm</title>
<path fill="none" stroke="black" d="M328.19,-510.89C349.84,-516.41 372.75,-522.25 372.75,-522.25 372.75,-522.25 427.93,-646.26 447.69,-690.67"/>
<polygon fill="black" stroke="black" points="446.09,-691.38 449.72,-695.23 449.29,-689.95 446.09,-691.38"/>
</g>
<!-- dict_dds.transport_vessel_old -->
<g id="node25" class="node">
<title>dict_dds.transport_vessel_old</title>
<g id="a_node25"><a xlink:href="/table_info/dict_dds/transport_vessel_old" xlink:title="dict_dds.transport_vessel_old" target="_blank">
<polygon fill="lightyellow" stroke="black" points="352.12,-469.5 226.62,-469.5 226.62,-451 352.12,-451 352.12,-469.5"/>
<text text-anchor="middle" x="289.38" y="-457.9" font-family="Arial" font-size="8.00">dict_dds.transport_vessel_old</text>
</a>
</g>
</g>
<!-- dict_dds.transport_vessel_old&#45;&gt;dm_calc.sd_sales_main_scm -->
<g id="edge24" class="edge">
<title>dict_dds.transport_vessel_old&#45;&gt;dm_calc.sd_sales_main_scm</title>
<path fill="none" stroke="black" d="M328.19,-469.89C349.84,-475.41 372.75,-481.25 372.75,-481.25 372.75,-481.25 430.4,-639.67 448.95,-690.65"/>
<polygon fill="black" stroke="black" points="447.24,-691.06 450.59,-695.16 450.52,-689.86 447.24,-691.06"/>
</g>
<!-- dict_dds.sales_market_in_shipment_texts -->
<g id="node26" class="node">
<title>dict_dds.sales_market_in_shipment_texts</title>
<g id="a_node26"><a xlink:href="/table_info/dict_dds/sales_market_in_shipment_texts" xlink:title="dict_dds.sales_market_in_shipment_texts" target="_blank">
<polygon fill="lightyellow" stroke="black" points="372.75,-428.5 206,-428.5 206,-410 372.75,-410 372.75,-428.5"/>
<text text-anchor="middle" x="289.38" y="-416.9" font-family="Arial" font-size="8.00">dict_dds.sales_market_in_shipment_texts</text>
</a>
</g>
</g>
<!-- dict_dds.sales_market_in_shipment_texts&#45;&gt;dm_calc.sd_sales_main_scm -->
<g id="edge25" class="edge">
<title>dict_dds.sales_market_in_shipment_texts&#45;&gt;dm_calc.sd_sales_main_scm</title>
<path fill="none" stroke="black" d="M328.19,-428.89C349.84,-434.41 372.75,-440.25 372.75,-440.25 372.75,-440.25 432.44,-634.16 449.89,-690.86"/>
<polygon fill="black" stroke="black" points="448.12,-691.07 451.27,-695.34 451.47,-690.04 448.12,-691.07"/>
</g>
<!-- ods.initial_delivery -->
<g id="node27" class="node">
<title>ods.initial_delivery</title>
<g id="a_node27"><a xlink:href="/table_info/ods/initial_delivery" xlink:title="ods.initial_delivery" target="_blank">
<polygon fill="lightblue" stroke="black" points="330.38,-387.5 248.38,-387.5 248.38,-369 330.38,-369 330.38,-387.5"/>
<text text-anchor="middle" x="289.38" y="-375.9" font-family="Arial" font-size="8.00">ods.initial_delivery</text>
</a>
</g>
</g>
<!-- ods.initial_delivery&#45;&gt;dm_calc.sd_sales_main_scm -->
<g id="edge26" class="edge">
<title>ods.initial_delivery&#45;&gt;dm_calc.sd_sales_main_scm</title>
<path fill="none" stroke="black" d="M328.19,-387.89C349.84,-393.41 372.75,-399.25 372.75,-399.25 372.75,-399.25 433.74,-627.94 450.44,-690.56"/>
<polygon fill="black" stroke="black" points="448.72,-690.88 451.69,-695.26 452.1,-689.98 448.72,-690.88"/>
</g>
<!-- ods.map_zmk_track_exp_keys -->
<g id="node28" class="node">
<title>ods.map_zmk_track_exp_keys</title>
<g id="a_node28"><a xlink:href="/table_info/ods/map_zmk_track_exp_keys" xlink:title="ods.map_zmk_track_exp_keys" target="_blank">
<polygon fill="lightblue" stroke="black" points="353.25,-346.5 225.5,-346.5 225.5,-328 353.25,-328 353.25,-346.5"/>
<text text-anchor="middle" x="289.38" y="-334.9" font-family="Arial" font-size="8.00">ods.map_zmk_track_exp_keys</text>
</a>
</g>
</g>
<!-- ods.map_zmk_track_exp_keys&#45;&gt;dm_calc.sd_sales_main_scm -->
<g id="edge27" class="edge">
<title>ods.map_zmk_track_exp_keys&#45;&gt;dm_calc.sd_sales_main_scm</title>
<path fill="none" stroke="black" d="M328.19,-346.89C349.84,-352.41 372.75,-358.25 372.75,-358.25 372.75,-358.25 434.79,-621.95 450.86,-690.25"/>
<polygon fill="black" stroke="black" points="449.15,-690.64 452,-695.11 452.56,-689.84 449.15,-690.64"/>
</g>
<!-- dict_dds.material_shape_texts -->
<g id="node29" class="node">
<title>dict_dds.material_shape_texts</title>
<g id="a_node29"><a xlink:href="/table_info/dict_dds/material_shape_texts" xlink:title="dict_dds.material_shape_texts" target="_blank">
<polygon fill="lightyellow" stroke="black" points="352.5,-305.5 226.25,-305.5 226.25,-287 352.5,-287 352.5,-305.5"/>
<text text-anchor="middle" x="289.38" y="-293.9" font-family="Arial" font-size="8.00">dict_dds.material_shape_texts</text>
</a>
</g>
</g>
<!-- dict_dds.material_shape_texts&#45;&gt;dm_calc.sd_sales_main_scm -->
<g id="edge28" class="edge">
<title>dict_dds.material_shape_texts&#45;&gt;dm_calc.sd_sales_main_scm</title>
<path fill="none" stroke="black" d="M328.19,-305.89C349.84,-311.41 372.75,-317.25 372.75,-317.25 372.75,-317.25 435.86,-617.08 451.26,-690.28"/>
<polygon fill="black" stroke="black" points="449.55,-690.62 452.29,-695.15 452.97,-689.9 449.55,-690.62"/>
</g>
<!-- dict_dds.transport_route_stage -->
<g id="node30" class="node">
<title>dict_dds.transport_route_stage</title>
<g id="a_node30"><a xlink:href="/table_info/dict_dds/transport_route_stage" xlink:title="dict_dds.transport_route_stage" target="_blank">
<polygon fill="lightyellow" stroke="black" points="354.38,-264.5 224.38,-264.5 224.38,-246 354.38,-246 354.38,-264.5"/>
<text text-anchor="middle" x="289.38" y="-252.9" font-family="Arial" font-size="8.00">dict_dds.transport_route_stage</text>
</a>
</g>
</g>
<!-- dict_dds.transport_route_stage&#45;&gt;dm_calc.sd_sales_main_scm -->
<g id="edge29" class="edge">
<title>dict_dds.transport_route_stage&#45;&gt;dm_calc.sd_sales_main_scm</title>
<path fill="none" stroke="black" d="M328.19,-264.89C349.84,-270.41 372.75,-276.25 372.75,-276.25 372.75,-276.25 436.93,-613.33 451.64,-690.6"/>
<polygon fill="black" stroke="black" points="449.9,-690.8 452.56,-695.38 453.34,-690.14 449.9,-690.8"/>
</g>
<!-- dict_dds.location_sales -->
<g id="node31" class="node">
<title>dict_dds.location_sales</title>
<g id="a_node31"><a xlink:href="/table_info/dict_dds/location_sales" xlink:title="dict_dds.location_sales" target="_blank">
<polygon fill="lightyellow" stroke="black" points="339.75,-223.5 239,-223.5 239,-205 339.75,-205 339.75,-223.5"/>
<text text-anchor="middle" x="289.38" y="-211.9" font-family="Arial" font-size="8.00">dict_dds.location_sales</text>
</a>
</g>
</g>
<!-- dict_dds.location_sales&#45;&gt;dm_calc.sd_sales_main_scm -->
<g id="edge30" class="edge">
<title>dict_dds.location_sales&#45;&gt;dm_calc.sd_sales_main_scm</title>
<path fill="none" stroke="black" d="M328.19,-223.89C349.84,-229.41 372.75,-235.25 372.75,-235.25 372.75,-235.25 437.74,-609.14 451.92,-690.67"/>
<polygon fill="black" stroke="black" points="450.15,-690.72 452.73,-695.35 453.6,-690.12 450.15,-690.72"/>
</g>
<!-- dict_dds.transport_hub_texts -->
<g id="node32" class="node">
<title>dict_dds.transport_hub_texts</title>
<g id="a_node32"><a xlink:href="/table_info/dict_dds/transport_hub_texts" xlink:title="dict_dds.transport_hub_texts" target="_blank">
<polygon fill="lightyellow" stroke="black" points="350.62,-182.5 228.12,-182.5 228.12,-164 350.62,-164 350.62,-182.5"/>
<text text-anchor="middle" x="289.38" y="-170.9" font-family="Arial" font-size="8.00">dict_dds.transport_hub_texts</text>
</a>
</g>
</g>
<!-- dict_dds.transport_hub_texts&#45;&gt;dm_calc.sd_sales_main_scm -->
<g id="edge31" class="edge">
<title>dict_dds.transport_hub_texts&#45;&gt;dm_calc.sd_sales_main_scm</title>
<path fill="none" stroke="black" d="M328.19,-182.89C349.84,-188.41 372.75,-194.25 372.75,-194.25 372.75,-194.25 438.43,-604.99 452.14,-690.69"/>
<polygon fill="black" stroke="black" points="450.38,-690.77 452.89,-695.43 453.83,-690.22 450.38,-690.77"/>
</g>
<!-- ods.nomination_in_foreign_port&#45;&gt;dm_calc.sd_sales_main_scm -->
<g id="edge32" class="edge">
<title>ods.nomination_in_foreign_port&#45;&gt;dm_calc.sd_sales_main_scm</title>
<path fill="none" stroke="black" d="M321.05,-987.57C344.47,-980.18 372.75,-971.25 372.75,-971.25 372.75,-971.25 432.17,-778.92 449.77,-721.96"/>
<polygon fill="black" stroke="black" points="451.36,-722.74 451.17,-717.44 448.02,-721.7 451.36,-722.74"/>
</g>
<!-- dict_dds.sb_market -->
<g id="node34" class="node">
<title>dict_dds.sb_market</title>
<g id="a_node34"><a xlink:href="/table_info/dict_dds/sb_market" xlink:title="dict_dds.sb_market" target="_blank">
<polygon fill="lightcoral" stroke="black" points="332.62,-141.5 246.12,-141.5 246.12,-123 332.62,-123 332.62,-141.5"/>
<text text-anchor="middle" x="289.38" y="-129.9" font-family="Arial" font-size="8.00">dict_dds.sb_market</text>
</a>
</g>
</g>
<!-- dict_dds.sb_market&#45;&gt;dm_calc.sd_sales_main_scm -->
<g id="edge33" class="edge">
<title>dict_dds.sb_market&#45;&gt;dm_calc.sd_sales_main_scm</title>
<path fill="none" stroke="black" d="M328.19,-141.89C349.84,-147.41 372.75,-153.25 372.75,-153.25 372.75,-153.25 438.84,-599.66 452.26,-690.31"/>
<polygon fill="black" stroke="black" points="450.52,-690.46 452.98,-695.15 453.98,-689.95 450.52,-690.46"/>
</g>
<!-- ods.sales_batch_delivery -->
<g id="node35" class="node">
<title>ods.sales_batch_delivery</title>
<g id="a_node35"><a xlink:href="/table_info/ods/sales_batch_delivery" xlink:title="ods.sales_batch_delivery" target="_blank">
<polygon fill="lightblue" stroke="black" points="343.88,-100.5 234.88,-100.5 234.88,-82 343.88,-82 343.88,-100.5"/>
<text text-anchor="middle" x="289.38" y="-88.9" font-family="Arial" font-size="8.00">ods.sales_batch_delivery</text>
</a>
</g>
</g>
<!-- ods.sales_batch_delivery&#45;&gt;dm_calc.sd_sales_main_scm -->
<g id="edge34" class="edge">
<title>ods.sales_batch_delivery&#45;&gt;dm_calc.sd_sales_main_scm</title>
<path fill="none" stroke="black" d="M328.19,-100.89C349.84,-106.41 372.75,-112.25 372.75,-112.25 372.75,-112.25 439.54,-596.8 452.47,-690.62"/>
<polygon fill="black" stroke="black" points="450.72,-690.71 453.13,-695.42 454.18,-690.23 450.72,-690.71"/>
</g>
<!-- ods.release_delivery_group -->
<g id="node36" class="node">
<title>ods.release_delivery_group</title>
<g id="a_node36"><a xlink:href="/table_info/ods/release_delivery_group" xlink:title="ods.release_delivery_group" target="_blank">
<polygon fill="lightblue" stroke="black" points="348,-59.5 230.75,-59.5 230.75,-41 348,-41 348,-59.5"/>
<text text-anchor="middle" x="289.38" y="-47.9" font-family="Arial" font-size="8.00">ods.release_delivery_group</text>
</a>
</g>
</g>
<!-- ods.release_delivery_group&#45;&gt;dm_calc.sd_sales_main_scm -->
<g id="edge35" class="edge">
<title>ods.release_delivery_group&#45;&gt;dm_calc.sd_sales_main_scm</title>
<path fill="none" stroke="black" d="M328.19,-59.89C349.84,-65.41 372.75,-71.25 372.75,-71.25 372.75,-71.25 439.81,-591.37 452.55,-690.16"/>
<polygon fill="black" stroke="black" points="450.8,-690.29 453.18,-695.03 454.27,-689.85 450.8,-690.29"/>
</g>
<!-- stg./RUSAL/SHIPDATA -->
<g id="node37" class="node">
<title>stg./RUSAL/SHIPDATA</title>
<g id="a_node37"><a xlink:href="/table_info/stg//RUSAL/SHIPDATA" xlink:title="stg./RUSAL/SHIPDATA" target="_blank">
<polygon fill="lightblue" stroke="black" points="141.25,-100.5 42.75,-100.5 42.75,-82 141.25,-82 141.25,-100.5"/>
<text text-anchor="middle" x="92" y="-88.9" font-family="Arial" font-size="8.00">stg./RUSAL/SHIPDATA</text>
</a>
</g>
</g>
<!-- stg./RUSAL/SHIPDATA&#45;&gt;ods.sales_batch_delivery -->
<g id="edge36" class="edge">
<title>stg./RUSAL/SHIPDATA&#45;&gt;ods.sales_batch_delivery</title>
<path fill="none" stroke="black" d="M141.55,-91.25C167.81,-91.25 200.49,-91.25 228.34,-91.25"/>
<polygon fill="black" stroke="black" points="228.06,-93 233.06,-91.25 228.06,-89.5 228.06,-93"/>
</g>
<!-- ods.lot_of_delivery_grp_sd -->
<g id="node38" class="node">
<title>ods.lot_of_delivery_grp_sd</title>
<g id="a_node38"><a xlink:href="/table_info/ods/lot_of_delivery_grp_sd" xlink:title="ods.lot_of_delivery_grp_sd" target="_blank">
<polygon fill="lightblue" stroke="black" points="149.5,-1174.5 34.5,-1174.5 34.5,-1156 149.5,-1156 149.5,-1174.5"/>
<text text-anchor="middle" x="92" y="-1162.9" font-family="Arial" font-size="8.00">ods.lot_of_delivery_grp_sd</text>
</a>
</g>
</g>
<!-- ods.lot_of_delivery_grp_sd&#45;&gt;ods.delivery_lot -->
<g id="edge37" class="edge">
<title>ods.lot_of_delivery_grp_sd&#45;&gt;ods.delivery_lot</title>
<path fill="none" stroke="black" d="M149.77,-1165.25C180.57,-1165.25 217.98,-1165.25 246.17,-1165.25"/>
<polygon fill="black" stroke="black" points="245.89,-1167 250.89,-1165.25 245.89,-1163.5 245.89,-1167"/>
</g>
<!-- ods.plant_delivery_of_delivery_sd -->
<g id="node39" class="node">
<title>ods.plant_delivery_of_delivery_sd</title>
<g id="a_node39"><a xlink:href="/table_info/ods/plant_delivery_of_delivery_sd" xlink:title="ods.plant_delivery_of_delivery_sd" target="_blank">
<polygon fill="lightblue" stroke="black" points="162.25,-592.5 21.75,-592.5 21.75,-574 162.25,-574 162.25,-592.5"/>
<text text-anchor="middle" x="92" y="-580.9" font-family="Arial" font-size="8.00">ods.plant_delivery_of_delivery_sd</text>
</a>
</g>
</g>
<!-- ods.plant_delivery_of_delivery_sd&#45;&gt;ods.plant_delivery -->
<g id="edge40" class="edge">
<title>ods.plant_delivery_of_delivery_sd&#45;&gt;ods.plant_delivery</title>
<path fill="none" stroke="black" d="M162.71,-583.25C188.85,-583.25 217.92,-583.25 241.5,-583.25"/>
<polygon fill="black" stroke="black" points="241.49,-585 246.49,-583.25 241.49,-581.5 241.49,-585"/>
</g>
<!-- dict_dds.address -->
<g id="node40" class="node">
<title>dict_dds.address</title>
<g id="a_node40"><a xlink:href="/table_info/dict_dds/address" xlink:title="dict_dds.address" target="_blank">
<polygon fill="lightyellow" stroke="black" points="131.5,-1006.5 52.5,-1006.5 52.5,-988 131.5,-988 131.5,-1006.5"/>
<text text-anchor="middle" x="92" y="-994.9" font-family="Arial" font-size="8.00">dict_dds.address</text>
</a>
</g>
</g>
<!-- dict_dds.address&#45;&gt;ods.nomination_in_foreign_port -->
<g id="edge41" class="edge">
<title>dict_dds.address&#45;&gt;ods.nomination_in_foreign_port</title>
<path fill="none" stroke="black" d="M131.6,-997.25C156.31,-997.25 189.1,-997.25 218.3,-997.25"/>
<polygon fill="black" stroke="black" points="217.96,-999 222.96,-997.25 217.96,-995.5 217.96,-999"/>
</g>
<!-- ods.delivery_notice_of_delivery_grp_sd -->
<g id="node41" class="node">
<title>ods.delivery_notice_of_delivery_grp_sd</title>
<g id="a_node41"><a xlink:href="/table_info/ods/delivery_notice_of_delivery_grp_sd" xlink:title="ods.delivery_notice_of_delivery_grp_sd" target="_blank">
<polygon fill="lightblue" stroke="black" points="172.75,-18.5 11.25,-18.5 11.25,0 172.75,0 172.75,-18.5"/>
<text text-anchor="middle" x="92" y="-6.9" font-family="Arial" font-size="8.00">ods.delivery_notice_of_delivery_grp_sd</text>
</a>
</g>
</g>
<!-- ods.delivery_notice_of_delivery_grp_sd&#45;&gt;ods.delivery_notice -->
<g id="edge42" class="edge">
<title>ods.delivery_notice_of_delivery_grp_sd&#45;&gt;ods.delivery_notice</title>
<path fill="none" stroke="black" d="M173.03,-9.25C195.47,-9.25 219.2,-9.25 239.26,-9.25"/>
<polygon fill="black" stroke="black" points="239.13,-11 244.13,-9.25 239.13,-7.5 239.13,-11"/>
</g>
<!-- ods.consign_foreign_port_of_delivery_grp_sd -->
<g id="node42" class="node">
<title>ods.consign_foreign_port_of_delivery_grp_sd</title>
<g id="a_node42"><a xlink:href="/table_info/ods/consign_foreign_port_of_delivery_grp_sd" xlink:title="ods.consign_foreign_port_of_delivery_grp_sd" target="_blank">
<polygon fill="lightblue" stroke="black" points="184,-1133.5 0,-1133.5 0,-1115 184,-1115 184,-1133.5"/>
<text text-anchor="middle" x="92" y="-1121.9" font-family="Arial" font-size="8.00">ods.consign_foreign_port_of_delivery_grp_sd</text>
</a>
</g>
</g>
<!-- ods.consign_foreign_port_of_delivery_grp_sd&#45;&gt;ods.bill_of_lading_in_foreign_port -->
<g id="edge44" class="edge">
<title>ods.consign_foreign_port_of_delivery_grp_sd&#45;&gt;ods.bill_of_lading_in_foreign_port</title>
<path fill="none" stroke="black" d="M184.4,-1124.25C194.33,-1124.25 204.36,-1124.25 214.06,-1124.25"/>
<polygon fill="black" stroke="black" points="213.87,-1126 218.87,-1124.25 213.87,-1122.5 213.87,-1126"/>
</g>
<!-- ods.outgoing_delivery_of_delivery_sd -->
<g id="node43" class="node">
<title>ods.outgoing_delivery_of_delivery_sd</title>
<g id="a_node43"><a xlink:href="/table_info/ods/outgoing_delivery_of_delivery_sd" xlink:title="ods.outgoing_delivery_of_delivery_sd" target="_blank">
<polygon fill="lightblue" stroke="black" points="169,-387.5 15,-387.5 15,-369 169,-369 169,-387.5"/>
<text text-anchor="middle" x="92" y="-375.9" font-family="Arial" font-size="8.00">ods.outgoing_delivery_of_delivery_sd</text>
</a>
</g>
</g>
<!-- ods.outgoing_delivery_of_delivery_sd&#45;&gt;ods.initial_delivery -->
<g id="edge45" class="edge">
<title>ods.outgoing_delivery_of_delivery_sd&#45;&gt;ods.initial_delivery</title>
<path fill="none" stroke="black" d="M169.38,-378.25C193.83,-378.25 220.15,-378.25 241.8,-378.25"/>
<polygon fill="black" stroke="black" points="241.56,-380 246.56,-378.25 241.56,-376.5 241.56,-380"/>
</g>
<!-- key1 -->
<g id="node44" class="node">
<title>key1</title>
<polygon fill="lightyellow" stroke="black" points="139.38,-1478.25 44.62,-1478.25 44.62,-1442.25 139.38,-1442.25 139.38,-1478.25"/>
<text text-anchor="middle" x="92" y="-1457.9" font-family="Arial" font-size="8.00">dict_dds Справочник</text>
</g>
<!-- key2 -->
<g id="node45" class="node">
<title>key2</title>
<polygon fill="lightblue" stroke="black" points="324.38,-1478.25 254.38,-1478.25 254.38,-1442.25 324.38,-1442.25 324.38,-1478.25"/>
<text text-anchor="middle" x="289.38" y="-1457.9" font-family="Arial" font-size="8.00">other schemas</text>
</g>
<!-- key1&#45;&gt;key2 -->
<!-- key3 -->
<g id="node46" class="node">
<title>key3</title>
<polygon fill="lightcoral" stroke="black" points="502.25,-1478.25 409,-1478.25 409,-1442.25 502.25,-1442.25 502.25,-1478.25"/>
<text text-anchor="middle" x="455.62" y="-1457.9" font-family="Arial" font-size="8.00">таблица выключена</text>
</g>
<!-- key2&#45;&gt;key3 -->
</g>
</svg>
