<?xml version="1.0" encoding="UTF-8" standalone="no"?>
<!DOCTYPE svg PUBLIC "-//W3C//DTD SVG 1.1//EN"
 "http://www.w3.org/Graphics/SVG/1.1/DTD/svg11.dtd">
<!-- Generated by graphviz version 11.0.0 (20240428.1522)
 -->
<!-- Pages: 1 -->
<svg width="411pt" height="160pt"
 viewBox="0.00 0.00 411.38 160.25" xmlns="http://www.w3.org/2000/svg" xmlns:xlink="http://www.w3.org/1999/xlink">
<g id="graph0" class="graph" transform="scale(1 1) rotate(0) translate(4 156.25)">
<polygon fill="white" stroke="none" points="-4,4 -4,-156.25 407.38,-156.25 407.38,4 -4,4"/>
<g id="clust1" class="cluster">
<title>cluster_legend</title>
<polygon fill="none" stroke="black" points="8,-73.25 8,-144.25 395.38,-144.25 395.38,-73.25 8,-73.25"/>
<text text-anchor="middle" x="201.69" y="-132.65" font-family="Arial" font-size="8.00">Легенда</text>
</g>
<!-- dict_dds.address -->
<g id="node1" class="node">
<title>dict_dds.address</title>
<g id="a_node1"><a xlink:href="/table_info/dict_dds/address" xlink:title="dict_dds.address" target="_blank">
<polygon fill="lightyellow" stroke="black" points="102.88,-59.5 23.88,-59.5 23.88,-41 102.88,-41 102.88,-59.5"/>
<text text-anchor="middle" x="63.38" y="-47.9" font-family="Arial" font-size="8.00">dict_dds.address</text>
</a>
</g>
</g>
<!-- dm_calc.accounting_counterparty -->
<g id="node2" class="node">
<title>dm_calc.accounting_counterparty</title>
<g id="a_node2"><a xlink:href="/table_info/dm_calc/accounting_counterparty" xlink:title="dm_calc.accounting_counterparty" target="_blank">
<polygon fill="lightblue" stroke="black" points="272.12,-38.5 133.12,-38.5 133.12,-20 272.12,-20 272.12,-38.5"/>
<text text-anchor="middle" x="202.62" y="-26.9" font-family="Arial" font-size="8.00">dm_calc.accounting_counterparty</text>
</a>
</g>
</g>
<!-- dict_dds.address&#45;&gt;dm_calc.accounting_counterparty -->
<g id="edge1" class="edge">
<title>dict_dds.address&#45;&gt;dm_calc.accounting_counterparty</title>
<path fill="none" stroke="black" d="M103.34,-44.29C112.24,-42.93 121.98,-41.44 131.74,-39.94"/>
<polygon fill="black" stroke="black" points="131.98,-41.68 136.66,-39.19 131.45,-38.22 131.98,-41.68"/>
</g>
<!-- dict_dds.counterparty -->
<g id="node3" class="node">
<title>dict_dds.counterparty</title>
<g id="a_node3"><a xlink:href="/table_info/dict_dds/counterparty" xlink:title="dict_dds.counterparty" target="_blank">
<polygon fill="lightyellow" stroke="black" points="111.12,-18.5 15.62,-18.5 15.62,0 111.12,0 111.12,-18.5"/>
<text text-anchor="middle" x="63.38" y="-6.9" font-family="Arial" font-size="8.00">dict_dds.counterparty</text>
</a>
</g>
</g>
<!-- dict_dds.counterparty&#45;&gt;dm_calc.accounting_counterparty -->
<g id="edge2" class="edge">
<title>dict_dds.counterparty&#45;&gt;dm_calc.accounting_counterparty</title>
<path fill="none" stroke="black" d="M111.61,-16.13C117.19,-16.95 122.98,-17.79 128.81,-18.64"/>
<polygon fill="black" stroke="black" points="128.45,-20.36 133.65,-19.34 128.95,-16.89 128.45,-20.36"/>
</g>
<!-- key1 -->
<g id="node4" class="node">
<title>key1</title>
<polygon fill="lightyellow" stroke="black" points="110.75,-117.25 16,-117.25 16,-81.25 110.75,-81.25 110.75,-117.25"/>
<text text-anchor="middle" x="63.38" y="-96.9" font-family="Arial" font-size="8.00">dict_dds Справочник</text>
</g>
<!-- key2 -->
<g id="node5" class="node">
<title>key2</title>
<polygon fill="lightblue" stroke="black" points="237.62,-117.25 167.62,-117.25 167.62,-81.25 237.62,-81.25 237.62,-117.25"/>
<text text-anchor="middle" x="202.62" y="-96.9" font-family="Arial" font-size="8.00">other schemas</text>
</g>
<!-- key1&#45;&gt;key2 -->
<!-- key3 -->
<g id="node6" class="node">
<title>key3</title>
<polygon fill="lightcoral" stroke="black" points="387.38,-117.25 294.12,-117.25 294.12,-81.25 387.38,-81.25 387.38,-117.25"/>
<text text-anchor="middle" x="340.75" y="-96.9" font-family="Arial" font-size="8.00">таблица выключена</text>
</g>
<!-- key2&#45;&gt;key3 -->
</g>
</svg>
