<?xml version="1.0" encoding="UTF-8" standalone="no"?>
<!DOCTYPE svg PUBLIC "-//W3C//DTD SVG 1.1//EN"
 "http://www.w3.org/Graphics/SVG/1.1/DTD/svg11.dtd">
<!-- Generated by graphviz version 11.0.0 (20240428.1522)
 -->
<!-- Pages: 1 -->
<svg width="342pt" height="720pt"
 viewBox="0.00 0.00 342.19 720.00" xmlns="http://www.w3.org/2000/svg" xmlns:xlink="http://www.w3.org/1999/xlink">
<g id="graph0" class="graph" transform="scale(0.473295 0.473295) rotate(0) translate(4 1517.25)">
<polygon fill="white" stroke="none" points="-4,4 -4,-1517.25 719,-1517.25 719,4 -4,4"/>
<g id="clust1" class="cluster">
<title>cluster_legend</title>
<polygon fill="none" stroke="black" points="36.62,-1434.25 36.62,-1505.25 529,-1505.25 529,-1434.25 36.62,-1434.25"/>
<text text-anchor="middle" x="282.81" y="-1493.65" font-family="Arial" font-size="8.00">Легенда</text>
</g>
<!-- dm_calc.sd_sales_main_scm -->
<g id="node1" class="node">
<title>dm_calc.sd_sales_main_scm</title>
<g id="a_node1"><a xlink:href="/table_info/dm_calc/sd_sales_main_scm" xlink:title="dm_calc.sd_sales_main_scm" target="_blank">
<polygon fill="lightblue" stroke="black" points="535.25,-715.5 413.5,-715.5 413.5,-697 535.25,-697 535.25,-715.5"/>
<text text-anchor="middle" x="474.38" y="-703.9" font-family="Arial" font-size="8.00">dm_calc.sd_sales_main_scm</text>
</a>
</g>
</g>
<!-- dm_calc.sd_sales_stock_by_date -->
<g id="node2" class="node">
<title>dm_calc.sd_sales_stock_by_date</title>
<g id="a_node2"><a xlink:href="/table_info/dm_calc/sd_sales_stock_by_date" xlink:title="dm_calc.sd_sales_stock_by_date" target="_blank">
<polygon fill="lightblue" stroke="black" points="715,-756.5 576,-756.5 576,-738 715,-738 715,-756.5"/>
<text text-anchor="middle" x="645.5" y="-744.9" font-family="Arial" font-size="8.00">dm_calc.sd_sales_stock_by_date</text>
</a>
</g>
</g>
<!-- dm_calc.sd_sales_main_scm&#45;&gt;dm_calc.sd_sales_stock_by_date -->
<g id="edge1" class="edge">
<title>dm_calc.sd_sales_main_scm&#45;&gt;dm_calc.sd_sales_stock_by_date</title>
<path fill="none" stroke="black" d="M515.46,-715.97C540.32,-722 572.37,-729.76 598.3,-736.05"/>
<polygon fill="black" stroke="black" points="597.67,-737.7 602.94,-737.18 598.5,-734.3 597.67,-737.7"/>
</g>
<!-- dict_dds.settings_and_parameters_sap -->
<g id="node3" class="node">
<title>dict_dds.settings_and_parameters_sap</title>
<g id="a_node3"><a xlink:href="/table_info/dict_dds/settings_and_parameters_sap" xlink:title="dict_dds.settings_and_parameters_sap" target="_blank">
<polygon fill="lightyellow" stroke="black" points="554,-797.5 394.75,-797.5 394.75,-779 554,-779 554,-797.5"/>
<text text-anchor="middle" x="474.38" y="-785.9" font-family="Arial" font-size="8.00">dict_dds.settings_and_parameters_sap</text>
</a>
</g>
</g>
<!-- dict_dds.settings_and_parameters_sap&#45;&gt;dm_calc.sd_sales_stock_by_date -->
<g id="edge2" class="edge">
<title>dict_dds.settings_and_parameters_sap&#45;&gt;dm_calc.sd_sales_stock_by_date</title>
<path fill="none" stroke="black" d="M515.46,-778.53C540.32,-772.5 572.37,-764.74 598.3,-758.45"/>
<polygon fill="black" stroke="black" points="598.5,-760.2 602.94,-757.32 597.67,-756.8 598.5,-760.2"/>
</g>
<!-- ods.sd_sales_main_stock -->
<g id="node4" class="node">
<title>ods.sd_sales_main_stock</title>
<g id="a_node4"><a xlink:href="/table_info/ods/sd_sales_main_stock" xlink:title="ods.sd_sales_main_stock" target="_blank">
<polygon fill="lightblue" stroke="black" points="529.25,-756.5 419.5,-756.5 419.5,-738 529.25,-738 529.25,-756.5"/>
<text text-anchor="middle" x="474.38" y="-744.9" font-family="Arial" font-size="8.00">ods.sd_sales_main_stock</text>
</a>
</g>
</g>
<!-- ods.sd_sales_main_stock&#45;&gt;dm_calc.sd_sales_stock_by_date -->
<g id="edge3" class="edge">
<title>ods.sd_sales_main_stock&#45;&gt;dm_calc.sd_sales_stock_by_date</title>
<path fill="none" stroke="black" d="M529.35,-747.25C542.09,-747.25 555.91,-747.25 569.4,-747.25"/>
<polygon fill="black" stroke="black" points="569.05,-749 574.05,-747.25 569.05,-745.5 569.05,-749"/>
</g>
<!-- ods.delivery_notice -->
<g id="node5" class="node">
<title>ods.delivery_notice</title>
<g id="a_node5"><a xlink:href="/table_info/ods/delivery_notice" xlink:title="ods.delivery_notice" target="_blank">
<polygon fill="lightblue" stroke="black" points="332.62,-1420.5 246.12,-1420.5 246.12,-1402 332.62,-1402 332.62,-1420.5"/>
<text text-anchor="middle" x="289.38" y="-1408.9" font-family="Arial" font-size="8.00">ods.delivery_notice</text>
</a>
</g>
</g>
<!-- ods.delivery_notice&#45;&gt;dm_calc.sd_sales_main_scm -->
<g id="edge4" class="edge">
<title>ods.delivery_notice&#45;&gt;dm_calc.sd_sales_main_scm</title>
<path fill="none" stroke="black" d="M328.19,-1401.61C349.84,-1396.09 372.75,-1390.25 372.75,-1390.25 372.75,-1390.25 394.75,-727.25 394.75,-727.25 394.75,-727.25 412.71,-722.45 431.46,-717.45"/>
<polygon fill="black" stroke="black" points="431.44,-719.26 435.82,-716.28 430.54,-715.88 431.44,-719.26"/>
</g>
<!-- dict_dds.material -->
<g id="node6" class="node">
<title>dict_dds.material</title>
<g id="a_node6"><a xlink:href="/table_info/dict_dds/material" xlink:title="dict_dds.material" target="_blank">
<polygon fill="lightyellow" stroke="black" points="327.75,-1379.5 251,-1379.5 251,-1361 327.75,-1361 327.75,-1379.5"/>
<text text-anchor="middle" x="289.38" y="-1367.9" font-family="Arial" font-size="8.00">dict_dds.material</text>
</a>
</g>
</g>
<!-- dict_dds.material&#45;&gt;dm_calc.sd_sales_main_scm -->
<g id="edge5" class="edge">
<title>dict_dds.material&#45;&gt;dm_calc.sd_sales_main_scm</title>
<path fill="none" stroke="black" d="M328.19,-1360.61C349.84,-1355.09 372.75,-1349.25 372.75,-1349.25 372.75,-1349.25 394.75,-727.25 394.75,-727.25 394.75,-727.25 412.71,-722.45 431.46,-717.45"/>
<polygon fill="black" stroke="black" points="431.44,-719.26 435.82,-716.28 430.54,-715.88 431.44,-719.26"/>
</g>
<!-- dict_dds.transport_transfer_type_texts -->
<g id="node7" class="node">
<title>dict_dds.transport_transfer_type_texts</title>
<g id="a_node7"><a xlink:href="/table_info/dict_dds/transport_transfer_type_texts" xlink:title="dict_dds.transport_transfer_type_texts" target="_blank">
<polygon fill="lightyellow" stroke="black" points="368.62,-1338.5 210.12,-1338.5 210.12,-1320 368.62,-1320 368.62,-1338.5"/>
<text text-anchor="middle" x="289.38" y="-1326.9" font-family="Arial" font-size="8.00">dict_dds.transport_transfer_type_texts</text>
</a>
</g>
</g>
<!-- dict_dds.transport_transfer_type_texts&#45;&gt;dm_calc.sd_sales_main_scm -->
<g id="edge6" class="edge">
<title>dict_dds.transport_transfer_type_texts&#45;&gt;dm_calc.sd_sales_main_scm</title>
<path fill="none" stroke="black" d="M328.19,-1319.61C349.84,-1314.09 372.75,-1308.25 372.75,-1308.25 372.75,-1308.25 394.75,-727.25 394.75,-727.25 394.75,-727.25 412.71,-722.45 431.46,-717.45"/>
<polygon fill="black" stroke="black" points="431.44,-719.26 435.82,-716.28 430.54,-715.88 431.44,-719.26"/>
</g>
<!-- dict_dds.transport_shipment_type -->
<g id="node8" class="node">
<title>dict_dds.transport_shipment_type</title>
<g id="a_node8"><a xlink:href="/table_info/dict_dds/transport_shipment_type" xlink:title="dict_dds.transport_shipment_type" target="_blank">
<polygon fill="lightyellow" stroke="black" points="358.88,-1297.5 219.88,-1297.5 219.88,-1279 358.88,-1279 358.88,-1297.5"/>
<text text-anchor="middle" x="289.38" y="-1285.9" font-family="Arial" font-size="8.00">dict_dds.transport_shipment_type</text>
</a>
</g>
</g>
<!-- dict_dds.transport_shipment_type&#45;&gt;dm_calc.sd_sales_main_scm -->
<g id="edge7" class="edge">
<title>dict_dds.transport_shipment_type&#45;&gt;dm_calc.sd_sales_main_scm</title>
<path fill="none" stroke="black" d="M328.19,-1278.61C349.84,-1273.09 372.75,-1267.25 372.75,-1267.25 372.75,-1267.25 394.75,-727.25 394.75,-727.25 394.75,-727.25 412.71,-722.45 431.46,-717.45"/>
<polygon fill="black" stroke="black" points="431.44,-719.26 435.82,-716.28 430.54,-715.88 431.44,-719.26"/>
</g>
<!-- ods.sales_contract -->
<g id="node9" class="node">
<title>ods.sales_contract</title>
<g id="a_node9"><a xlink:href="/table_info/ods/sales_contract" xlink:title="ods.sales_contract" target="_blank">
<polygon fill="lightblue" stroke="black" points="332.25,-1256.5 246.5,-1256.5 246.5,-1238 332.25,-1238 332.25,-1256.5"/>
<text text-anchor="middle" x="289.38" y="-1244.9" font-family="Arial" font-size="8.00">ods.sales_contract</text>
</a>
</g>
</g>
<!-- ods.sales_contract&#45;&gt;dm_calc.sd_sales_main_scm -->
<g id="edge8" class="edge">
<title>ods.sales_contract&#45;&gt;dm_calc.sd_sales_main_scm</title>
<path fill="none" stroke="black" d="M328.19,-1237.61C349.84,-1232.09 372.75,-1226.25 372.75,-1226.25 372.75,-1226.25 394.75,-727.25 394.75,-727.25 394.75,-727.25 412.71,-722.45 431.46,-717.45"/>
<polygon fill="black" stroke="black" points="431.44,-719.26 435.82,-716.28 430.54,-715.88 431.44,-719.26"/>
</g>
<!-- dict_dds.counterparty -->
<g id="node10" class="node">
<title>dict_dds.counterparty</title>
<g id="a_node10"><a xlink:href="/table_info/dict_dds/counterparty" xlink:title="dict_dds.counterparty" target="_blank">
<polygon fill="lightyellow" stroke="black" points="337.12,-1215.5 241.62,-1215.5 241.62,-1197 337.12,-1197 337.12,-1215.5"/>
<text text-anchor="middle" x="289.38" y="-1203.9" font-family="Arial" font-size="8.00">dict_dds.counterparty</text>
</a>
</g>
</g>
<!-- dict_dds.counterparty&#45;&gt;dm_calc.sd_sales_main_scm -->
<g id="edge9" class="edge">
<title>dict_dds.counterparty&#45;&gt;dm_calc.sd_sales_main_scm</title>
<path fill="none" stroke="black" d="M328.19,-1196.61C349.84,-1191.09 372.75,-1185.25 372.75,-1185.25 372.75,-1185.25 394.75,-727.25 394.75,-727.25 394.75,-727.25 412.71,-722.45 431.46,-717.45"/>
<polygon fill="black" stroke="black" points="431.44,-719.26 435.82,-716.28 430.54,-715.88 431.44,-719.26"/>
</g>
<!-- dict_dds.delivery_split_reason_texts -->
<g id="node11" class="node">
<title>dict_dds.delivery_split_reason_texts</title>
<g id="a_node11"><a xlink:href="/table_info/dict_dds/delivery_split_reason_texts" xlink:title="dict_dds.delivery_split_reason_texts" target="_blank">
<polygon fill="lightyellow" stroke="black" points="363.75,-1174.5 215,-1174.5 215,-1156 363.75,-1156 363.75,-1174.5"/>
<text text-anchor="middle" x="289.38" y="-1162.9" font-family="Arial" font-size="8.00">dict_dds.delivery_split_reason_texts</text>
</a>
</g>
</g>
<!-- dict_dds.delivery_split_reason_texts&#45;&gt;dm_calc.sd_sales_main_scm -->
<g id="edge10" class="edge">
<title>dict_dds.delivery_split_reason_texts&#45;&gt;dm_calc.sd_sales_main_scm</title>
<path fill="none" stroke="black" d="M328.19,-1155.61C349.84,-1150.09 372.75,-1144.25 372.75,-1144.25 372.75,-1144.25 394.75,-727.25 394.75,-727.25 394.75,-727.25 412.71,-722.45 431.46,-717.45"/>
<polygon fill="black" stroke="black" points="431.44,-719.26 435.82,-716.28 430.54,-715.88 431.44,-719.26"/>
</g>
<!-- ods.delivery_lot -->
<g id="node12" class="node">
<title>ods.delivery_lot</title>
<g id="a_node12"><a xlink:href="/table_info/ods/delivery_lot" xlink:title="ods.delivery_lot" target="_blank">
<polygon fill="lightblue" stroke="black" points="325.88,-1133.5 252.88,-1133.5 252.88,-1115 325.88,-1115 325.88,-1133.5"/>
<text text-anchor="middle" x="289.38" y="-1121.9" font-family="Arial" font-size="8.00">ods.delivery_lot</text>
</a>
</g>
</g>
<!-- ods.delivery_lot&#45;&gt;dm_calc.sd_sales_main_scm -->
<g id="edge11" class="edge">
<title>ods.delivery_lot&#45;&gt;dm_calc.sd_sales_main_scm</title>
<path fill="none" stroke="black" d="M326.27,-1115.1C348.46,-1109.44 372.75,-1103.25 372.75,-1103.25 372.75,-1103.25 394.75,-727.25 394.75,-727.25 394.75,-727.25 412.71,-722.45 431.46,-717.45"/>
<polygon fill="black" stroke="black" points="431.44,-719.26 435.82,-716.28 430.54,-715.88 431.44,-719.26"/>
</g>
<!-- ods.bill_of_lading_in_foreign_port -->
<g id="node13" class="node">
<title>ods.bill_of_lading_in_foreign_port</title>
<g id="a_node13"><a xlink:href="/table_info/ods/bill_of_lading_in_foreign_port" xlink:title="ods.bill_of_lading_in_foreign_port" target="_blank">
<polygon fill="lightblue" stroke="black" points="358.12,-1092.5 220.62,-1092.5 220.62,-1074 358.12,-1074 358.12,-1092.5"/>
<text text-anchor="middle" x="289.38" y="-1080.9" font-family="Arial" font-size="8.00">ods.bill_of_lading_in_foreign_port</text>
</a>
</g>
</g>
<!-- ods.bill_of_lading_in_foreign_port&#45;&gt;dm_calc.sd_sales_main_scm -->
<g id="edge12" class="edge">
<title>ods.bill_of_lading_in_foreign_port&#45;&gt;dm_calc.sd_sales_main_scm</title>
<path fill="none" stroke="black" d="M321.05,-1073.57C344.47,-1066.18 372.75,-1057.25 372.75,-1057.25 372.75,-1057.25 394.75,-727.25 394.75,-727.25 394.75,-727.25 412.71,-722.45 431.46,-717.45"/>
<polygon fill="black" stroke="black" points="431.44,-719.26 435.82,-716.28 430.54,-715.88 431.44,-719.26"/>
</g>
<!-- dict_dds.transport_hub -->
<g id="node14" class="node">
<title>dict_dds.transport_hub</title>
<g id="a_node14"><a xlink:href="/table_info/dict_dds/transport_hub" xlink:title="dict_dds.transport_hub" target="_blank">
<polygon fill="lightyellow" stroke="black" points="142,-1006.5 42,-1006.5 42,-988 142,-988 142,-1006.5"/>
<text text-anchor="middle" x="92" y="-994.9" font-family="Arial" font-size="8.00">dict_dds.transport_hub</text>
</a>
</g>
</g>
<!-- dict_dds.transport_hub&#45;&gt;dm_calc.sd_sales_main_scm -->
<g id="edge13" class="edge">
<title>dict_dds.transport_hub&#45;&gt;dm_calc.sd_sales_main_scm</title>
<path fill="none" stroke="black" d="M142.23,-1005.96C172.69,-1011.35 206,-1017.25 206,-1017.25 206,-1017.25 372.75,-1017.25 372.75,-1017.25 372.75,-1017.25 394.75,-727.25 394.75,-727.25 394.75,-727.25 412.71,-722.45 431.46,-717.45"/>
<polygon fill="black" stroke="black" points="431.44,-719.26 435.82,-716.28 430.54,-715.88 431.44,-719.26"/>
</g>
<!-- ods.nomination_in_russian_port -->
<g id="node16" class="node">
<title>ods.nomination_in_russian_port</title>
<g id="a_node16"><a xlink:href="/table_info/ods/nomination_in_russian_port" xlink:title="ods.nomination_in_russian_port" target="_blank">
<polygon fill="lightblue" stroke="black" points="354.75,-1006.5 224,-1006.5 224,-988 354.75,-988 354.75,-1006.5"/>
<text text-anchor="middle" x="289.38" y="-994.9" font-family="Arial" font-size="8.00">ods.nomination_in_russian_port</text>
</a>
</g>
</g>
<!-- dict_dds.transport_hub&#45;&gt;ods.nomination_in_russian_port -->
<g id="edge46" class="edge">
<title>dict_dds.transport_hub&#45;&gt;ods.nomination_in_russian_port</title>
<path fill="none" stroke="black" d="M142.3,-997.25C165.02,-997.25 192.41,-997.25 217.3,-997.25"/>
<polygon fill="black" stroke="black" points="217.06,-999 222.06,-997.25 217.06,-995.5 217.06,-999"/>
</g>
<!-- ods.nomination_in_foreign_port -->
<g id="node36" class="node">
<title>ods.nomination_in_foreign_port</title>
<g id="a_node36"><a xlink:href="/table_info/ods/nomination_in_foreign_port" xlink:title="ods.nomination_in_foreign_port" target="_blank">
<polygon fill="lightblue" stroke="black" points="354,-965.5 224.75,-965.5 224.75,-947 354,-947 354,-965.5"/>
<text text-anchor="middle" x="289.38" y="-953.9" font-family="Arial" font-size="8.00">ods.nomination_in_foreign_port</text>
</a>
</g>
</g>
<!-- dict_dds.transport_hub&#45;&gt;ods.nomination_in_foreign_port -->
<g id="edge41" class="edge">
<title>dict_dds.transport_hub&#45;&gt;ods.nomination_in_foreign_port</title>
<path fill="none" stroke="black" d="M139.3,-987.53C168.27,-981.45 205.67,-973.61 235.76,-967.29"/>
<polygon fill="black" stroke="black" points="236.05,-969.02 240.59,-966.28 235.33,-965.59 236.05,-969.02"/>
</g>
<!-- dict_dds.plant_and_subsidiary -->
<g id="node15" class="node">
<title>dict_dds.plant_and_subsidiary</title>
<g id="a_node15"><a xlink:href="/table_info/dict_dds/plant_and_subsidiary" xlink:title="dict_dds.plant_and_subsidiary" target="_blank">
<polygon fill="lightyellow" stroke="black" points="352.5,-879.5 226.25,-879.5 226.25,-861 352.5,-861 352.5,-879.5"/>
<text text-anchor="middle" x="289.38" y="-867.9" font-family="Arial" font-size="8.00">dict_dds.plant_and_subsidiary</text>
</a>
</g>
</g>
<!-- dict_dds.plant_and_subsidiary&#45;&gt;dm_calc.sd_sales_main_scm -->
<g id="edge14" class="edge">
<title>dict_dds.plant_and_subsidiary&#45;&gt;dm_calc.sd_sales_main_scm</title>
<path fill="none" stroke="black" d="M328.19,-860.61C349.84,-855.09 372.75,-849.25 372.75,-849.25 372.75,-849.25 394.75,-727.25 394.75,-727.25 394.75,-727.25 412.71,-722.45 431.46,-717.45"/>
<polygon fill="black" stroke="black" points="431.44,-719.26 435.82,-716.28 430.54,-715.88 431.44,-719.26"/>
</g>
<!-- ods.nomination_in_russian_port&#45;&gt;dm_calc.sd_sales_main_scm -->
<g id="edge15" class="edge">
<title>ods.nomination_in_russian_port&#45;&gt;dm_calc.sd_sales_main_scm</title>
<path fill="none" stroke="black" d="M328.19,-987.61C349.84,-982.09 372.75,-976.25 372.75,-976.25 372.75,-976.25 394.75,-727.25 394.75,-727.25 394.75,-727.25 412.71,-722.45 431.46,-717.45"/>
<polygon fill="black" stroke="black" points="431.44,-719.26 435.82,-716.28 430.54,-715.88 431.44,-719.26"/>
</g>
<!-- dict_dds.specification -->
<g id="node17" class="node">
<title>dict_dds.specification</title>
<g id="a_node17"><a xlink:href="/table_info/dict_dds/specification" xlink:title="dict_dds.specification" target="_blank">
<polygon fill="lightyellow" stroke="black" points="336.75,-838.5 242,-838.5 242,-820 336.75,-820 336.75,-838.5"/>
<text text-anchor="middle" x="289.38" y="-826.9" font-family="Arial" font-size="8.00">dict_dds.specification</text>
</a>
</g>
</g>
<!-- dict_dds.specification&#45;&gt;dm_calc.sd_sales_main_scm -->
<g id="edge16" class="edge">
<title>dict_dds.specification&#45;&gt;dm_calc.sd_sales_main_scm</title>
<path fill="none" stroke="black" d="M328.19,-819.61C349.84,-814.09 372.75,-808.25 372.75,-808.25 372.75,-808.25 394.75,-727.25 394.75,-727.25 394.75,-727.25 412.71,-722.45 431.46,-717.45"/>
<polygon fill="black" stroke="black" points="431.44,-719.26 435.82,-716.28 430.54,-715.88 431.44,-719.26"/>
</g>
<!-- dict_dds.incoterms -->
<g id="node18" class="node">
<title>dict_dds.incoterms</title>
<g id="a_node18"><a xlink:href="/table_info/dict_dds/incoterms" xlink:title="dict_dds.incoterms" target="_blank">
<polygon fill="lightyellow" stroke="black" points="331.5,-797.5 247.25,-797.5 247.25,-779 331.5,-779 331.5,-797.5"/>
<text text-anchor="middle" x="289.38" y="-785.9" font-family="Arial" font-size="8.00">dict_dds.incoterms</text>
</a>
</g>
</g>
<!-- dict_dds.incoterms&#45;&gt;dm_calc.sd_sales_main_scm -->
<g id="edge17" class="edge">
<title>dict_dds.incoterms&#45;&gt;dm_calc.sd_sales_main_scm</title>
<path fill="none" stroke="black" d="M328.19,-778.61C349.84,-773.09 372.75,-767.25 372.75,-767.25 372.75,-767.25 394.75,-727.25 394.75,-727.25 394.75,-727.25 412.71,-722.45 431.46,-717.45"/>
<polygon fill="black" stroke="black" points="431.44,-719.26 435.82,-716.28 430.54,-715.88 431.44,-719.26"/>
</g>
<!-- ods.bill_of_lading_in_russian_port -->
<g id="node19" class="node">
<title>ods.bill_of_lading_in_russian_port</title>
<g id="a_node19"><a xlink:href="/table_info/ods/bill_of_lading_in_russian_port" xlink:title="ods.bill_of_lading_in_russian_port" target="_blank">
<polygon fill="lightblue" stroke="black" points="358.88,-756.5 219.88,-756.5 219.88,-738 358.88,-738 358.88,-756.5"/>
<text text-anchor="middle" x="289.38" y="-744.9" font-family="Arial" font-size="8.00">ods.bill_of_lading_in_russian_port</text>
</a>
</g>
</g>
<!-- ods.bill_of_lading_in_russian_port&#45;&gt;dm_calc.sd_sales_main_scm -->
<g id="edge18" class="edge">
<title>ods.bill_of_lading_in_russian_port&#45;&gt;dm_calc.sd_sales_main_scm</title>
<path fill="none" stroke="black" d="M333.74,-737.53C360.77,-731.48 395.62,-723.67 423.74,-717.37"/>
<polygon fill="black" stroke="black" points="424.03,-719.1 428.52,-716.3 423.26,-715.68 424.03,-719.1"/>
</g>
<!-- dict_dds.warehouse -->
<g id="node20" class="node">
<title>dict_dds.warehouse</title>
<g id="a_node20"><a xlink:href="/table_info/dict_dds/warehouse" xlink:title="dict_dds.warehouse" target="_blank">
<polygon fill="lightyellow" stroke="black" points="334.88,-715.5 243.88,-715.5 243.88,-697 334.88,-697 334.88,-715.5"/>
<text text-anchor="middle" x="289.38" y="-703.9" font-family="Arial" font-size="8.00">dict_dds.warehouse</text>
</a>
</g>
</g>
<!-- dict_dds.warehouse&#45;&gt;dm_calc.sd_sales_main_scm -->
<g id="edge19" class="edge">
<title>dict_dds.warehouse&#45;&gt;dm_calc.sd_sales_main_scm</title>
<path fill="none" stroke="black" d="M335.14,-706.25C356.71,-706.25 383,-706.25 406.85,-706.25"/>
<polygon fill="black" stroke="black" points="406.67,-708 411.67,-706.25 406.67,-704.5 406.67,-708"/>
</g>
<!-- dict_dds.material_specification -->
<g id="node21" class="node">
<title>dict_dds.material_specification</title>
<g id="a_node21"><a xlink:href="/table_info/dict_dds/material_specification" xlink:title="dict_dds.material_specification" target="_blank">
<polygon fill="lightyellow" stroke="black" points="352.88,-674.5 225.88,-674.5 225.88,-656 352.88,-656 352.88,-674.5"/>
<text text-anchor="middle" x="289.38" y="-662.9" font-family="Arial" font-size="8.00">dict_dds.material_specification</text>
</a>
</g>
</g>
<!-- dict_dds.material_specification&#45;&gt;dm_calc.sd_sales_main_scm -->
<g id="edge20" class="edge">
<title>dict_dds.material_specification&#45;&gt;dm_calc.sd_sales_main_scm</title>
<path fill="none" stroke="black" d="M333.74,-674.97C360.77,-681.02 395.62,-688.83 423.74,-695.13"/>
<polygon fill="black" stroke="black" points="423.26,-696.82 428.52,-696.2 424.03,-693.4 423.26,-696.82"/>
</g>
<!-- dict_dds.transport_route -->
<g id="node22" class="node">
<title>dict_dds.transport_route</title>
<g id="a_node22"><a xlink:href="/table_info/dict_dds/transport_route" xlink:title="dict_dds.transport_route" target="_blank">
<polygon fill="lightyellow" stroke="black" points="144.62,-923.5 39.38,-923.5 39.38,-905 144.62,-905 144.62,-923.5"/>
<text text-anchor="middle" x="92" y="-911.9" font-family="Arial" font-size="8.00">dict_dds.transport_route</text>
</a>
</g>
</g>
<!-- dict_dds.transport_route&#45;&gt;dm_calc.sd_sales_main_scm -->
<g id="edge21" class="edge">
<title>dict_dds.transport_route&#45;&gt;dm_calc.sd_sales_main_scm</title>
<path fill="none" stroke="black" d="M144.96,-909.79C225.86,-902.85 372.75,-890.25 372.75,-890.25 372.75,-890.25 394.75,-727.25 394.75,-727.25 394.75,-727.25 412.71,-722.45 431.46,-717.45"/>
<polygon fill="black" stroke="black" points="431.44,-719.26 435.82,-716.28 430.54,-715.88 431.44,-719.26"/>
</g>
<!-- dict_dds.transport_route&#45;&gt;ods.nomination_in_foreign_port -->
<g id="edge42" class="edge">
<title>dict_dds.transport_route&#45;&gt;ods.nomination_in_foreign_port</title>
<path fill="none" stroke="black" d="M138.31,-923.99C167.9,-930.35 206.6,-938.67 237.28,-945.27"/>
<polygon fill="black" stroke="black" points="236.57,-946.9 241.83,-946.24 237.31,-943.48 236.57,-946.9"/>
</g>
<!-- dict_dds.material_texts -->
<g id="node23" class="node">
<title>dict_dds.material_texts</title>
<g id="a_node23"><a xlink:href="/table_info/dict_dds/material_texts" xlink:title="dict_dds.material_texts" target="_blank">
<polygon fill="lightyellow" stroke="black" points="339,-633.5 239.75,-633.5 239.75,-615 339,-615 339,-633.5"/>
<text text-anchor="middle" x="289.38" y="-621.9" font-family="Arial" font-size="8.00">dict_dds.material_texts</text>
</a>
</g>
</g>
<!-- dict_dds.material_texts&#45;&gt;dm_calc.sd_sales_main_scm -->
<g id="edge22" class="edge">
<title>dict_dds.material_texts&#45;&gt;dm_calc.sd_sales_main_scm</title>
<path fill="none" stroke="black" d="M328.19,-633.89C349.84,-639.41 372.75,-645.25 372.75,-645.25 372.75,-645.25 422.91,-675.66 452.4,-693.54"/>
<polygon fill="black" stroke="black" points="451.18,-694.84 456.36,-695.93 452.99,-691.85 451.18,-694.84"/>
</g>
<!-- dict_dds.incoterms_location -->
<g id="node24" class="node">
<title>dict_dds.incoterms_location</title>
<g id="a_node24"><a xlink:href="/table_info/dict_dds/incoterms_location" xlink:title="dict_dds.incoterms_location" target="_blank">
<polygon fill="lightyellow" stroke="black" points="347.62,-592.5 231.12,-592.5 231.12,-574 347.62,-574 347.62,-592.5"/>
<text text-anchor="middle" x="289.38" y="-580.9" font-family="Arial" font-size="8.00">dict_dds.incoterms_location</text>
</a>
</g>
</g>
<!-- dict_dds.incoterms_location&#45;&gt;dm_calc.sd_sales_main_scm -->
<g id="edge23" class="edge">
<title>dict_dds.incoterms_location&#45;&gt;dm_calc.sd_sales_main_scm</title>
<path fill="none" stroke="black" d="M328.19,-592.89C349.84,-598.41 372.75,-604.25 372.75,-604.25 372.75,-604.25 432.11,-664.42 459.65,-692.33"/>
<polygon fill="black" stroke="black" points="458.27,-693.43 463.03,-695.76 460.76,-690.97 458.27,-693.43"/>
</g>
<!-- ods.plant_delivery -->
<g id="node25" class="node">
<title>ods.plant_delivery</title>
<g id="a_node25"><a xlink:href="/table_info/ods/plant_delivery" xlink:title="ods.plant_delivery" target="_blank">
<polygon fill="lightblue" stroke="black" points="330.38,-551.5 248.38,-551.5 248.38,-533 330.38,-533 330.38,-551.5"/>
<text text-anchor="middle" x="289.38" y="-539.9" font-family="Arial" font-size="8.00">ods.plant_delivery</text>
</a>
</g>
</g>
<!-- ods.plant_delivery&#45;&gt;dm_calc.sd_sales_main_scm -->
<g id="edge24" class="edge">
<title>ods.plant_delivery&#45;&gt;dm_calc.sd_sales_main_scm</title>
<path fill="none" stroke="black" d="M328.19,-551.89C349.84,-557.41 372.75,-563.25 372.75,-563.25 372.75,-563.25 437.83,-655.73 463.31,-691.95"/>
<polygon fill="black" stroke="black" points="461.59,-692.55 465.9,-695.63 464.46,-690.53 461.59,-692.55"/>
</g>
<!-- dict_dds.sales_order_market -->
<g id="node26" class="node">
<title>dict_dds.sales_order_market</title>
<g id="a_node26"><a xlink:href="/table_info/dict_dds/sales_order_market" xlink:title="dict_dds.sales_order_market" target="_blank">
<polygon fill="lightyellow" stroke="black" points="349.88,-510.5 228.88,-510.5 228.88,-492 349.88,-492 349.88,-510.5"/>
<text text-anchor="middle" x="289.38" y="-498.9" font-family="Arial" font-size="8.00">dict_dds.sales_order_market</text>
</a>
</g>
</g>
<!-- dict_dds.sales_order_market&#45;&gt;dm_calc.sd_sales_main_scm -->
<g id="edge25" class="edge">
<title>dict_dds.sales_order_market&#45;&gt;dm_calc.sd_sales_main_scm</title>
<path fill="none" stroke="black" d="M328.19,-510.89C349.84,-516.41 372.75,-522.25 372.75,-522.25 372.75,-522.25 440.85,-646.77 465,-690.94"/>
<polygon fill="black" stroke="black" points="463.45,-691.74 467.38,-695.29 466.52,-690.06 463.45,-691.74"/>
</g>
<!-- ods.delivery_number_deleted -->
<g id="node27" class="node">
<title>ods.delivery_number_deleted</title>
<g id="a_node27"><a xlink:href="/table_info/ods/delivery_number_deleted" xlink:title="ods.delivery_number_deleted" target="_blank">
<polygon fill="lightblue" stroke="black" points="350.62,-469.5 228.12,-469.5 228.12,-451 350.62,-451 350.62,-469.5"/>
<text text-anchor="middle" x="289.38" y="-457.9" font-family="Arial" font-size="8.00">ods.delivery_number_deleted</text>
</a>
</g>
</g>
<!-- ods.delivery_number_deleted&#45;&gt;dm_calc.sd_sales_main_scm -->
<g id="edge26" class="edge">
<title>ods.delivery_number_deleted&#45;&gt;dm_calc.sd_sales_main_scm</title>
<path fill="none" stroke="black" d="M328.19,-469.89C349.84,-475.41 372.75,-481.25 372.75,-481.25 372.75,-481.25 443.6,-639.67 466.4,-690.65"/>
<polygon fill="black" stroke="black" points="464.79,-691.35 468.43,-695.2 467.99,-689.92 464.79,-691.35"/>
</g>
<!-- dict_dds.transport_vessel_old -->
<g id="node28" class="node">
<title>dict_dds.transport_vessel_old</title>
<g id="a_node28"><a xlink:href="/table_info/dict_dds/transport_vessel_old" xlink:title="dict_dds.transport_vessel_old" target="_blank">
<polygon fill="lightyellow" stroke="black" points="352.12,-428.5 226.62,-428.5 226.62,-410 352.12,-410 352.12,-428.5"/>
<text text-anchor="middle" x="289.38" y="-416.9" font-family="Arial" font-size="8.00">dict_dds.transport_vessel_old</text>
</a>
</g>
</g>
<!-- dict_dds.transport_vessel_old&#45;&gt;dm_calc.sd_sales_main_scm -->
<g id="edge27" class="edge">
<title>dict_dds.transport_vessel_old&#45;&gt;dm_calc.sd_sales_main_scm</title>
<path fill="none" stroke="black" d="M328.19,-428.89C349.84,-434.41 372.75,-440.25 372.75,-440.25 372.75,-440.25 446.11,-634.16 467.55,-690.86"/>
<polygon fill="black" stroke="black" points="465.85,-691.31 469.26,-695.37 469.13,-690.07 465.85,-691.31"/>
</g>
<!-- dict_dds.sales_market_in_shipment_texts -->
<g id="node29" class="node">
<title>dict_dds.sales_market_in_shipment_texts</title>
<g id="a_node29"><a xlink:href="/table_info/dict_dds/sales_market_in_shipment_texts" xlink:title="dict_dds.sales_market_in_shipment_texts" target="_blank">
<polygon fill="lightyellow" stroke="black" points="372.75,-387.5 206,-387.5 206,-369 372.75,-369 372.75,-387.5"/>
<text text-anchor="middle" x="289.38" y="-375.9" font-family="Arial" font-size="8.00">dict_dds.sales_market_in_shipment_texts</text>
</a>
</g>
</g>
<!-- dict_dds.sales_market_in_shipment_texts&#45;&gt;dm_calc.sd_sales_main_scm -->
<g id="edge28" class="edge">
<title>dict_dds.sales_market_in_shipment_texts&#45;&gt;dm_calc.sd_sales_main_scm</title>
<path fill="none" stroke="black" d="M328.19,-387.89C349.84,-393.41 372.75,-399.25 372.75,-399.25 372.75,-399.25 447.71,-627.94 468.23,-690.56"/>
<polygon fill="black" stroke="black" points="466.56,-691.08 469.78,-695.29 469.89,-689.99 466.56,-691.08"/>
</g>
<!-- ods.initial_delivery -->
<g id="node30" class="node">
<title>ods.initial_delivery</title>
<g id="a_node30"><a xlink:href="/table_info/ods/initial_delivery" xlink:title="ods.initial_delivery" target="_blank">
<polygon fill="lightblue" stroke="black" points="330.38,-346.5 248.38,-346.5 248.38,-328 330.38,-328 330.38,-346.5"/>
<text text-anchor="middle" x="289.38" y="-334.9" font-family="Arial" font-size="8.00">ods.initial_delivery</text>
</a>
</g>
</g>
<!-- ods.initial_delivery&#45;&gt;dm_calc.sd_sales_main_scm -->
<g id="edge29" class="edge">
<title>ods.initial_delivery&#45;&gt;dm_calc.sd_sales_main_scm</title>
<path fill="none" stroke="black" d="M328.19,-346.89C349.84,-352.41 372.75,-358.25 372.75,-358.25 372.75,-358.25 449.31,-623.02 468.87,-690.66"/>
<polygon fill="black" stroke="black" points="467.09,-690.81 470.16,-695.13 470.45,-689.84 467.09,-690.81"/>
</g>
<!-- ods.map_zmk_track_exp_keys -->
<g id="node31" class="node">
<title>ods.map_zmk_track_exp_keys</title>
<g id="a_node31"><a xlink:href="/table_info/ods/map_zmk_track_exp_keys" xlink:title="ods.map_zmk_track_exp_keys" target="_blank">
<polygon fill="lightblue" stroke="black" points="353.25,-305.5 225.5,-305.5 225.5,-287 353.25,-287 353.25,-305.5"/>
<text text-anchor="middle" x="289.38" y="-293.9" font-family="Arial" font-size="8.00">ods.map_zmk_track_exp_keys</text>
</a>
</g>
</g>
<!-- ods.map_zmk_track_exp_keys&#45;&gt;dm_calc.sd_sales_main_scm -->
<g id="edge30" class="edge">
<title>ods.map_zmk_track_exp_keys&#45;&gt;dm_calc.sd_sales_main_scm</title>
<path fill="none" stroke="black" d="M328.19,-305.89C349.84,-311.41 372.75,-317.25 372.75,-317.25 372.75,-317.25 450.62,-618.29 469.36,-690.72"/>
<polygon fill="black" stroke="black" points="467.56,-690.77 470.51,-695.17 470.95,-689.89 467.56,-690.77"/>
</g>
<!-- dict_dds.material_shape_texts -->
<g id="node32" class="node">
<title>dict_dds.material_shape_texts</title>
<g id="a_node32"><a xlink:href="/table_info/dict_dds/material_shape_texts" xlink:title="dict_dds.material_shape_texts" target="_blank">
<polygon fill="lightyellow" stroke="black" points="352.5,-264.5 226.25,-264.5 226.25,-246 352.5,-246 352.5,-264.5"/>
<text text-anchor="middle" x="289.38" y="-252.9" font-family="Arial" font-size="8.00">dict_dds.material_shape_texts</text>
</a>
</g>
</g>
<!-- dict_dds.material_shape_texts&#45;&gt;dm_calc.sd_sales_main_scm -->
<g id="edge31" class="edge">
<title>dict_dds.material_shape_texts&#45;&gt;dm_calc.sd_sales_main_scm</title>
<path fill="none" stroke="black" d="M328.19,-264.89C349.84,-270.41 372.75,-276.25 372.75,-276.25 372.75,-276.25 451.63,-613.33 469.71,-690.6"/>
<polygon fill="black" stroke="black" points="467.99,-690.93 470.83,-695.4 471.4,-690.13 467.99,-690.93"/>
</g>
<!-- dict_dds.transport_route_stage -->
<g id="node33" class="node">
<title>dict_dds.transport_route_stage</title>
<g id="a_node33"><a xlink:href="/table_info/dict_dds/transport_route_stage" xlink:title="dict_dds.transport_route_stage" target="_blank">
<polygon fill="lightyellow" stroke="black" points="354.38,-223.5 224.38,-223.5 224.38,-205 354.38,-205 354.38,-223.5"/>
<text text-anchor="middle" x="289.38" y="-211.9" font-family="Arial" font-size="8.00">dict_dds.transport_route_stage</text>
</a>
</g>
</g>
<!-- dict_dds.transport_route_stage&#45;&gt;dm_calc.sd_sales_main_scm -->
<g id="edge32" class="edge">
<title>dict_dds.transport_route_stage&#45;&gt;dm_calc.sd_sales_main_scm</title>
<path fill="none" stroke="black" d="M328.19,-223.89C349.84,-229.41 372.75,-235.25 372.75,-235.25 372.75,-235.25 452.63,-609.14 470.05,-690.67"/>
<polygon fill="black" stroke="black" points="468.29,-690.84 471.05,-695.36 471.72,-690.11 468.29,-690.84"/>
</g>
<!-- dict_dds.location_sales -->
<g id="node34" class="node">
<title>dict_dds.location_sales</title>
<g id="a_node34"><a xlink:href="/table_info/dict_dds/location_sales" xlink:title="dict_dds.location_sales" target="_blank">
<polygon fill="lightyellow" stroke="black" points="339.75,-182.5 239,-182.5 239,-164 339.75,-164 339.75,-182.5"/>
<text text-anchor="middle" x="289.38" y="-170.9" font-family="Arial" font-size="8.00">dict_dds.location_sales</text>
</a>
</g>
</g>
<!-- dict_dds.location_sales&#45;&gt;dm_calc.sd_sales_main_scm -->
<g id="edge33" class="edge">
<title>dict_dds.location_sales&#45;&gt;dm_calc.sd_sales_main_scm</title>
<path fill="none" stroke="black" d="M328.19,-182.89C349.84,-188.41 372.75,-194.25 372.75,-194.25 372.75,-194.25 453.47,-604.99 470.32,-690.69"/>
<polygon fill="black" stroke="black" points="468.57,-690.87 471.25,-695.44 472,-690.2 468.57,-690.87"/>
</g>
<!-- dict_dds.transport_hub_texts -->
<g id="node35" class="node">
<title>dict_dds.transport_hub_texts</title>
<g id="a_node35"><a xlink:href="/table_info/dict_dds/transport_hub_texts" xlink:title="dict_dds.transport_hub_texts" target="_blank">
<polygon fill="lightyellow" stroke="black" points="350.62,-141.5 228.12,-141.5 228.12,-123 350.62,-123 350.62,-141.5"/>
<text text-anchor="middle" x="289.38" y="-129.9" font-family="Arial" font-size="8.00">dict_dds.transport_hub_texts</text>
</a>
</g>
</g>
<!-- dict_dds.transport_hub_texts&#45;&gt;dm_calc.sd_sales_main_scm -->
<g id="edge34" class="edge">
<title>dict_dds.transport_hub_texts&#45;&gt;dm_calc.sd_sales_main_scm</title>
<path fill="none" stroke="black" d="M328.19,-141.89C349.84,-147.41 372.75,-153.25 372.75,-153.25 372.75,-153.25 453.98,-599.66 470.47,-690.31"/>
<polygon fill="black" stroke="black" points="468.74,-690.56 471.36,-695.16 472.18,-689.93 468.74,-690.56"/>
</g>
<!-- ods.nomination_in_foreign_port&#45;&gt;dm_calc.sd_sales_main_scm -->
<g id="edge35" class="edge">
<title>ods.nomination_in_foreign_port&#45;&gt;dm_calc.sd_sales_main_scm</title>
<path fill="none" stroke="black" d="M321.05,-946.57C344.47,-939.18 372.75,-930.25 372.75,-930.25 372.75,-930.25 394.75,-727.25 394.75,-727.25 394.75,-727.25 412.71,-722.45 431.46,-717.45"/>
<polygon fill="black" stroke="black" points="431.44,-719.26 435.82,-716.28 430.54,-715.88 431.44,-719.26"/>
</g>
<!-- dict_dds.sb_market -->
<g id="node37" class="node">
<title>dict_dds.sb_market</title>
<g id="a_node37"><a xlink:href="/table_info/dict_dds/sb_market" xlink:title="dict_dds.sb_market" target="_blank">
<polygon fill="lightcoral" stroke="black" points="332.62,-100.5 246.12,-100.5 246.12,-82 332.62,-82 332.62,-100.5"/>
<text text-anchor="middle" x="289.38" y="-88.9" font-family="Arial" font-size="8.00">dict_dds.sb_market</text>
</a>
</g>
</g>
<!-- dict_dds.sb_market&#45;&gt;dm_calc.sd_sales_main_scm -->
<g id="edge36" class="edge">
<title>dict_dds.sb_market&#45;&gt;dm_calc.sd_sales_main_scm</title>
<path fill="none" stroke="black" d="M328.19,-100.89C349.84,-106.41 372.75,-112.25 372.75,-112.25 372.75,-112.25 454.83,-596.8 470.73,-690.62"/>
<polygon fill="black" stroke="black" points="468.98,-690.79 471.54,-695.43 472.43,-690.21 468.98,-690.79"/>
</g>
<!-- ods.sales_batch_delivery -->
<g id="node38" class="node">
<title>ods.sales_batch_delivery</title>
<g id="a_node38"><a xlink:href="/table_info/ods/sales_batch_delivery" xlink:title="ods.sales_batch_delivery" target="_blank">
<polygon fill="lightblue" stroke="black" points="343.88,-59.5 234.88,-59.5 234.88,-41 343.88,-41 343.88,-59.5"/>
<text text-anchor="middle" x="289.38" y="-47.9" font-family="Arial" font-size="8.00">ods.sales_batch_delivery</text>
</a>
</g>
</g>
<!-- ods.sales_batch_delivery&#45;&gt;dm_calc.sd_sales_main_scm -->
<g id="edge37" class="edge">
<title>ods.sales_batch_delivery&#45;&gt;dm_calc.sd_sales_main_scm</title>
<path fill="none" stroke="black" d="M328.19,-59.89C349.84,-65.41 372.75,-71.25 372.75,-71.25 372.75,-71.25 455.17,-591.37 470.83,-690.16"/>
<polygon fill="black" stroke="black" points="469.09,-690.37 471.6,-695.03 472.54,-689.82 469.09,-690.37"/>
</g>
<!-- ods.release_delivery_group -->
<g id="node39" class="node">
<title>ods.release_delivery_group</title>
<g id="a_node39"><a xlink:href="/table_info/ods/release_delivery_group" xlink:title="ods.release_delivery_group" target="_blank">
<polygon fill="lightblue" stroke="black" points="348,-18.5 230.75,-18.5 230.75,0 348,0 348,-18.5"/>
<text text-anchor="middle" x="289.38" y="-6.9" font-family="Arial" font-size="8.00">ods.release_delivery_group</text>
</a>
</g>
</g>
<!-- ods.release_delivery_group&#45;&gt;dm_calc.sd_sales_main_scm -->
<g id="edge38" class="edge">
<title>ods.release_delivery_group&#45;&gt;dm_calc.sd_sales_main_scm</title>
<path fill="none" stroke="black" d="M328.19,-18.89C349.84,-24.41 372.75,-30.25 372.75,-30.25 372.75,-30.25 455.86,-588.58 471.02,-690.41"/>
<polygon fill="black" stroke="black" points="469.26,-690.51 471.73,-695.2 472.72,-689.99 469.26,-690.51"/>
</g>
<!-- stg./RUSAL/SHIPDATA -->
<g id="node40" class="node">
<title>stg./RUSAL/SHIPDATA</title>
<g id="a_node40"><a xlink:href="/table_info/stg//RUSAL/SHIPDATA" xlink:title="stg./RUSAL/SHIPDATA" target="_blank">
<polygon fill="lightblue" stroke="black" points="141.25,-59.5 42.75,-59.5 42.75,-41 141.25,-41 141.25,-59.5"/>
<text text-anchor="middle" x="92" y="-47.9" font-family="Arial" font-size="8.00">stg./RUSAL/SHIPDATA</text>
</a>
</g>
</g>
<!-- stg./RUSAL/SHIPDATA&#45;&gt;ods.sales_batch_delivery -->
<g id="edge39" class="edge">
<title>stg./RUSAL/SHIPDATA&#45;&gt;ods.sales_batch_delivery</title>
<path fill="none" stroke="black" d="M141.55,-50.25C167.81,-50.25 200.49,-50.25 228.34,-50.25"/>
<polygon fill="black" stroke="black" points="228.06,-52 233.06,-50.25 228.06,-48.5 228.06,-52"/>
</g>
<!-- ods.lot_of_delivery_grp_sd -->
<g id="node41" class="node">
<title>ods.lot_of_delivery_grp_sd</title>
<g id="a_node41"><a xlink:href="/table_info/ods/lot_of_delivery_grp_sd" xlink:title="ods.lot_of_delivery_grp_sd" target="_blank">
<polygon fill="lightblue" stroke="black" points="149.5,-1133.5 34.5,-1133.5 34.5,-1115 149.5,-1115 149.5,-1133.5"/>
<text text-anchor="middle" x="92" y="-1121.9" font-family="Arial" font-size="8.00">ods.lot_of_delivery_grp_sd</text>
</a>
</g>
</g>
<!-- ods.lot_of_delivery_grp_sd&#45;&gt;ods.delivery_lot -->
<g id="edge40" class="edge">
<title>ods.lot_of_delivery_grp_sd&#45;&gt;ods.delivery_lot</title>
<path fill="none" stroke="black" d="M149.77,-1124.25C180.57,-1124.25 217.98,-1124.25 246.17,-1124.25"/>
<polygon fill="black" stroke="black" points="245.89,-1126 250.89,-1124.25 245.89,-1122.5 245.89,-1126"/>
</g>
<!-- ods.plant_delivery_of_delivery_sd -->
<g id="node42" class="node">
<title>ods.plant_delivery_of_delivery_sd</title>
<g id="a_node42"><a xlink:href="/table_info/ods/plant_delivery_of_delivery_sd" xlink:title="ods.plant_delivery_of_delivery_sd" target="_blank">
<polygon fill="lightblue" stroke="black" points="162.25,-551.5 21.75,-551.5 21.75,-533 162.25,-533 162.25,-551.5"/>
<text text-anchor="middle" x="92" y="-539.9" font-family="Arial" font-size="8.00">ods.plant_delivery_of_delivery_sd</text>
</a>
</g>
</g>
<!-- ods.plant_delivery_of_delivery_sd&#45;&gt;ods.plant_delivery -->
<g id="edge43" class="edge">
<title>ods.plant_delivery_of_delivery_sd&#45;&gt;ods.plant_delivery</title>
<path fill="none" stroke="black" d="M162.71,-542.25C188.85,-542.25 217.92,-542.25 241.5,-542.25"/>
<polygon fill="black" stroke="black" points="241.49,-544 246.49,-542.25 241.49,-540.5 241.49,-544"/>
</g>
<!-- dict_dds.address -->
<g id="node43" class="node">
<title>dict_dds.address</title>
<g id="a_node43"><a xlink:href="/table_info/dict_dds/address" xlink:title="dict_dds.address" target="_blank">
<polygon fill="lightyellow" stroke="black" points="131.5,-965.5 52.5,-965.5 52.5,-947 131.5,-947 131.5,-965.5"/>
<text text-anchor="middle" x="92" y="-953.9" font-family="Arial" font-size="8.00">dict_dds.address</text>
</a>
</g>
</g>
<!-- dict_dds.address&#45;&gt;ods.nomination_in_foreign_port -->
<g id="edge44" class="edge">
<title>dict_dds.address&#45;&gt;ods.nomination_in_foreign_port</title>
<path fill="none" stroke="black" d="M131.6,-956.25C156.31,-956.25 189.1,-956.25 218.3,-956.25"/>
<polygon fill="black" stroke="black" points="217.96,-958 222.96,-956.25 217.96,-954.5 217.96,-958"/>
</g>
<!-- ods.delivery_notice_of_delivery_grp_sd -->
<g id="node44" class="node">
<title>ods.delivery_notice_of_delivery_grp_sd</title>
<g id="a_node44"><a xlink:href="/table_info/ods/delivery_notice_of_delivery_grp_sd" xlink:title="ods.delivery_notice_of_delivery_grp_sd" target="_blank">
<polygon fill="lightblue" stroke="black" points="172.75,-1420.5 11.25,-1420.5 11.25,-1402 172.75,-1402 172.75,-1420.5"/>
<text text-anchor="middle" x="92" y="-1408.9" font-family="Arial" font-size="8.00">ods.delivery_notice_of_delivery_grp_sd</text>
</a>
</g>
</g>
<!-- ods.delivery_notice_of_delivery_grp_sd&#45;&gt;ods.delivery_notice -->
<g id="edge45" class="edge">
<title>ods.delivery_notice_of_delivery_grp_sd&#45;&gt;ods.delivery_notice</title>
<path fill="none" stroke="black" d="M173.03,-1411.25C195.47,-1411.25 219.2,-1411.25 239.26,-1411.25"/>
<polygon fill="black" stroke="black" points="239.13,-1413 244.13,-1411.25 239.13,-1409.5 239.13,-1413"/>
</g>
<!-- ods.consign_foreign_port_of_delivery_grp_sd -->
<g id="node45" class="node">
<title>ods.consign_foreign_port_of_delivery_grp_sd</title>
<g id="a_node45"><a xlink:href="/table_info/ods/consign_foreign_port_of_delivery_grp_sd" xlink:title="ods.consign_foreign_port_of_delivery_grp_sd" target="_blank">
<polygon fill="lightblue" stroke="black" points="184,-1092.5 0,-1092.5 0,-1074 184,-1074 184,-1092.5"/>
<text text-anchor="middle" x="92" y="-1080.9" font-family="Arial" font-size="8.00">ods.consign_foreign_port_of_delivery_grp_sd</text>
</a>
</g>
</g>
<!-- ods.consign_foreign_port_of_delivery_grp_sd&#45;&gt;ods.bill_of_lading_in_foreign_port -->
<g id="edge47" class="edge">
<title>ods.consign_foreign_port_of_delivery_grp_sd&#45;&gt;ods.bill_of_lading_in_foreign_port</title>
<path fill="none" stroke="black" d="M184.4,-1083.25C194.33,-1083.25 204.36,-1083.25 214.06,-1083.25"/>
<polygon fill="black" stroke="black" points="213.87,-1085 218.87,-1083.25 213.87,-1081.5 213.87,-1085"/>
</g>
<!-- ods.outgoing_delivery_of_delivery_sd -->
<g id="node46" class="node">
<title>ods.outgoing_delivery_of_delivery_sd</title>
<g id="a_node46"><a xlink:href="/table_info/ods/outgoing_delivery_of_delivery_sd" xlink:title="ods.outgoing_delivery_of_delivery_sd" target="_blank">
<polygon fill="lightblue" stroke="black" points="169,-346.5 15,-346.5 15,-328 169,-328 169,-346.5"/>
<text text-anchor="middle" x="92" y="-334.9" font-family="Arial" font-size="8.00">ods.outgoing_delivery_of_delivery_sd</text>
</a>
</g>
</g>
<!-- ods.outgoing_delivery_of_delivery_sd&#45;&gt;ods.initial_delivery -->
<g id="edge48" class="edge">
<title>ods.outgoing_delivery_of_delivery_sd&#45;&gt;ods.initial_delivery</title>
<path fill="none" stroke="black" d="M169.38,-337.25C193.83,-337.25 220.15,-337.25 241.8,-337.25"/>
<polygon fill="black" stroke="black" points="241.56,-339 246.56,-337.25 241.56,-335.5 241.56,-339"/>
</g>
<!-- key1 -->
<g id="node47" class="node">
<title>key1</title>
<polygon fill="lightyellow" stroke="black" points="139.38,-1478.25 44.62,-1478.25 44.62,-1442.25 139.38,-1442.25 139.38,-1478.25"/>
<text text-anchor="middle" x="92" y="-1457.9" font-family="Arial" font-size="8.00">dict_dds Справочник</text>
</g>
<!-- key2 -->
<g id="node48" class="node">
<title>key2</title>
<polygon fill="lightblue" stroke="black" points="324.38,-1478.25 254.38,-1478.25 254.38,-1442.25 324.38,-1442.25 324.38,-1478.25"/>
<text text-anchor="middle" x="289.38" y="-1457.9" font-family="Arial" font-size="8.00">other schemas</text>
</g>
<!-- key1&#45;&gt;key2 -->
<!-- key3 -->
<g id="node49" class="node">
<title>key3</title>
<polygon fill="lightcoral" stroke="black" points="521,-1478.25 427.75,-1478.25 427.75,-1442.25 521,-1442.25 521,-1478.25"/>
<text text-anchor="middle" x="474.38" y="-1457.9" font-family="Arial" font-size="8.00">таблица выключена</text>
</g>
<!-- key2&#45;&gt;key3 -->
</g>
</svg>
