<?xml version="1.0" encoding="UTF-8" standalone="no"?>
<!DOCTYPE svg PUBLIC "-//W3C//DTD SVG 1.1//EN"
 "http://www.w3.org/Graphics/SVG/1.1/DTD/svg11.dtd">
<!-- Generated by graphviz version 11.0.0 (20240428.1522)
 -->
<!-- Pages: 1 -->
<svg width="358pt" height="160pt"
 viewBox="0.00 0.00 357.75 160.25" xmlns="http://www.w3.org/2000/svg" xmlns:xlink="http://www.w3.org/1999/xlink">
<g id="graph0" class="graph" transform="scale(1 1) rotate(0) translate(4 156.25)">
<polygon fill="white" stroke="none" points="-4,4 -4,-156.25 353.75,-156.25 353.75,4 -4,4"/>
<g id="clust1" class="cluster">
<title>cluster_legend</title>
<polygon fill="none" stroke="black" points="8,-73.25 8,-144.25 341.75,-144.25 341.75,-73.25 8,-73.25"/>
<text text-anchor="middle" x="174.88" y="-132.65" font-family="Arial" font-size="8.00">Легенда</text>
</g>
<!-- dict_dds.plant_and_subsidiary -->
<g id="node1" class="node">
<title>dict_dds.plant_and_subsidiary</title>
<g id="a_node1"><a xlink:href="/table_info/dict_dds/plant_and_subsidiary" xlink:title="dict_dds.plant_and_subsidiary" target="_blank">
<polygon fill="lightyellow" stroke="black" points="126.5,-59.5 0.25,-59.5 0.25,-41 126.5,-41 126.5,-59.5"/>
<text text-anchor="middle" x="63.38" y="-47.9" font-family="Arial" font-size="8.00">dict_dds.plant_and_subsidiary</text>
</a>
</g>
</g>
<!-- dm.plant_data -->
<g id="node2" class="node">
<title>dm.plant_data</title>
<g id="a_node2"><a xlink:href="/table_info/dm/plant_data" xlink:title="dm.plant_data" target="_blank">
<polygon fill="lightblue" stroke="black" points="216.62,-38.5 150.38,-38.5 150.38,-20 216.62,-20 216.62,-38.5"/>
<text text-anchor="middle" x="183.5" y="-26.9" font-family="Arial" font-size="8.00">dm.plant_data</text>
</a>
</g>
</g>
<!-- dict_dds.plant_and_subsidiary&#45;&gt;dm.plant_data -->
<g id="edge1" class="edge">
<title>dict_dds.plant_and_subsidiary&#45;&gt;dm.plant_data</title>
<path fill="none" stroke="black" d="M118.94,-40.55C127.42,-39.04 136.02,-37.51 144.05,-36.09"/>
<polygon fill="black" stroke="black" points="143.95,-37.88 148.57,-35.28 143.34,-34.44 143.95,-37.88"/>
</g>
<!-- dict_dds.material_texts -->
<g id="node3" class="node">
<title>dict_dds.material_texts</title>
<g id="a_node3"><a xlink:href="/table_info/dict_dds/material_texts" xlink:title="dict_dds.material_texts" target="_blank">
<polygon fill="lightyellow" stroke="black" points="113,-18.5 13.75,-18.5 13.75,0 113,0 113,-18.5"/>
<text text-anchor="middle" x="63.38" y="-6.9" font-family="Arial" font-size="8.00">dict_dds.material_texts</text>
</a>
</g>
</g>
<!-- dict_dds.material_texts&#45;&gt;dm.plant_data -->
<g id="edge2" class="edge">
<title>dict_dds.material_texts&#45;&gt;dm.plant_data</title>
<path fill="none" stroke="black" d="M113.44,-17.56C123.53,-19.27 134.02,-21.04 143.69,-22.68"/>
<polygon fill="black" stroke="black" points="143.19,-24.37 148.41,-23.48 143.78,-20.92 143.19,-24.37"/>
</g>
<!-- key1 -->
<g id="node4" class="node">
<title>key1</title>
<polygon fill="lightyellow" stroke="black" points="110.75,-117.25 16,-117.25 16,-81.25 110.75,-81.25 110.75,-117.25"/>
<text text-anchor="middle" x="63.38" y="-96.9" font-family="Arial" font-size="8.00">dict_dds Справочник</text>
</g>
<!-- key2 -->
<g id="node5" class="node">
<title>key2</title>
<polygon fill="lightblue" stroke="black" points="218.5,-117.25 148.5,-117.25 148.5,-81.25 218.5,-81.25 218.5,-117.25"/>
<text text-anchor="middle" x="183.5" y="-96.9" font-family="Arial" font-size="8.00">other schemas</text>
</g>
<!-- key1&#45;&gt;key2 -->
<!-- key3 -->
<g id="node6" class="node">
<title>key3</title>
<polygon fill="lightcoral" stroke="black" points="333.75,-117.25 240.5,-117.25 240.5,-81.25 333.75,-81.25 333.75,-117.25"/>
<text text-anchor="middle" x="287.12" y="-96.9" font-family="Arial" font-size="8.00">таблица выключена</text>
</g>
<!-- key2&#45;&gt;key3 -->
</g>
</svg>
