<?xml version="1.0" encoding="UTF-8" standalone="no"?>
<!DOCTYPE svg PUBLIC "-//W3C//DTD SVG 1.1//EN"
 "http://www.w3.org/Graphics/SVG/1.1/DTD/svg11.dtd">
<!-- Generated by graphviz version 11.0.0 (20240428.1522)
 -->
<!-- Pages: 1 -->
<svg width="284pt" height="720pt"
 viewBox="0.00 0.00 284.08 720.00" xmlns="http://www.w3.org/2000/svg" xmlns:xlink="http://www.w3.org/1999/xlink">
<g id="graph0" class="graph" transform="scale(0.43789 0.43789) rotate(0) translate(4 1640.25)">
<polygon fill="white" stroke="none" points="-4,4 -4,-1640.25 644.75,-1640.25 644.75,4 -4,4"/>
<g id="clust1" class="cluster">
<title>cluster_legend</title>
<polygon fill="none" stroke="black" points="36.62,-1557.25 36.62,-1628.25 510.25,-1628.25 510.25,-1557.25 36.62,-1557.25"/>
<text text-anchor="middle" x="273.44" y="-1616.65" font-family="Arial" font-size="8.00">Легенда</text>
</g>
<!-- dm_calc.sd_sales_main_scm -->
<g id="node1" class="node">
<title>dm_calc.sd_sales_main_scm</title>
<g id="a_node1"><a xlink:href="/table_info/dm_calc/sd_sales_main_scm" xlink:title="dm_calc.sd_sales_main_scm" target="_blank">
<polygon fill="lightblue" stroke="black" points="516.5,-776.5 394.75,-776.5 394.75,-758 516.5,-758 516.5,-776.5"/>
<text text-anchor="middle" x="455.62" y="-764.9" font-family="Arial" font-size="8.00">dm_calc.sd_sales_main_scm</text>
</a>
</g>
</g>
<!-- dm.sd_sales_main_scm -->
<g id="node2" class="node">
<title>dm.sd_sales_main_scm</title>
<g id="a_node2"><a xlink:href="/table_info/dm/sd_sales_main_scm" xlink:title="dm.sd_sales_main_scm" target="_blank">
<polygon fill="lightblue" stroke="black" points="640.75,-776.5 538.5,-776.5 538.5,-758 640.75,-758 640.75,-776.5"/>
<text text-anchor="middle" x="589.62" y="-764.9" font-family="Arial" font-size="8.00">dm.sd_sales_main_scm</text>
</a>
</g>
</g>
<!-- dm_calc.sd_sales_main_scm&#45;&gt;dm.sd_sales_main_scm -->
<g id="edge1" class="edge">
<title>dm_calc.sd_sales_main_scm&#45;&gt;dm.sd_sales_main_scm</title>
<path fill="none" stroke="black" d="M516.83,-767.25C521.9,-767.25 527.01,-767.25 532.05,-767.25"/>
<polygon fill="black" stroke="black" points="531.87,-769 536.87,-767.25 531.87,-765.5 531.87,-769"/>
</g>
<!-- ods.delivery_number_deleted -->
<g id="node3" class="node">
<title>ods.delivery_number_deleted</title>
<g id="a_node3"><a xlink:href="/table_info/ods/delivery_number_deleted" xlink:title="ods.delivery_number_deleted" target="_blank">
<polygon fill="lightblue" stroke="black" points="350.62,-1461.5 228.12,-1461.5 228.12,-1443 350.62,-1443 350.62,-1461.5"/>
<text text-anchor="middle" x="289.38" y="-1449.9" font-family="Arial" font-size="8.00">ods.delivery_number_deleted</text>
</a>
</g>
</g>
<!-- ods.delivery_number_deleted&#45;&gt;dm_calc.sd_sales_main_scm -->
<g id="edge2" class="edge">
<title>ods.delivery_number_deleted&#45;&gt;dm_calc.sd_sales_main_scm</title>
<path fill="none" stroke="black" d="M328.19,-1442.61C349.84,-1437.09 372.75,-1431.25 372.75,-1431.25 372.75,-1431.25 440.23,-883.99 452.67,-783.13"/>
<polygon fill="black" stroke="black" points="454.38,-783.57 453.25,-778.39 450.9,-783.14 454.38,-783.57"/>
</g>
<!-- ods.sales_orders -->
<g id="node4" class="node">
<title>ods.sales_orders</title>
<g id="a_node4"><a xlink:href="/table_info/ods/sales_orders" xlink:title="ods.sales_orders" target="_blank">
<polygon fill="lightblue" stroke="black" points="329.25,-1420.5 249.5,-1420.5 249.5,-1402 329.25,-1402 329.25,-1420.5"/>
<text text-anchor="middle" x="289.38" y="-1408.9" font-family="Arial" font-size="8.00">ods.sales_orders</text>
</a>
</g>
</g>
<!-- ods.sales_orders&#45;&gt;dm_calc.sd_sales_main_scm -->
<g id="edge3" class="edge">
<title>ods.sales_orders&#45;&gt;dm_calc.sd_sales_main_scm</title>
<path fill="none" stroke="black" d="M328.19,-1401.61C349.84,-1396.09 372.75,-1390.25 372.75,-1390.25 372.75,-1390.25 439.95,-878.88 452.59,-782.73"/>
<polygon fill="black" stroke="black" points="454.29,-783.23 453.21,-778.04 450.82,-782.77 454.29,-783.23"/>
</g>
<!-- dict_dds.transport_route_stage -->
<g id="node5" class="node">
<title>dict_dds.transport_route_stage</title>
<g id="a_node5"><a xlink:href="/table_info/dict_dds/transport_route_stage" xlink:title="dict_dds.transport_route_stage" target="_blank">
<polygon fill="lightyellow" stroke="black" points="354.38,-1379.5 224.38,-1379.5 224.38,-1361 354.38,-1361 354.38,-1379.5"/>
<text text-anchor="middle" x="289.38" y="-1367.9" font-family="Arial" font-size="8.00">dict_dds.transport_route_stage</text>
</a>
</g>
</g>
<!-- dict_dds.transport_route_stage&#45;&gt;dm_calc.sd_sales_main_scm -->
<g id="edge4" class="edge">
<title>dict_dds.transport_route_stage&#45;&gt;dm_calc.sd_sales_main_scm</title>
<path fill="none" stroke="black" d="M328.19,-1360.61C349.84,-1355.09 372.75,-1349.25 372.75,-1349.25 372.75,-1349.25 439.26,-876.49 452.39,-783.15"/>
<polygon fill="black" stroke="black" points="454.1,-783.56 453.06,-778.36 450.63,-783.07 454.1,-783.56"/>
</g>
<!-- ods.sales_delivery -->
<g id="node6" class="node">
<title>ods.sales_delivery</title>
<g id="a_node6"><a xlink:href="/table_info/ods/sales_delivery" xlink:title="ods.sales_delivery" target="_blank">
<polygon fill="lightblue" stroke="black" points="331.5,-1338.5 247.25,-1338.5 247.25,-1320 331.5,-1320 331.5,-1338.5"/>
<text text-anchor="middle" x="289.38" y="-1326.9" font-family="Arial" font-size="8.00">ods.sales_delivery</text>
</a>
</g>
</g>
<!-- ods.sales_delivery&#45;&gt;dm_calc.sd_sales_main_scm -->
<g id="edge5" class="edge">
<title>ods.sales_delivery&#45;&gt;dm_calc.sd_sales_main_scm</title>
<path fill="none" stroke="black" d="M328.19,-1319.61C349.84,-1314.09 372.75,-1308.25 372.75,-1308.25 372.75,-1308.25 438.84,-871.53 452.26,-782.85"/>
<polygon fill="black" stroke="black" points="453.96,-783.34 452.98,-778.14 450.5,-782.82 453.96,-783.34"/>
</g>
<!-- dict_dds.material_specification -->
<g id="node7" class="node">
<title>dict_dds.material_specification</title>
<g id="a_node7"><a xlink:href="/table_info/dict_dds/material_specification" xlink:title="dict_dds.material_specification" target="_blank">
<polygon fill="lightyellow" stroke="black" points="352.88,-1297.5 225.88,-1297.5 225.88,-1279 352.88,-1279 352.88,-1297.5"/>
<text text-anchor="middle" x="289.38" y="-1285.9" font-family="Arial" font-size="8.00">dict_dds.material_specification</text>
</a>
</g>
</g>
<!-- dict_dds.material_specification&#45;&gt;dm_calc.sd_sales_main_scm -->
<g id="edge6" class="edge">
<title>dict_dds.material_specification&#45;&gt;dm_calc.sd_sales_main_scm</title>
<path fill="none" stroke="black" d="M321.05,-1278.57C344.47,-1271.18 372.75,-1262.25 372.75,-1262.25 372.75,-1262.25 438.02,-867.63 452.01,-783.08"/>
<polygon fill="black" stroke="black" points="453.73,-783.41 452.82,-778.19 450.27,-782.84 453.73,-783.41"/>
</g>
<!-- ods.nomination_in_foreign_port -->
<g id="node8" class="node">
<title>ods.nomination_in_foreign_port</title>
<g id="a_node8"><a xlink:href="/table_info/ods/nomination_in_foreign_port" xlink:title="ods.nomination_in_foreign_port" target="_blank">
<polygon fill="lightblue" stroke="black" points="354,-1211.5 224.75,-1211.5 224.75,-1193 354,-1193 354,-1211.5"/>
<text text-anchor="middle" x="289.38" y="-1199.9" font-family="Arial" font-size="8.00">ods.nomination_in_foreign_port</text>
</a>
</g>
</g>
<!-- ods.nomination_in_foreign_port&#45;&gt;dm_calc.sd_sales_main_scm -->
<g id="edge7" class="edge">
<title>ods.nomination_in_foreign_port&#45;&gt;dm_calc.sd_sales_main_scm</title>
<path fill="none" stroke="black" d="M328.19,-1192.61C349.84,-1187.09 372.75,-1181.25 372.75,-1181.25 372.75,-1181.25 436.66,-858.1 451.55,-782.8"/>
<polygon fill="black" stroke="black" points="453.21,-783.4 452.47,-778.16 449.78,-782.73 453.21,-783.4"/>
</g>
<!-- ods.map_zmk_track_exp_keys -->
<g id="node9" class="node">
<title>ods.map_zmk_track_exp_keys</title>
<g id="a_node9"><a xlink:href="/table_info/ods/map_zmk_track_exp_keys" xlink:title="ods.map_zmk_track_exp_keys" target="_blank">
<polygon fill="lightblue" stroke="black" points="353.25,-1084.5 225.5,-1084.5 225.5,-1066 353.25,-1066 353.25,-1084.5"/>
<text text-anchor="middle" x="289.38" y="-1072.9" font-family="Arial" font-size="8.00">ods.map_zmk_track_exp_keys</text>
</a>
</g>
</g>
<!-- ods.map_zmk_track_exp_keys&#45;&gt;dm_calc.sd_sales_main_scm -->
<g id="edge8" class="edge">
<title>ods.map_zmk_track_exp_keys&#45;&gt;dm_calc.sd_sales_main_scm</title>
<path fill="none" stroke="black" d="M328.19,-1065.61C349.84,-1060.09 372.75,-1054.25 372.75,-1054.25 372.75,-1054.25 432.96,-843.18 450.12,-783.06"/>
<polygon fill="black" stroke="black" points="451.8,-783.54 451.49,-778.25 448.43,-782.58 451.8,-783.54"/>
</g>
<!-- dict_dds.transport_vessel_old -->
<g id="node10" class="node">
<title>dict_dds.transport_vessel_old</title>
<g id="a_node10"><a xlink:href="/table_info/dict_dds/transport_vessel_old" xlink:title="dict_dds.transport_vessel_old" target="_blank">
<polygon fill="lightyellow" stroke="black" points="352.12,-1043.5 226.62,-1043.5 226.62,-1025 352.12,-1025 352.12,-1043.5"/>
<text text-anchor="middle" x="289.38" y="-1031.9" font-family="Arial" font-size="8.00">dict_dds.transport_vessel_old</text>
</a>
</g>
</g>
<!-- dict_dds.transport_vessel_old&#45;&gt;dm_calc.sd_sales_main_scm -->
<g id="edge9" class="edge">
<title>dict_dds.transport_vessel_old&#45;&gt;dm_calc.sd_sales_main_scm</title>
<path fill="none" stroke="black" d="M328.19,-1024.61C349.84,-1019.09 372.75,-1013.25 372.75,-1013.25 372.75,-1013.25 431.41,-837 449.43,-782.87"/>
<polygon fill="black" stroke="black" points="451.02,-783.63 450.94,-778.33 447.7,-782.52 451.02,-783.63"/>
</g>
<!-- dict_dds.incoterms -->
<g id="node11" class="node">
<title>dict_dds.incoterms</title>
<g id="a_node11"><a xlink:href="/table_info/dict_dds/incoterms" xlink:title="dict_dds.incoterms" target="_blank">
<polygon fill="lightyellow" stroke="black" points="331.5,-1002.5 247.25,-1002.5 247.25,-984 331.5,-984 331.5,-1002.5"/>
<text text-anchor="middle" x="289.38" y="-990.9" font-family="Arial" font-size="8.00">dict_dds.incoterms</text>
</a>
</g>
</g>
<!-- dict_dds.incoterms&#45;&gt;dm_calc.sd_sales_main_scm -->
<g id="edge10" class="edge">
<title>dict_dds.incoterms&#45;&gt;dm_calc.sd_sales_main_scm</title>
<path fill="none" stroke="black" d="M328.19,-983.61C349.84,-978.09 372.75,-972.25 372.75,-972.25 372.75,-972.25 429.4,-830.41 448.45,-782.7"/>
<polygon fill="black" stroke="black" points="450,-783.56 450.22,-778.27 446.74,-782.26 450,-783.56"/>
</g>
<!-- ods.release_delivery_group -->
<g id="node12" class="node">
<title>ods.release_delivery_group</title>
<g id="a_node12"><a xlink:href="/table_info/ods/release_delivery_group" xlink:title="ods.release_delivery_group" target="_blank">
<polygon fill="lightblue" stroke="black" points="348,-961.5 230.75,-961.5 230.75,-943 348,-943 348,-961.5"/>
<text text-anchor="middle" x="289.38" y="-949.9" font-family="Arial" font-size="8.00">ods.release_delivery_group</text>
</a>
</g>
</g>
<!-- ods.release_delivery_group&#45;&gt;dm_calc.sd_sales_main_scm -->
<g id="edge11" class="edge">
<title>ods.release_delivery_group&#45;&gt;dm_calc.sd_sales_main_scm</title>
<path fill="none" stroke="black" d="M328.19,-942.61C349.84,-937.09 372.75,-931.25 372.75,-931.25 372.75,-931.25 426.96,-822.66 447.16,-782.21"/>
<polygon fill="black" stroke="black" points="448.64,-783.15 449.31,-777.89 445.51,-781.58 448.64,-783.15"/>
</g>
<!-- dict_dds.delivery_split_reason_texts -->
<g id="node13" class="node">
<title>dict_dds.delivery_split_reason_texts</title>
<g id="a_node13"><a xlink:href="/table_info/dict_dds/delivery_split_reason_texts" xlink:title="dict_dds.delivery_split_reason_texts" target="_blank">
<polygon fill="lightyellow" stroke="black" points="363.75,-920.5 215,-920.5 215,-902 363.75,-902 363.75,-920.5"/>
<text text-anchor="middle" x="289.38" y="-908.9" font-family="Arial" font-size="8.00">dict_dds.delivery_split_reason_texts</text>
</a>
</g>
</g>
<!-- dict_dds.delivery_split_reason_texts&#45;&gt;dm_calc.sd_sales_main_scm -->
<g id="edge12" class="edge">
<title>dict_dds.delivery_split_reason_texts&#45;&gt;dm_calc.sd_sales_main_scm</title>
<path fill="none" stroke="black" d="M328.19,-901.61C349.84,-896.09 372.75,-890.25 372.75,-890.25 372.75,-890.25 422.93,-814.87 444.72,-782.13"/>
<polygon fill="black" stroke="black" points="446.05,-783.29 447.36,-778.16 443.13,-781.35 446.05,-783.29"/>
</g>
<!-- dict_dds.plant -->
<g id="node14" class="node">
<title>dict_dds.plant</title>
<g id="a_node14"><a xlink:href="/table_info/dict_dds/plant" xlink:title="dict_dds.plant" target="_blank">
<polygon fill="lightcoral" stroke="black" points="322.5,-879.5 256.25,-879.5 256.25,-861 322.5,-861 322.5,-879.5"/>
<text text-anchor="middle" x="289.38" y="-867.9" font-family="Arial" font-size="8.00">dict_dds.plant</text>
</a>
</g>
</g>
<!-- dict_dds.plant&#45;&gt;dm_calc.sd_sales_main_scm -->
<g id="edge13" class="edge">
<title>dict_dds.plant&#45;&gt;dm_calc.sd_sales_main_scm</title>
<path fill="none" stroke="black" d="M322.93,-861.95C345.96,-856.08 372.75,-849.25 372.75,-849.25 372.75,-849.25 417.11,-804.82 440.53,-781.37"/>
<polygon fill="black" stroke="black" points="441.55,-782.82 443.84,-778.05 439.07,-780.35 441.55,-782.82"/>
</g>
<!-- dict_dds.material_shape_texts -->
<g id="node15" class="node">
<title>dict_dds.material_shape_texts</title>
<g id="a_node15"><a xlink:href="/table_info/dict_dds/material_shape_texts" xlink:title="dict_dds.material_shape_texts" target="_blank">
<polygon fill="lightyellow" stroke="black" points="352.5,-838.5 226.25,-838.5 226.25,-820 352.5,-820 352.5,-838.5"/>
<text text-anchor="middle" x="289.38" y="-826.9" font-family="Arial" font-size="8.00">dict_dds.material_shape_texts</text>
</a>
</g>
</g>
<!-- dict_dds.material_shape_texts&#45;&gt;dm_calc.sd_sales_main_scm -->
<g id="edge14" class="edge">
<title>dict_dds.material_shape_texts&#45;&gt;dm_calc.sd_sales_main_scm</title>
<path fill="none" stroke="black" d="M328.19,-819.61C349.84,-814.09 372.75,-808.25 372.75,-808.25 372.75,-808.25 405.54,-791.83 429.62,-779.77"/>
<polygon fill="black" stroke="black" points="430.18,-781.45 433.87,-777.64 428.61,-778.32 430.18,-781.45"/>
</g>
<!-- dict_dds.transport_shipment_type -->
<g id="node16" class="node">
<title>dict_dds.transport_shipment_type</title>
<g id="a_node16"><a xlink:href="/table_info/dict_dds/transport_shipment_type" xlink:title="dict_dds.transport_shipment_type" target="_blank">
<polygon fill="lightyellow" stroke="black" points="358.88,-797.5 219.88,-797.5 219.88,-779 358.88,-779 358.88,-797.5"/>
<text text-anchor="middle" x="289.38" y="-785.9" font-family="Arial" font-size="8.00">dict_dds.transport_shipment_type</text>
</a>
</g>
</g>
<!-- dict_dds.transport_shipment_type&#45;&gt;dm_calc.sd_sales_main_scm -->
<g id="edge15" class="edge">
<title>dict_dds.transport_shipment_type&#45;&gt;dm_calc.sd_sales_main_scm</title>
<path fill="none" stroke="black" d="M359.08,-779.47C368.67,-778.24 378.51,-776.98 388.06,-775.76"/>
<polygon fill="black" stroke="black" points="388.05,-777.53 392.79,-775.16 387.61,-774.05 388.05,-777.53"/>
</g>
<!-- dict_dds.material_texts -->
<g id="node17" class="node">
<title>dict_dds.material_texts</title>
<g id="a_node17"><a xlink:href="/table_info/dict_dds/material_texts" xlink:title="dict_dds.material_texts" target="_blank">
<polygon fill="lightyellow" stroke="black" points="339,-756.5 239.75,-756.5 239.75,-738 339,-738 339,-756.5"/>
<text text-anchor="middle" x="289.38" y="-744.9" font-family="Arial" font-size="8.00">dict_dds.material_texts</text>
</a>
</g>
</g>
<!-- dict_dds.material_texts&#45;&gt;dm_calc.sd_sales_main_scm -->
<g id="edge16" class="edge">
<title>dict_dds.material_texts&#45;&gt;dm_calc.sd_sales_main_scm</title>
<path fill="none" stroke="black" d="M339.21,-753.2C354.49,-755.06 371.62,-757.14 387.9,-759.13"/>
<polygon fill="black" stroke="black" points="387.66,-760.86 392.84,-759.73 388.09,-757.38 387.66,-760.86"/>
</g>
<!-- dict_dds.plant_and_subsidiary -->
<g id="node18" class="node">
<title>dict_dds.plant_and_subsidiary</title>
<g id="a_node18"><a xlink:href="/table_info/dict_dds/plant_and_subsidiary" xlink:title="dict_dds.plant_and_subsidiary" target="_blank">
<polygon fill="lightyellow" stroke="black" points="352.5,-715.5 226.25,-715.5 226.25,-697 352.5,-697 352.5,-715.5"/>
<text text-anchor="middle" x="289.38" y="-703.9" font-family="Arial" font-size="8.00">dict_dds.plant_and_subsidiary</text>
</a>
</g>
</g>
<!-- dict_dds.plant_and_subsidiary&#45;&gt;dm_calc.sd_sales_main_scm -->
<g id="edge17" class="edge">
<title>dict_dds.plant_and_subsidiary&#45;&gt;dm_calc.sd_sales_main_scm</title>
<path fill="none" stroke="black" d="M328.19,-715.89C349.84,-721.41 372.75,-727.25 372.75,-727.25 372.75,-727.25 405.17,-743.09 429.21,-754.83"/>
<polygon fill="black" stroke="black" points="428.18,-756.28 433.45,-756.9 429.72,-753.14 428.18,-756.28"/>
</g>
<!-- dict_dds.sb_market -->
<g id="node19" class="node">
<title>dict_dds.sb_market</title>
<g id="a_node19"><a xlink:href="/table_info/dict_dds/sb_market" xlink:title="dict_dds.sb_market" target="_blank">
<polygon fill="lightcoral" stroke="black" points="332.62,-674.5 246.12,-674.5 246.12,-656 332.62,-656 332.62,-674.5"/>
<text text-anchor="middle" x="289.38" y="-662.9" font-family="Arial" font-size="8.00">dict_dds.sb_market</text>
</a>
</g>
</g>
<!-- dict_dds.sb_market&#45;&gt;dm_calc.sd_sales_main_scm -->
<g id="edge18" class="edge">
<title>dict_dds.sb_market&#45;&gt;dm_calc.sd_sales_main_scm</title>
<path fill="none" stroke="black" d="M328.19,-674.89C349.84,-680.41 372.75,-686.25 372.75,-686.25 372.75,-686.25 417.11,-730.14 440.53,-753.3"/>
<polygon fill="black" stroke="black" points="439.05,-754.3 443.84,-756.58 441.51,-751.82 439.05,-754.3"/>
</g>
<!-- dict_dds.specification -->
<g id="node20" class="node">
<title>dict_dds.specification</title>
<g id="a_node20"><a xlink:href="/table_info/dict_dds/specification" xlink:title="dict_dds.specification" target="_blank">
<polygon fill="lightyellow" stroke="black" points="336.75,-633.5 242,-633.5 242,-615 336.75,-615 336.75,-633.5"/>
<text text-anchor="middle" x="289.38" y="-621.9" font-family="Arial" font-size="8.00">dict_dds.specification</text>
</a>
</g>
</g>
<!-- dict_dds.specification&#45;&gt;dm_calc.sd_sales_main_scm -->
<g id="edge19" class="edge">
<title>dict_dds.specification&#45;&gt;dm_calc.sd_sales_main_scm</title>
<path fill="none" stroke="black" d="M328.19,-633.89C349.84,-639.41 372.75,-645.25 372.75,-645.25 372.75,-645.25 422.93,-720.02 444.72,-752.49"/>
<polygon fill="black" stroke="black" points="443.12,-753.24 447.36,-756.42 446.02,-751.29 443.12,-753.24"/>
</g>
<!-- dict_dds.counterparty -->
<g id="node21" class="node">
<title>dict_dds.counterparty</title>
<g id="a_node21"><a xlink:href="/table_info/dict_dds/counterparty" xlink:title="dict_dds.counterparty" target="_blank">
<polygon fill="lightyellow" stroke="black" points="337.12,-592.5 241.62,-592.5 241.62,-574 337.12,-574 337.12,-592.5"/>
<text text-anchor="middle" x="289.38" y="-580.9" font-family="Arial" font-size="8.00">dict_dds.counterparty</text>
</a>
</g>
</g>
<!-- dict_dds.counterparty&#45;&gt;dm_calc.sd_sales_main_scm -->
<g id="edge20" class="edge">
<title>dict_dds.counterparty&#45;&gt;dm_calc.sd_sales_main_scm</title>
<path fill="none" stroke="black" d="M328.19,-592.89C349.84,-598.41 372.75,-604.25 372.75,-604.25 372.75,-604.25 426.47,-711.19 446.88,-751.83"/>
<polygon fill="black" stroke="black" points="445.26,-752.51 449.07,-756.19 448.39,-750.94 445.26,-752.51"/>
</g>
<!-- dict_dds.sales_order_market -->
<g id="node22" class="node">
<title>dict_dds.sales_order_market</title>
<g id="a_node22"><a xlink:href="/table_info/dict_dds/sales_order_market" xlink:title="dict_dds.sales_order_market" target="_blank">
<polygon fill="lightyellow" stroke="black" points="349.88,-551.5 228.88,-551.5 228.88,-533 349.88,-533 349.88,-551.5"/>
<text text-anchor="middle" x="289.38" y="-539.9" font-family="Arial" font-size="8.00">dict_dds.sales_order_market</text>
</a>
</g>
</g>
<!-- dict_dds.sales_order_market&#45;&gt;dm_calc.sd_sales_main_scm -->
<g id="edge21" class="edge">
<title>dict_dds.sales_order_market&#45;&gt;dm_calc.sd_sales_main_scm</title>
<path fill="none" stroke="black" d="M328.19,-551.89C349.84,-557.41 372.75,-563.25 372.75,-563.25 372.75,-563.25 429.4,-704.39 448.45,-751.88"/>
<polygon fill="black" stroke="black" points="446.74,-752.29 450.22,-756.28 449.98,-750.99 446.74,-752.29"/>
</g>
<!-- ods.bill_of_lading_in_russian_port -->
<g id="node23" class="node">
<title>ods.bill_of_lading_in_russian_port</title>
<g id="a_node23"><a xlink:href="/table_info/ods/bill_of_lading_in_russian_port" xlink:title="ods.bill_of_lading_in_russian_port" target="_blank">
<polygon fill="lightblue" stroke="black" points="358.88,-510.5 219.88,-510.5 219.88,-492 358.88,-492 358.88,-510.5"/>
<text text-anchor="middle" x="289.38" y="-498.9" font-family="Arial" font-size="8.00">ods.bill_of_lading_in_russian_port</text>
</a>
</g>
</g>
<!-- ods.bill_of_lading_in_russian_port&#45;&gt;dm_calc.sd_sales_main_scm -->
<g id="edge22" class="edge">
<title>ods.bill_of_lading_in_russian_port&#45;&gt;dm_calc.sd_sales_main_scm</title>
<path fill="none" stroke="black" d="M328.19,-510.89C349.84,-516.41 372.75,-522.25 372.75,-522.25 372.75,-522.25 431.41,-697.79 449.43,-751.69"/>
<polygon fill="black" stroke="black" points="447.69,-752.02 450.94,-756.21 451.01,-750.91 447.69,-752.02"/>
</g>
<!-- ods.delivery_lot -->
<g id="node24" class="node">
<title>ods.delivery_lot</title>
<g id="a_node24"><a xlink:href="/table_info/ods/delivery_lot" xlink:title="ods.delivery_lot" target="_blank">
<polygon fill="lightblue" stroke="black" points="325.88,-469.5 252.88,-469.5 252.88,-451 325.88,-451 325.88,-469.5"/>
<text text-anchor="middle" x="289.38" y="-457.9" font-family="Arial" font-size="8.00">ods.delivery_lot</text>
</a>
</g>
</g>
<!-- ods.delivery_lot&#45;&gt;dm_calc.sd_sales_main_scm -->
<g id="edge23" class="edge">
<title>ods.delivery_lot&#45;&gt;dm_calc.sd_sales_main_scm</title>
<path fill="none" stroke="black" d="M326.27,-469.4C348.46,-475.06 372.75,-481.25 372.75,-481.25 372.75,-481.25 432.96,-691.58 450.12,-751.5"/>
<polygon fill="black" stroke="black" points="448.43,-751.95 451.48,-756.28 451.79,-750.99 448.43,-751.95"/>
</g>
<!-- ods.nomination_in_russian_port -->
<g id="node25" class="node">
<title>ods.nomination_in_russian_port</title>
<g id="a_node25"><a xlink:href="/table_info/ods/nomination_in_russian_port" xlink:title="ods.nomination_in_russian_port" target="_blank">
<polygon fill="lightblue" stroke="black" points="354.75,-1170.5 224,-1170.5 224,-1152 354.75,-1152 354.75,-1170.5"/>
<text text-anchor="middle" x="289.38" y="-1158.9" font-family="Arial" font-size="8.00">ods.nomination_in_russian_port</text>
</a>
</g>
</g>
<!-- ods.nomination_in_russian_port&#45;&gt;dm_calc.sd_sales_main_scm -->
<g id="edge24" class="edge">
<title>ods.nomination_in_russian_port&#45;&gt;dm_calc.sd_sales_main_scm</title>
<path fill="none" stroke="black" d="M321.05,-1151.57C344.47,-1144.18 372.75,-1135.25 372.75,-1135.25 372.75,-1135.25 435.58,-852.83 451.16,-782.81"/>
<polygon fill="black" stroke="black" points="452.81,-783.45 452.19,-778.19 449.4,-782.69 452.81,-783.45"/>
</g>
<!-- dict_dds.warehouse -->
<g id="node26" class="node">
<title>dict_dds.warehouse</title>
<g id="a_node26"><a xlink:href="/table_info/dict_dds/warehouse" xlink:title="dict_dds.warehouse" target="_blank">
<polygon fill="lightyellow" stroke="black" points="334.88,-428.5 243.88,-428.5 243.88,-410 334.88,-410 334.88,-428.5"/>
<text text-anchor="middle" x="289.38" y="-416.9" font-family="Arial" font-size="8.00">dict_dds.warehouse</text>
</a>
</g>
</g>
<!-- dict_dds.warehouse&#45;&gt;dm_calc.sd_sales_main_scm -->
<g id="edge25" class="edge">
<title>dict_dds.warehouse&#45;&gt;dm_calc.sd_sales_main_scm</title>
<path fill="none" stroke="black" d="M328.19,-428.89C349.84,-434.41 372.75,-440.25 372.75,-440.25 372.75,-440.25 434.52,-686.96 450.76,-751.8"/>
<polygon fill="black" stroke="black" points="448.98,-751.92 451.9,-756.35 452.38,-751.07 448.98,-751.92"/>
</g>
<!-- dict_dds.incoterms_location -->
<g id="node27" class="node">
<title>dict_dds.incoterms_location</title>
<g id="a_node27"><a xlink:href="/table_info/dict_dds/incoterms_location" xlink:title="dict_dds.incoterms_location" target="_blank">
<polygon fill="lightyellow" stroke="black" points="347.62,-387.5 231.12,-387.5 231.12,-369 347.62,-369 347.62,-387.5"/>
<text text-anchor="middle" x="289.38" y="-375.9" font-family="Arial" font-size="8.00">dict_dds.incoterms_location</text>
</a>
</g>
</g>
<!-- dict_dds.incoterms_location&#45;&gt;dm_calc.sd_sales_main_scm -->
<g id="edge26" class="edge">
<title>dict_dds.incoterms_location&#45;&gt;dm_calc.sd_sales_main_scm</title>
<path fill="none" stroke="black" d="M328.19,-387.89C349.84,-393.41 372.75,-399.25 372.75,-399.25 372.75,-399.25 435.58,-681.67 451.16,-751.69"/>
<polygon fill="black" stroke="black" points="449.4,-751.81 452.19,-756.31 452.81,-751.05 449.4,-751.81"/>
</g>
<!-- dict_dds.transport_hub_texts -->
<g id="node28" class="node">
<title>dict_dds.transport_hub_texts</title>
<g id="a_node28"><a xlink:href="/table_info/dict_dds/transport_hub_texts" xlink:title="dict_dds.transport_hub_texts" target="_blank">
<polygon fill="lightyellow" stroke="black" points="350.62,-346.5 228.12,-346.5 228.12,-328 350.62,-328 350.62,-346.5"/>
<text text-anchor="middle" x="289.38" y="-334.9" font-family="Arial" font-size="8.00">dict_dds.transport_hub_texts</text>
</a>
</g>
</g>
<!-- dict_dds.transport_hub_texts&#45;&gt;dm_calc.sd_sales_main_scm -->
<g id="edge27" class="edge">
<title>dict_dds.transport_hub_texts&#45;&gt;dm_calc.sd_sales_main_scm</title>
<path fill="none" stroke="black" d="M328.19,-346.89C349.84,-352.41 372.75,-358.25 372.75,-358.25 372.75,-358.25 436.38,-676.13 451.45,-751.41"/>
<polygon fill="black" stroke="black" points="449.69,-751.5 452.38,-756.06 453.12,-750.81 449.69,-751.5"/>
</g>
<!-- dict_dds.transport_transfer_type_texts -->
<g id="node29" class="node">
<title>dict_dds.transport_transfer_type_texts</title>
<g id="a_node29"><a xlink:href="/table_info/dict_dds/transport_transfer_type_texts" xlink:title="dict_dds.transport_transfer_type_texts" target="_blank">
<polygon fill="lightyellow" stroke="black" points="368.62,-305.5 210.12,-305.5 210.12,-287 368.62,-287 368.62,-305.5"/>
<text text-anchor="middle" x="289.38" y="-293.9" font-family="Arial" font-size="8.00">dict_dds.transport_transfer_type_texts</text>
</a>
</g>
</g>
<!-- dict_dds.transport_transfer_type_texts&#45;&gt;dm_calc.sd_sales_main_scm -->
<g id="edge28" class="edge">
<title>dict_dds.transport_transfer_type_texts&#45;&gt;dm_calc.sd_sales_main_scm</title>
<path fill="none" stroke="black" d="M328.19,-305.89C349.84,-311.41 372.75,-317.25 372.75,-317.25 372.75,-317.25 437.47,-672.95 451.83,-751.87"/>
<polygon fill="black" stroke="black" points="450.03,-751.76 452.64,-756.36 453.47,-751.13 450.03,-751.76"/>
</g>
<!-- dict_dds.transport_hub -->
<g id="node30" class="node">
<title>dict_dds.transport_hub</title>
<g id="a_node30"><a xlink:href="/table_info/dict_dds/transport_hub" xlink:title="dict_dds.transport_hub" target="_blank">
<polygon fill="lightyellow" stroke="black" points="142,-1231.5 42,-1231.5 42,-1213 142,-1213 142,-1231.5"/>
<text text-anchor="middle" x="92" y="-1219.9" font-family="Arial" font-size="8.00">dict_dds.transport_hub</text>
</a>
</g>
</g>
<!-- dict_dds.transport_hub&#45;&gt;dm_calc.sd_sales_main_scm -->
<g id="edge29" class="edge">
<title>dict_dds.transport_hub&#45;&gt;dm_calc.sd_sales_main_scm</title>
<path fill="none" stroke="black" d="M142.37,-1222.25C222.68,-1222.25 372.75,-1222.25 372.75,-1222.25 372.75,-1222.25 437.47,-862.6 451.83,-782.81"/>
<polygon fill="black" stroke="black" points="453.48,-783.47 452.65,-778.24 450.04,-782.85 453.48,-783.47"/>
</g>
<!-- dict_dds.transport_hub&#45;&gt;ods.nomination_in_foreign_port -->
<g id="edge53" class="edge">
<title>dict_dds.transport_hub&#45;&gt;ods.nomination_in_foreign_port</title>
<path fill="none" stroke="black" d="M142.3,-1217.2C165.23,-1214.86 192.91,-1212.02 217.99,-1209.46"/>
<polygon fill="black" stroke="black" points="218,-1211.21 222.79,-1208.96 217.64,-1207.73 218,-1211.21"/>
</g>
<!-- dict_dds.transport_hub&#45;&gt;ods.nomination_in_russian_port -->
<g id="edge51" class="edge">
<title>dict_dds.transport_hub&#45;&gt;ods.nomination_in_russian_port</title>
<path fill="none" stroke="black" d="M135.04,-1212.55C158.88,-1207.05 184,-1201.25 184,-1201.25 184,-1201.25 206,-1182.25 206,-1182.25 206,-1182.25 224.81,-1177.45 244.46,-1172.45"/>
<polygon fill="black" stroke="black" points="244.68,-1174.19 249.1,-1171.26 243.82,-1170.8 244.68,-1174.19"/>
</g>
<!-- dict_dds.sales_market_in_shipment_texts -->
<g id="node31" class="node">
<title>dict_dds.sales_market_in_shipment_texts</title>
<g id="a_node31"><a xlink:href="/table_info/dict_dds/sales_market_in_shipment_texts" xlink:title="dict_dds.sales_market_in_shipment_texts" target="_blank">
<polygon fill="lightyellow" stroke="black" points="372.75,-264.5 206,-264.5 206,-246 372.75,-246 372.75,-264.5"/>
<text text-anchor="middle" x="289.38" y="-252.9" font-family="Arial" font-size="8.00">dict_dds.sales_market_in_shipment_texts</text>
</a>
</g>
</g>
<!-- dict_dds.sales_market_in_shipment_texts&#45;&gt;dm_calc.sd_sales_main_scm -->
<g id="edge30" class="edge">
<title>dict_dds.sales_market_in_shipment_texts&#45;&gt;dm_calc.sd_sales_main_scm</title>
<path fill="none" stroke="black" d="M328.19,-264.89C349.84,-270.41 372.75,-276.25 372.75,-276.25 372.75,-276.25 438.02,-667.68 452.01,-751.55"/>
<polygon fill="black" stroke="black" points="450.26,-751.74 452.81,-756.39 453.72,-751.17 450.26,-751.74"/>
</g>
<!-- dict_dds.material -->
<g id="node32" class="node">
<title>dict_dds.material</title>
<g id="a_node32"><a xlink:href="/table_info/dict_dds/material" xlink:title="dict_dds.material" target="_blank">
<polygon fill="lightyellow" stroke="black" points="327.75,-223.5 251,-223.5 251,-205 327.75,-205 327.75,-223.5"/>
<text text-anchor="middle" x="289.38" y="-211.9" font-family="Arial" font-size="8.00">dict_dds.material</text>
</a>
</g>
</g>
<!-- dict_dds.material&#45;&gt;dm_calc.sd_sales_main_scm -->
<g id="edge31" class="edge">
<title>dict_dds.material&#45;&gt;dm_calc.sd_sales_main_scm</title>
<path fill="none" stroke="black" d="M328.19,-223.89C349.84,-229.41 372.75,-235.25 372.75,-235.25 372.75,-235.25 438.56,-662.89 452.18,-751.35"/>
<polygon fill="black" stroke="black" points="450.41,-751.39 452.9,-756.07 453.87,-750.86 450.41,-751.39"/>
</g>
<!-- ods.sales_batch_delivery -->
<g id="node33" class="node">
<title>ods.sales_batch_delivery</title>
<g id="a_node33"><a xlink:href="/table_info/ods/sales_batch_delivery" xlink:title="ods.sales_batch_delivery" target="_blank">
<polygon fill="lightblue" stroke="black" points="343.88,-182.5 234.88,-182.5 234.88,-164 343.88,-164 343.88,-182.5"/>
<text text-anchor="middle" x="289.38" y="-170.9" font-family="Arial" font-size="8.00">ods.sales_batch_delivery</text>
</a>
</g>
</g>
<!-- ods.sales_batch_delivery&#45;&gt;dm_calc.sd_sales_main_scm -->
<g id="edge32" class="edge">
<title>ods.sales_batch_delivery&#45;&gt;dm_calc.sd_sales_main_scm</title>
<path fill="none" stroke="black" d="M328.19,-182.89C349.84,-188.41 372.75,-194.25 372.75,-194.25 372.75,-194.25 439.26,-659.69 452.39,-751.6"/>
<polygon fill="black" stroke="black" points="450.62,-751.58 453.06,-756.28 454.08,-751.09 450.62,-751.58"/>
</g>
<!-- dict_dds.location_sales -->
<g id="node34" class="node">
<title>dict_dds.location_sales</title>
<g id="a_node34"><a xlink:href="/table_info/dict_dds/location_sales" xlink:title="dict_dds.location_sales" target="_blank">
<polygon fill="lightyellow" stroke="black" points="339.75,-141.5 239,-141.5 239,-123 339.75,-123 339.75,-141.5"/>
<text text-anchor="middle" x="289.38" y="-129.9" font-family="Arial" font-size="8.00">dict_dds.location_sales</text>
</a>
</g>
</g>
<!-- dict_dds.location_sales&#45;&gt;dm_calc.sd_sales_main_scm -->
<g id="edge33" class="edge">
<title>dict_dds.location_sales&#45;&gt;dm_calc.sd_sales_main_scm</title>
<path fill="none" stroke="black" d="M328.19,-141.89C349.84,-147.41 372.75,-153.25 372.75,-153.25 372.75,-153.25 439.67,-655.11 452.51,-751.39"/>
<polygon fill="black" stroke="black" points="450.74,-751.38 453.14,-756.11 454.21,-750.92 450.74,-751.38"/>
</g>
<!-- ods.sales_contract -->
<g id="node35" class="node">
<title>ods.sales_contract</title>
<g id="a_node35"><a xlink:href="/table_info/ods/sales_contract" xlink:title="ods.sales_contract" target="_blank">
<polygon fill="lightblue" stroke="black" points="332.25,-100.5 246.5,-100.5 246.5,-82 332.25,-82 332.25,-100.5"/>
<text text-anchor="middle" x="289.38" y="-88.9" font-family="Arial" font-size="8.00">ods.sales_contract</text>
</a>
</g>
</g>
<!-- ods.sales_contract&#45;&gt;dm_calc.sd_sales_main_scm -->
<g id="edge34" class="edge">
<title>ods.sales_contract&#45;&gt;dm_calc.sd_sales_main_scm</title>
<path fill="none" stroke="black" d="M328.19,-100.89C349.84,-106.41 372.75,-112.25 372.75,-112.25 372.75,-112.25 440.1,-651.02 452.63,-751.29"/>
<polygon fill="black" stroke="black" points="450.89,-751.49 453.25,-756.24 454.36,-751.06 450.89,-751.49"/>
</g>
<!-- ods.delivery_notice -->
<g id="node36" class="node">
<title>ods.delivery_notice</title>
<g id="a_node36"><a xlink:href="/table_info/ods/delivery_notice" xlink:title="ods.delivery_notice" target="_blank">
<polygon fill="lightblue" stroke="black" points="332.62,-59.5 246.12,-59.5 246.12,-41 332.62,-41 332.62,-59.5"/>
<text text-anchor="middle" x="289.38" y="-47.9" font-family="Arial" font-size="8.00">ods.delivery_notice</text>
</a>
</g>
</g>
<!-- ods.delivery_notice&#45;&gt;dm_calc.sd_sales_main_scm -->
<g id="edge35" class="edge">
<title>ods.delivery_notice&#45;&gt;dm_calc.sd_sales_main_scm</title>
<path fill="none" stroke="black" d="M328.19,-59.89C349.84,-65.41 372.75,-71.25 372.75,-71.25 372.75,-71.25 440.52,-647.3 452.75,-751.27"/>
<polygon fill="black" stroke="black" points="451,-751.41 453.32,-756.17 454.48,-751 451,-751.41"/>
</g>
<!-- dict_dds.transport_route -->
<g id="node37" class="node">
<title>dict_dds.transport_route</title>
<g id="a_node37"><a xlink:href="/table_info/dict_dds/transport_route" xlink:title="dict_dds.transport_route" target="_blank">
<polygon fill="lightyellow" stroke="black" points="144.62,-1149.5 39.38,-1149.5 39.38,-1131 144.62,-1131 144.62,-1149.5"/>
<text text-anchor="middle" x="92" y="-1137.9" font-family="Arial" font-size="8.00">dict_dds.transport_route</text>
</a>
</g>
</g>
<!-- dict_dds.transport_route&#45;&gt;dm_calc.sd_sales_main_scm -->
<g id="edge36" class="edge">
<title>dict_dds.transport_route&#45;&gt;dm_calc.sd_sales_main_scm</title>
<path fill="none" stroke="black" d="M144.96,-1131.89C225.86,-1118.88 372.75,-1095.25 372.75,-1095.25 372.75,-1095.25 434.52,-847.78 450.76,-782.75"/>
<polygon fill="black" stroke="black" points="452.38,-783.46 451.9,-778.18 448.99,-782.61 452.38,-783.46"/>
</g>
<!-- dict_dds.transport_route&#45;&gt;ods.nomination_in_foreign_port -->
<g id="edge48" class="edge">
<title>dict_dds.transport_route&#45;&gt;ods.nomination_in_foreign_port</title>
<path fill="none" stroke="black" d="M135.04,-1149.95C158.88,-1155.45 184,-1161.25 184,-1161.25 184,-1161.25 206,-1181.25 206,-1181.25 206,-1181.25 224.81,-1186.05 244.46,-1191.05"/>
<polygon fill="black" stroke="black" points="243.82,-1192.7 249.1,-1192.24 244.68,-1189.31 243.82,-1192.7"/>
</g>
<!-- dict_dds.transport_route&#45;&gt;ods.nomination_in_russian_port -->
<g id="edge49" class="edge">
<title>dict_dds.transport_route&#45;&gt;ods.nomination_in_russian_port</title>
<path fill="none" stroke="black" d="M145.1,-1145.85C167.31,-1148.24 193.56,-1151.06 217.5,-1153.63"/>
<polygon fill="black" stroke="black" points="217.19,-1155.36 222.35,-1154.15 217.56,-1151.88 217.19,-1155.36"/>
</g>
<!-- ods.initial_delivery -->
<g id="node38" class="node">
<title>ods.initial_delivery</title>
<g id="a_node38"><a xlink:href="/table_info/ods/initial_delivery" xlink:title="ods.initial_delivery" target="_blank">
<polygon fill="lightblue" stroke="black" points="330.38,-18.5 248.38,-18.5 248.38,0 330.38,0 330.38,-18.5"/>
<text text-anchor="middle" x="289.38" y="-6.9" font-family="Arial" font-size="8.00">ods.initial_delivery</text>
</a>
</g>
</g>
<!-- ods.initial_delivery&#45;&gt;dm_calc.sd_sales_main_scm -->
<g id="edge37" class="edge">
<title>ods.initial_delivery&#45;&gt;dm_calc.sd_sales_main_scm</title>
<path fill="none" stroke="black" d="M328.19,-18.89C349.84,-24.41 372.75,-30.25 372.75,-30.25 372.75,-30.25 440.94,-644.03 452.86,-751.34"/>
<polygon fill="black" stroke="black" points="451.1,-751.38 453.39,-756.16 454.58,-751 451.1,-751.38"/>
</g>
<!-- ods.plant_delivery -->
<g id="node39" class="node">
<title>ods.plant_delivery</title>
<g id="a_node39"><a xlink:href="/table_info/ods/plant_delivery" xlink:title="ods.plant_delivery" target="_blank">
<polygon fill="lightblue" stroke="black" points="330.38,-1543.5 248.38,-1543.5 248.38,-1525 330.38,-1525 330.38,-1543.5"/>
<text text-anchor="middle" x="289.38" y="-1531.9" font-family="Arial" font-size="8.00">ods.plant_delivery</text>
</a>
</g>
</g>
<!-- ods.plant_delivery&#45;&gt;dm_calc.sd_sales_main_scm -->
<g id="edge38" class="edge">
<title>ods.plant_delivery&#45;&gt;dm_calc.sd_sales_main_scm</title>
<path fill="none" stroke="black" d="M328.19,-1524.61C349.84,-1519.09 372.75,-1513.25 372.75,-1513.25 372.75,-1513.25 440.94,-891.98 452.86,-783.36"/>
<polygon fill="black" stroke="black" points="454.59,-783.62 453.39,-778.46 451.11,-783.24 454.59,-783.62"/>
</g>
<!-- ods.bill_of_lading_in_foreign_port -->
<g id="node40" class="node">
<title>ods.bill_of_lading_in_foreign_port</title>
<g id="a_node40"><a xlink:href="/table_info/ods/bill_of_lading_in_foreign_port" xlink:title="ods.bill_of_lading_in_foreign_port" target="_blank">
<polygon fill="lightblue" stroke="black" points="358.12,-1502.5 220.62,-1502.5 220.62,-1484 358.12,-1484 358.12,-1502.5"/>
<text text-anchor="middle" x="289.38" y="-1490.9" font-family="Arial" font-size="8.00">ods.bill_of_lading_in_foreign_port</text>
</a>
</g>
</g>
<!-- ods.bill_of_lading_in_foreign_port&#45;&gt;dm_calc.sd_sales_main_scm -->
<g id="edge39" class="edge">
<title>ods.bill_of_lading_in_foreign_port&#45;&gt;dm_calc.sd_sales_main_scm</title>
<path fill="none" stroke="black" d="M328.19,-1483.61C349.84,-1478.09 372.75,-1472.25 372.75,-1472.25 372.75,-1472.25 440.65,-887.58 452.78,-783.12"/>
<polygon fill="black" stroke="black" points="454.49,-783.62 453.32,-778.45 451.01,-783.22 454.49,-783.62"/>
</g>
<!-- ods.consign_foreign_port_of_delivery_grp_sd -->
<g id="node41" class="node">
<title>ods.consign_foreign_port_of_delivery_grp_sd</title>
<g id="a_node41"><a xlink:href="/table_info/ods/consign_foreign_port_of_delivery_grp_sd" xlink:title="ods.consign_foreign_port_of_delivery_grp_sd" target="_blank">
<polygon fill="lightblue" stroke="black" points="184,-1502.5 0,-1502.5 0,-1484 184,-1484 184,-1502.5"/>
<text text-anchor="middle" x="92" y="-1490.9" font-family="Arial" font-size="8.00">ods.consign_foreign_port_of_delivery_grp_sd</text>
</a>
</g>
</g>
<!-- ods.consign_foreign_port_of_delivery_grp_sd&#45;&gt;ods.bill_of_lading_in_foreign_port -->
<g id="edge40" class="edge">
<title>ods.consign_foreign_port_of_delivery_grp_sd&#45;&gt;ods.bill_of_lading_in_foreign_port</title>
<path fill="none" stroke="black" d="M184.4,-1493.25C194.33,-1493.25 204.36,-1493.25 214.06,-1493.25"/>
<polygon fill="black" stroke="black" points="213.87,-1495 218.87,-1493.25 213.87,-1491.5 213.87,-1495"/>
</g>
<!-- ods.sales_delivery_of_delivery_sd -->
<g id="node42" class="node">
<title>ods.sales_delivery_of_delivery_sd</title>
<g id="a_node42"><a xlink:href="/table_info/ods/sales_delivery_of_delivery_sd" xlink:title="ods.sales_delivery_of_delivery_sd" target="_blank">
<polygon fill="lightblue" stroke="black" points="163.38,-1338.5 20.62,-1338.5 20.62,-1320 163.38,-1320 163.38,-1338.5"/>
<text text-anchor="middle" x="92" y="-1326.9" font-family="Arial" font-size="8.00">ods.sales_delivery_of_delivery_sd</text>
</a>
</g>
</g>
<!-- ods.sales_delivery_of_delivery_sd&#45;&gt;ods.sales_delivery -->
<g id="edge41" class="edge">
<title>ods.sales_delivery_of_delivery_sd&#45;&gt;ods.sales_delivery</title>
<path fill="none" stroke="black" d="M163.81,-1329.25C189.27,-1329.25 217.36,-1329.25 240.41,-1329.25"/>
<polygon fill="black" stroke="black" points="240.26,-1331 245.26,-1329.25 240.26,-1327.5 240.26,-1331"/>
</g>
<!-- dict_dds.address -->
<g id="node43" class="node">
<title>dict_dds.address</title>
<g id="a_node43"><a xlink:href="/table_info/dict_dds/address" xlink:title="dict_dds.address" target="_blank">
<polygon fill="lightyellow" stroke="black" points="131.5,-1190.5 52.5,-1190.5 52.5,-1172 131.5,-1172 131.5,-1190.5"/>
<text text-anchor="middle" x="92" y="-1178.9" font-family="Arial" font-size="8.00">dict_dds.address</text>
</a>
</g>
</g>
<!-- dict_dds.address&#45;&gt;ods.nomination_in_foreign_port -->
<g id="edge47" class="edge">
<title>dict_dds.address&#45;&gt;ods.nomination_in_foreign_port</title>
<path fill="none" stroke="black" d="M131.6,-1185.4C156.31,-1188.05 189.1,-1191.58 218.3,-1194.72"/>
<polygon fill="black" stroke="black" points="217.81,-1196.43 222.97,-1195.22 218.18,-1192.95 217.81,-1196.43"/>
</g>
<!-- dict_dds.address&#45;&gt;ods.nomination_in_russian_port -->
<g id="edge42" class="edge">
<title>dict_dds.address&#45;&gt;ods.nomination_in_russian_port</title>
<path fill="none" stroke="black" d="M131.6,-1177.3C156.1,-1174.79 188.55,-1171.47 217.56,-1168.5"/>
<polygon fill="black" stroke="black" points="217.4,-1170.27 222.19,-1168.02 217.04,-1166.79 217.4,-1170.27"/>
</g>
<!-- ods.delivery_notice_of_delivery_grp_sd -->
<g id="node44" class="node">
<title>ods.delivery_notice_of_delivery_grp_sd</title>
<g id="a_node44"><a xlink:href="/table_info/ods/delivery_notice_of_delivery_grp_sd" xlink:title="ods.delivery_notice_of_delivery_grp_sd" target="_blank">
<polygon fill="lightblue" stroke="black" points="172.75,-59.5 11.25,-59.5 11.25,-41 172.75,-41 172.75,-59.5"/>
<text text-anchor="middle" x="92" y="-47.9" font-family="Arial" font-size="8.00">ods.delivery_notice_of_delivery_grp_sd</text>
</a>
</g>
</g>
<!-- ods.delivery_notice_of_delivery_grp_sd&#45;&gt;ods.delivery_notice -->
<g id="edge43" class="edge">
<title>ods.delivery_notice_of_delivery_grp_sd&#45;&gt;ods.delivery_notice</title>
<path fill="none" stroke="black" d="M173.03,-50.25C195.47,-50.25 219.2,-50.25 239.26,-50.25"/>
<polygon fill="black" stroke="black" points="239.13,-52 244.13,-50.25 239.13,-48.5 239.13,-52"/>
</g>
<!-- stg./RUSAL/SHIPDATA -->
<g id="node45" class="node">
<title>stg./RUSAL/SHIPDATA</title>
<g id="a_node45"><a xlink:href="/table_info/stg//RUSAL/SHIPDATA" xlink:title="stg./RUSAL/SHIPDATA" target="_blank">
<polygon fill="lightblue" stroke="black" points="141.25,-182.5 42.75,-182.5 42.75,-164 141.25,-164 141.25,-182.5"/>
<text text-anchor="middle" x="92" y="-170.9" font-family="Arial" font-size="8.00">stg./RUSAL/SHIPDATA</text>
</a>
</g>
</g>
<!-- stg./RUSAL/SHIPDATA&#45;&gt;ods.sales_batch_delivery -->
<g id="edge44" class="edge">
<title>stg./RUSAL/SHIPDATA&#45;&gt;ods.sales_batch_delivery</title>
<path fill="none" stroke="black" d="M141.55,-173.25C167.81,-173.25 200.49,-173.25 228.34,-173.25"/>
<polygon fill="black" stroke="black" points="228.06,-175 233.06,-173.25 228.06,-171.5 228.06,-175"/>
</g>
<!-- ods.consign_rus_of_delivery_grp_sd -->
<g id="node46" class="node">
<title>ods.consign_rus_of_delivery_grp_sd</title>
<g id="a_node46"><a xlink:href="/table_info/ods/consign_rus_of_delivery_grp_sd" xlink:title="ods.consign_rus_of_delivery_grp_sd" target="_blank">
<polygon fill="lightblue" stroke="black" points="167.88,-510.5 16.12,-510.5 16.12,-492 167.88,-492 167.88,-510.5"/>
<text text-anchor="middle" x="92" y="-498.9" font-family="Arial" font-size="8.00">ods.consign_rus_of_delivery_grp_sd</text>
</a>
</g>
</g>
<!-- ods.consign_rus_of_delivery_grp_sd&#45;&gt;ods.bill_of_lading_in_russian_port -->
<g id="edge45" class="edge">
<title>ods.consign_rus_of_delivery_grp_sd&#45;&gt;ods.bill_of_lading_in_russian_port</title>
<path fill="none" stroke="black" d="M168.26,-501.25C183.02,-501.25 198.52,-501.25 213.28,-501.25"/>
<polygon fill="black" stroke="black" points="213.04,-503 218.04,-501.25 213.04,-499.5 213.04,-503"/>
</g>
<!-- ods.plant_delivery_of_delivery_sd -->
<g id="node47" class="node">
<title>ods.plant_delivery_of_delivery_sd</title>
<g id="a_node47"><a xlink:href="/table_info/ods/plant_delivery_of_delivery_sd" xlink:title="ods.plant_delivery_of_delivery_sd" target="_blank">
<polygon fill="lightblue" stroke="black" points="162.25,-1543.5 21.75,-1543.5 21.75,-1525 162.25,-1525 162.25,-1543.5"/>
<text text-anchor="middle" x="92" y="-1531.9" font-family="Arial" font-size="8.00">ods.plant_delivery_of_delivery_sd</text>
</a>
</g>
</g>
<!-- ods.plant_delivery_of_delivery_sd&#45;&gt;ods.plant_delivery -->
<g id="edge46" class="edge">
<title>ods.plant_delivery_of_delivery_sd&#45;&gt;ods.plant_delivery</title>
<path fill="none" stroke="black" d="M162.71,-1534.25C188.85,-1534.25 217.92,-1534.25 241.5,-1534.25"/>
<polygon fill="black" stroke="black" points="241.49,-1536 246.49,-1534.25 241.49,-1532.5 241.49,-1536"/>
</g>
<!-- ods.sales_order_sd -->
<g id="node48" class="node">
<title>ods.sales_order_sd</title>
<g id="a_node48"><a xlink:href="/table_info/ods/sales_order_sd" xlink:title="ods.sales_order_sd" target="_blank">
<polygon fill="lightblue" stroke="black" points="136.38,-1420.5 47.62,-1420.5 47.62,-1402 136.38,-1402 136.38,-1420.5"/>
<text text-anchor="middle" x="92" y="-1408.9" font-family="Arial" font-size="8.00">ods.sales_order_sd</text>
</a>
</g>
</g>
<!-- ods.sales_order_sd&#45;&gt;ods.sales_orders -->
<g id="edge50" class="edge">
<title>ods.sales_order_sd&#45;&gt;ods.sales_orders</title>
<path fill="none" stroke="black" d="M136.85,-1411.25C168.49,-1411.25 211.09,-1411.25 243.06,-1411.25"/>
<polygon fill="black" stroke="black" points="242.8,-1413 247.8,-1411.25 242.8,-1409.5 242.8,-1413"/>
</g>
<!-- ods.lot_of_delivery_grp_sd -->
<g id="node49" class="node">
<title>ods.lot_of_delivery_grp_sd</title>
<g id="a_node49"><a xlink:href="/table_info/ods/lot_of_delivery_grp_sd" xlink:title="ods.lot_of_delivery_grp_sd" target="_blank">
<polygon fill="lightblue" stroke="black" points="149.5,-469.5 34.5,-469.5 34.5,-451 149.5,-451 149.5,-469.5"/>
<text text-anchor="middle" x="92" y="-457.9" font-family="Arial" font-size="8.00">ods.lot_of_delivery_grp_sd</text>
</a>
</g>
</g>
<!-- ods.lot_of_delivery_grp_sd&#45;&gt;ods.delivery_lot -->
<g id="edge52" class="edge">
<title>ods.lot_of_delivery_grp_sd&#45;&gt;ods.delivery_lot</title>
<path fill="none" stroke="black" d="M149.77,-460.25C180.57,-460.25 217.98,-460.25 246.17,-460.25"/>
<polygon fill="black" stroke="black" points="245.89,-462 250.89,-460.25 245.89,-458.5 245.89,-462"/>
</g>
<!-- ods.outgoing_delivery_of_delivery_sd -->
<g id="node50" class="node">
<title>ods.outgoing_delivery_of_delivery_sd</title>
<g id="a_node50"><a xlink:href="/table_info/ods/outgoing_delivery_of_delivery_sd" xlink:title="ods.outgoing_delivery_of_delivery_sd" target="_blank">
<polygon fill="lightblue" stroke="black" points="169,-18.5 15,-18.5 15,0 169,0 169,-18.5"/>
<text text-anchor="middle" x="92" y="-6.9" font-family="Arial" font-size="8.00">ods.outgoing_delivery_of_delivery_sd</text>
</a>
</g>
</g>
<!-- ods.outgoing_delivery_of_delivery_sd&#45;&gt;ods.initial_delivery -->
<g id="edge54" class="edge">
<title>ods.outgoing_delivery_of_delivery_sd&#45;&gt;ods.initial_delivery</title>
<path fill="none" stroke="black" d="M169.38,-9.25C193.83,-9.25 220.15,-9.25 241.8,-9.25"/>
<polygon fill="black" stroke="black" points="241.56,-11 246.56,-9.25 241.56,-7.5 241.56,-11"/>
</g>
<!-- dict_dds.settings_and_parameters_sap -->
<g id="node51" class="node">
<title>dict_dds.settings_and_parameters_sap</title>
<g id="a_node51"><a xlink:href="/table_info/dict_dds/settings_and_parameters_sap" xlink:title="dict_dds.settings_and_parameters_sap" target="_blank">
<polygon fill="lightyellow" stroke="black" points="171.62,-1084.5 12.38,-1084.5 12.38,-1066 171.62,-1066 171.62,-1084.5"/>
<text text-anchor="middle" x="92" y="-1072.9" font-family="Arial" font-size="8.00">dict_dds.settings_and_parameters_sap</text>
</a>
</g>
</g>
<!-- dict_dds.settings_and_parameters_sap&#45;&gt;ods.map_zmk_track_exp_keys -->
<g id="edge55" class="edge">
<title>dict_dds.settings_and_parameters_sap&#45;&gt;ods.map_zmk_track_exp_keys</title>
<path fill="none" stroke="black" d="M171.9,-1075.25C187.38,-1075.25 203.51,-1075.25 218.66,-1075.25"/>
<polygon fill="black" stroke="black" points="218.57,-1077 223.57,-1075.25 218.57,-1073.5 218.57,-1077"/>
</g>
<!-- key1 -->
<g id="node52" class="node">
<title>key1</title>
<polygon fill="lightyellow" stroke="black" points="139.38,-1601.25 44.62,-1601.25 44.62,-1565.25 139.38,-1565.25 139.38,-1601.25"/>
<text text-anchor="middle" x="92" y="-1580.9" font-family="Arial" font-size="8.00">dict_dds Справочник</text>
</g>
<!-- key2 -->
<g id="node53" class="node">
<title>key2</title>
<polygon fill="lightblue" stroke="black" points="324.38,-1601.25 254.38,-1601.25 254.38,-1565.25 324.38,-1565.25 324.38,-1601.25"/>
<text text-anchor="middle" x="289.38" y="-1580.9" font-family="Arial" font-size="8.00">other schemas</text>
</g>
<!-- key1&#45;&gt;key2 -->
<!-- key3 -->
<g id="node54" class="node">
<title>key3</title>
<polygon fill="lightcoral" stroke="black" points="502.25,-1601.25 409,-1601.25 409,-1565.25 502.25,-1565.25 502.25,-1601.25"/>
<text text-anchor="middle" x="455.62" y="-1580.9" font-family="Arial" font-size="8.00">таблица выключена</text>
</g>
<!-- key2&#45;&gt;key3 -->
</g>
</svg>
