<?xml version="1.0" encoding="UTF-8" standalone="no"?>
<!DOCTYPE svg PUBLIC "-//W3C//DTD SVG 1.1//EN"
 "http://www.w3.org/Graphics/SVG/1.1/DTD/svg11.dtd">
<!-- Generated by graphviz version 11.0.0 (20240428.1522)
 -->
<!-- Pages: 1 -->
<svg width="534pt" height="324pt"
 viewBox="0.00 0.00 534.25 324.25" xmlns="http://www.w3.org/2000/svg" xmlns:xlink="http://www.w3.org/1999/xlink">
<g id="graph0" class="graph" transform="scale(1 1) rotate(0) translate(4 320.25)">
<polygon fill="white" stroke="none" points="-4,4 -4,-320.25 530.25,-320.25 530.25,4 -4,4"/>
<g id="clust1" class="cluster">
<title>cluster_legend</title>
<polygon fill="none" stroke="black" points="23.5,-237.25 23.5,-308.25 494.12,-308.25 494.12,-237.25 23.5,-237.25"/>
<text text-anchor="middle" x="258.81" y="-296.65" font-family="Arial" font-size="8.00">Легенда</text>
</g>
<!-- dm.account_counterparty_credit_limit -->
<g id="node1" class="node">
<title>dm.account_counterparty_credit_limit</title>
<g id="a_node1"><a xlink:href="/table_info/dm/account_counterparty_credit_limit" xlink:title="dm.account_counterparty_credit_limit" target="_blank">
<polygon fill="lightblue" stroke="black" points="330.75,-120.5 179.75,-120.5 179.75,-102 330.75,-102 330.75,-120.5"/>
<text text-anchor="middle" x="255.25" y="-108.9" font-family="Arial" font-size="8.00">dm.account_counterparty_credit_limit</text>
</a>
</g>
</g>
<!-- dm_view.account_counterparty_credit_limit -->
<g id="node2" class="node">
<title>dm_view.account_counterparty_credit_limit</title>
<g id="a_node2"><a xlink:href="/table_info/dm_view/account_counterparty_credit_limit" xlink:title="dm_view.account_counterparty_credit_limit" target="_blank">
<polygon fill="lightblue" stroke="black" points="526.25,-120.5 352.75,-120.5 352.75,-102 526.25,-102 526.25,-120.5"/>
<text text-anchor="middle" x="439.5" y="-108.9" font-family="Arial" font-size="8.00">dm_view.account_counterparty_credit_limit</text>
</a>
</g>
</g>
<!-- dm.account_counterparty_credit_limit&#45;&gt;dm_view.account_counterparty_credit_limit -->
<g id="edge1" class="edge">
<title>dm.account_counterparty_credit_limit&#45;&gt;dm_view.account_counterparty_credit_limit</title>
<path fill="none" stroke="black" d="M331.17,-111.25C336.07,-111.25 341.03,-111.25 346.01,-111.25"/>
<polygon fill="black" stroke="black" points="345.79,-113 350.79,-111.25 345.79,-109.5 345.79,-113"/>
</g>
<!-- dict_dds.counterparty -->
<g id="node3" class="node">
<title>dict_dds.counterparty</title>
<g id="a_node3"><a xlink:href="/table_info/dict_dds/counterparty" xlink:title="dict_dds.counterparty" target="_blank">
<polygon fill="lightyellow" stroke="black" points="126.62,-223.5 31.12,-223.5 31.12,-205 126.62,-205 126.62,-223.5"/>
<text text-anchor="middle" x="78.88" y="-211.9" font-family="Arial" font-size="8.00">dict_dds.counterparty</text>
</a>
</g>
</g>
<!-- dict_dds.counterparty&#45;&gt;dm.account_counterparty_credit_limit -->
<g id="edge2" class="edge">
<title>dict_dds.counterparty&#45;&gt;dm.account_counterparty_credit_limit</title>
<path fill="none" stroke="black" d="M115.62,-204.61C136.09,-199.09 157.75,-193.25 157.75,-193.25 157.75,-193.25 210.47,-148.45 237.98,-125.08"/>
<polygon fill="black" stroke="black" points="238.97,-126.53 241.65,-121.96 236.7,-123.86 238.97,-126.53"/>
</g>
<!-- ods.accounting_balance -->
<g id="node4" class="node">
<title>ods.accounting_balance</title>
<g id="a_node4"><a xlink:href="/table_info/ods/accounting_balance" xlink:title="ods.accounting_balance" target="_blank">
<polygon fill="lightblue" stroke="black" points="131.12,-182.5 26.62,-182.5 26.62,-164 131.12,-164 131.12,-182.5"/>
<text text-anchor="middle" x="78.88" y="-170.9" font-family="Arial" font-size="8.00">ods.accounting_balance</text>
</a>
</g>
</g>
<!-- ods.accounting_balance&#45;&gt;dm.account_counterparty_credit_limit -->
<g id="edge3" class="edge">
<title>ods.accounting_balance&#45;&gt;dm.account_counterparty_credit_limit</title>
<path fill="none" stroke="black" d="M115.62,-163.61C136.09,-158.09 157.75,-152.25 157.75,-152.25 157.75,-152.25 197.05,-135.55 225.49,-123.47"/>
<polygon fill="black" stroke="black" points="226.07,-125.12 229.99,-121.56 224.7,-121.9 226.07,-125.12"/>
</g>
<!-- dict_dds.currency_rate -->
<g id="node5" class="node">
<title>dict_dds.currency_rate</title>
<g id="a_node5"><a xlink:href="/table_info/dict_dds/currency_rate" xlink:title="dict_dds.currency_rate" target="_blank">
<polygon fill="lightyellow" stroke="black" points="129.25,-141.5 28.5,-141.5 28.5,-123 129.25,-123 129.25,-141.5"/>
<text text-anchor="middle" x="78.88" y="-129.9" font-family="Arial" font-size="8.00">dict_dds.currency_rate</text>
</a>
</g>
</g>
<!-- dict_dds.currency_rate&#45;&gt;dm.account_counterparty_credit_limit -->
<g id="edge4" class="edge">
<title>dict_dds.currency_rate&#45;&gt;dm.account_counterparty_credit_limit</title>
<path fill="none" stroke="black" d="M129.38,-126.29C143.03,-124.64 158.22,-122.82 173.16,-121.02"/>
<polygon fill="black" stroke="black" points="173.29,-122.76 178.04,-120.43 172.87,-119.29 173.29,-122.76"/>
</g>
<!-- dict_dds.unit_balance -->
<g id="node6" class="node">
<title>dict_dds.unit_balance</title>
<g id="a_node6"><a xlink:href="/table_info/dict_dds/unit_balance" xlink:title="dict_dds.unit_balance" target="_blank">
<polygon fill="lightyellow" stroke="black" points="126.25,-100.5 31.5,-100.5 31.5,-82 126.25,-82 126.25,-100.5"/>
<text text-anchor="middle" x="78.88" y="-88.9" font-family="Arial" font-size="8.00">dict_dds.unit_balance</text>
</a>
</g>
</g>
<!-- dict_dds.unit_balance&#45;&gt;dm.account_counterparty_credit_limit -->
<g id="edge5" class="edge">
<title>dict_dds.unit_balance&#45;&gt;dm.account_counterparty_credit_limit</title>
<path fill="none" stroke="black" d="M126.6,-96.61C140.94,-98.25 157.16,-100.11 173.1,-101.94"/>
<polygon fill="black" stroke="black" points="172.76,-103.66 177.93,-102.5 173.16,-100.19 172.76,-103.66"/>
</g>
<!-- ods.counterparty_limit -->
<g id="node7" class="node">
<title>ods.counterparty_limit</title>
<g id="a_node7"><a xlink:href="/table_info/ods/counterparty_limit" xlink:title="ods.counterparty_limit" target="_blank">
<polygon fill="lightblue" stroke="black" points="126.62,-59.5 31.12,-59.5 31.12,-41 126.62,-41 126.62,-59.5"/>
<text text-anchor="middle" x="78.88" y="-47.9" font-family="Arial" font-size="8.00">ods.counterparty_limit</text>
</a>
</g>
</g>
<!-- ods.counterparty_limit&#45;&gt;dm.account_counterparty_credit_limit -->
<g id="edge6" class="edge">
<title>ods.counterparty_limit&#45;&gt;dm.account_counterparty_credit_limit</title>
<path fill="none" stroke="black" d="M115.62,-59.89C136.09,-65.41 157.75,-71.25 157.75,-71.25 157.75,-71.25 196.61,-87.36 225.01,-99.13"/>
<polygon fill="black" stroke="black" points="224.2,-100.69 229.49,-100.99 225.54,-97.46 224.2,-100.69"/>
</g>
<!-- ods.accounting_turnover_counterparty -->
<g id="node8" class="node">
<title>ods.accounting_turnover_counterparty</title>
<g id="a_node8"><a xlink:href="/table_info/ods/accounting_turnover_counterparty" xlink:title="ods.accounting_turnover_counterparty" target="_blank">
<polygon fill="lightblue" stroke="black" points="157.75,-18.5 0,-18.5 0,0 157.75,0 157.75,-18.5"/>
<text text-anchor="middle" x="78.88" y="-6.9" font-family="Arial" font-size="8.00">ods.accounting_turnover_counterparty</text>
</a>
</g>
</g>
<!-- ods.accounting_turnover_counterparty&#45;&gt;dm.account_counterparty_credit_limit -->
<g id="edge7" class="edge">
<title>ods.accounting_turnover_counterparty&#45;&gt;dm.account_counterparty_credit_limit</title>
<path fill="none" stroke="black" d="M115.62,-18.89C136.09,-24.41 157.75,-30.25 157.75,-30.25 157.75,-30.25 210.47,-74.5 237.98,-97.59"/>
<polygon fill="black" stroke="black" points="236.69,-98.79 241.64,-100.67 238.94,-96.11 236.69,-98.79"/>
</g>
<!-- key1 -->
<g id="node9" class="node">
<title>key1</title>
<polygon fill="lightyellow" stroke="black" points="126.25,-281.25 31.5,-281.25 31.5,-245.25 126.25,-245.25 126.25,-281.25"/>
<text text-anchor="middle" x="78.88" y="-260.9" font-family="Arial" font-size="8.00">dict_dds Справочник</text>
</g>
<!-- key2 -->
<g id="node10" class="node">
<title>key2</title>
<polygon fill="lightblue" stroke="black" points="290.25,-281.25 220.25,-281.25 220.25,-245.25 290.25,-245.25 290.25,-281.25"/>
<text text-anchor="middle" x="255.25" y="-260.9" font-family="Arial" font-size="8.00">other schemas</text>
</g>
<!-- key1&#45;&gt;key2 -->
<!-- key3 -->
<g id="node11" class="node">
<title>key3</title>
<polygon fill="lightcoral" stroke="black" points="486.12,-281.25 392.88,-281.25 392.88,-245.25 486.12,-245.25 486.12,-281.25"/>
<text text-anchor="middle" x="439.5" y="-260.9" font-family="Arial" font-size="8.00">таблица выключена</text>
</g>
<!-- key2&#45;&gt;key3 -->
</g>
</svg>
