<?xml version="1.0" encoding="UTF-8" standalone="no"?>
<!DOCTYPE svg PUBLIC "-//W3C//DTD SVG 1.1//EN"
 "http://www.w3.org/Graphics/SVG/1.1/DTD/svg11.dtd">
<!-- Generated by graphviz version 11.0.0 (20240428.1522)
 -->
<!-- Pages: 1 -->
<svg width="383pt" height="119pt"
 viewBox="0.00 0.00 382.88 119.25" xmlns="http://www.w3.org/2000/svg" xmlns:xlink="http://www.w3.org/1999/xlink">
<g id="graph0" class="graph" transform="scale(1 1) rotate(0) translate(4 115.25)">
<polygon fill="white" stroke="none" points="-4,4 -4,-115.25 378.88,-115.25 378.88,4 -4,4"/>
<g id="clust1" class="cluster">
<title>cluster_legend</title>
<polygon fill="none" stroke="black" points="8,-32.25 8,-103.25 366.88,-103.25 366.88,-32.25 8,-32.25"/>
<text text-anchor="middle" x="187.44" y="-91.65" font-family="Arial" font-size="8.00">Легенда</text>
</g>
<!-- stg./RUSAL/SHIPDATA -->
<g id="node1" class="node">
<title>stg./RUSAL/SHIPDATA</title>
<g id="a_node1"><a xlink:href="/table_info/stg//RUSAL/SHIPDATA" xlink:title="stg./RUSAL/SHIPDATA" target="_blank">
<polygon fill="lightblue" stroke="black" points="112.62,-18.5 14.12,-18.5 14.12,0 112.62,0 112.62,-18.5"/>
<text text-anchor="middle" x="63.38" y="-6.9" font-family="Arial" font-size="8.00">stg./RUSAL/SHIPDATA</text>
</a>
</g>
</g>
<!-- ods.sales_batch_delivery -->
<g id="node2" class="node">
<title>ods.sales_batch_delivery</title>
<g id="a_node2"><a xlink:href="/table_info/ods/sales_batch_delivery" xlink:title="ods.sales_batch_delivery" target="_blank">
<polygon fill="lightblue" stroke="black" points="243.62,-18.5 134.62,-18.5 134.62,0 243.62,0 243.62,-18.5"/>
<text text-anchor="middle" x="189.12" y="-6.9" font-family="Arial" font-size="8.00">ods.sales_batch_delivery</text>
</a>
</g>
</g>
<!-- stg./RUSAL/SHIPDATA&#45;&gt;ods.sales_batch_delivery -->
<g id="edge1" class="edge">
<title>stg./RUSAL/SHIPDATA&#45;&gt;ods.sales_batch_delivery</title>
<path fill="none" stroke="black" d="M112.93,-9.25C117.88,-9.25 122.95,-9.25 128.01,-9.25"/>
<polygon fill="black" stroke="black" points="127.88,-11 132.88,-9.25 127.88,-7.5 127.88,-11"/>
</g>
<!-- key1 -->
<g id="node3" class="node">
<title>key1</title>
<polygon fill="lightyellow" stroke="black" points="110.75,-76.25 16,-76.25 16,-40.25 110.75,-40.25 110.75,-76.25"/>
<text text-anchor="middle" x="63.38" y="-55.9" font-family="Arial" font-size="8.00">dict_dds Справочник</text>
</g>
<!-- key2 -->
<g id="node4" class="node">
<title>key2</title>
<polygon fill="lightblue" stroke="black" points="224.12,-76.25 154.12,-76.25 154.12,-40.25 224.12,-40.25 224.12,-76.25"/>
<text text-anchor="middle" x="189.12" y="-55.9" font-family="Arial" font-size="8.00">other schemas</text>
</g>
<!-- key1&#45;&gt;key2 -->
<!-- key3 -->
<g id="node5" class="node">
<title>key3</title>
<polygon fill="lightcoral" stroke="black" points="358.88,-76.25 265.62,-76.25 265.62,-40.25 358.88,-40.25 358.88,-76.25"/>
<text text-anchor="middle" x="312.25" y="-55.9" font-family="Arial" font-size="8.00">таблица выключена</text>
</g>
<!-- key2&#45;&gt;key3 -->
</g>
</svg>
