<?xml version="1.0" encoding="UTF-8" standalone="no"?>
<!DOCTYPE svg PUBLIC "-//W3C//DTD SVG 1.1//EN"
 "http://www.w3.org/Graphics/SVG/1.1/DTD/svg11.dtd">
<!-- Generated by graphviz version 11.0.0 (20240428.1522)
 -->
<!-- Pages: 1 -->
<svg width="352pt" height="119pt"
 viewBox="0.00 0.00 351.75 119.25" xmlns="http://www.w3.org/2000/svg" xmlns:xlink="http://www.w3.org/1999/xlink">
<g id="graph0" class="graph" transform="scale(1 1) rotate(0) translate(4 115.25)">
<polygon fill="white" stroke="none" points="-4,4 -4,-115.25 347.75,-115.25 347.75,4 -4,4"/>
<g id="clust1" class="cluster">
<title>cluster_legend</title>
<polygon fill="none" stroke="black" points="8,-32.25 8,-103.25 335.75,-103.25 335.75,-32.25 8,-32.25"/>
<text text-anchor="middle" x="171.88" y="-91.65" font-family="Arial" font-size="8.00">Легенда</text>
</g>
<!-- ods.sales_order_sd -->
<g id="node1" class="node">
<title>ods.sales_order_sd</title>
<g id="a_node1"><a xlink:href="/table_info/ods/sales_order_sd" xlink:title="ods.sales_order_sd" target="_blank">
<polygon fill="lightblue" stroke="black" points="107.75,-18.5 19,-18.5 19,0 107.75,0 107.75,-18.5"/>
<text text-anchor="middle" x="63.38" y="-6.9" font-family="Arial" font-size="8.00">ods.sales_order_sd</text>
</a>
</g>
</g>
<!-- ods.sales_orders -->
<g id="node2" class="node">
<title>ods.sales_orders</title>
<g id="a_node2"><a xlink:href="/table_info/ods/sales_orders" xlink:title="ods.sales_orders" target="_blank">
<polygon fill="lightblue" stroke="black" points="212.5,-18.5 132.75,-18.5 132.75,0 212.5,0 212.5,-18.5"/>
<text text-anchor="middle" x="172.62" y="-6.9" font-family="Arial" font-size="8.00">ods.sales_orders</text>
</a>
</g>
</g>
<!-- ods.sales_order_sd&#45;&gt;ods.sales_orders -->
<g id="edge1" class="edge">
<title>ods.sales_order_sd&#45;&gt;ods.sales_orders</title>
<path fill="none" stroke="black" d="M108,-9.25C113.96,-9.25 120.09,-9.25 126.09,-9.25"/>
<polygon fill="black" stroke="black" points="126.01,-11 131.01,-9.25 126.01,-7.5 126.01,-11"/>
</g>
<!-- key1 -->
<g id="node3" class="node">
<title>key1</title>
<polygon fill="lightyellow" stroke="black" points="110.75,-76.25 16,-76.25 16,-40.25 110.75,-40.25 110.75,-76.25"/>
<text text-anchor="middle" x="63.38" y="-55.9" font-family="Arial" font-size="8.00">dict_dds Справочник</text>
</g>
<!-- key2 -->
<g id="node4" class="node">
<title>key2</title>
<polygon fill="lightblue" stroke="black" points="207.62,-76.25 137.62,-76.25 137.62,-40.25 207.62,-40.25 207.62,-76.25"/>
<text text-anchor="middle" x="172.62" y="-55.9" font-family="Arial" font-size="8.00">other schemas</text>
</g>
<!-- key1&#45;&gt;key2 -->
<!-- key3 -->
<g id="node5" class="node">
<title>key3</title>
<polygon fill="lightcoral" stroke="black" points="327.75,-76.25 234.5,-76.25 234.5,-40.25 327.75,-40.25 327.75,-76.25"/>
<text text-anchor="middle" x="281.12" y="-55.9" font-family="Arial" font-size="8.00">таблица выключена</text>
</g>
<!-- key2&#45;&gt;key3 -->
</g>
</svg>
