<?xml version="1.0" encoding="UTF-8" standalone="no"?>
<!DOCTYPE svg PUBLIC "-//W3C//DTD SVG 1.1//EN"
 "http://www.w3.org/Graphics/SVG/1.1/DTD/svg11.dtd">
<!-- Generated by graphviz version 11.0.0 (20240428.1522)
 -->
<!-- Pages: 1 -->
<svg width="355pt" height="119pt"
 viewBox="0.00 0.00 355.12 119.25" xmlns="http://www.w3.org/2000/svg" xmlns:xlink="http://www.w3.org/1999/xlink">
<g id="graph0" class="graph" transform="scale(1 1) rotate(0) translate(4 115.25)">
<polygon fill="white" stroke="none" points="-4,4 -4,-115.25 351.12,-115.25 351.12,4 -4,4"/>
<g id="clust1" class="cluster">
<title>cluster_legend</title>
<polygon fill="none" stroke="black" points="8,-32.25 8,-103.25 339.12,-103.25 339.12,-32.25 8,-32.25"/>
<text text-anchor="middle" x="173.56" y="-91.65" font-family="Arial" font-size="8.00">Легенда</text>
</g>
<!-- ods.lot_of_delivery_grp_sd -->
<g id="node1" class="node">
<title>ods.lot_of_delivery_grp_sd</title>
<g id="a_node1"><a xlink:href="/table_info/ods/lot_of_delivery_grp_sd" xlink:title="ods.lot_of_delivery_grp_sd" target="_blank">
<polygon fill="lightblue" stroke="black" points="120.88,-18.5 5.88,-18.5 5.88,0 120.88,0 120.88,-18.5"/>
<text text-anchor="middle" x="63.38" y="-6.9" font-family="Arial" font-size="8.00">ods.lot_of_delivery_grp_sd</text>
</a>
</g>
</g>
<!-- ods.delivery_lot -->
<g id="node2" class="node">
<title>ods.delivery_lot</title>
<g id="a_node2"><a xlink:href="/table_info/ods/delivery_lot" xlink:title="ods.delivery_lot" target="_blank">
<polygon fill="lightblue" stroke="black" points="215.88,-18.5 142.88,-18.5 142.88,0 215.88,0 215.88,-18.5"/>
<text text-anchor="middle" x="179.38" y="-6.9" font-family="Arial" font-size="8.00">ods.delivery_lot</text>
</a>
</g>
</g>
<!-- ods.lot_of_delivery_grp_sd&#45;&gt;ods.delivery_lot -->
<g id="edge1" class="edge">
<title>ods.lot_of_delivery_grp_sd&#45;&gt;ods.delivery_lot</title>
<path fill="none" stroke="black" d="M121.38,-9.25C126.35,-9.25 131.32,-9.25 136.15,-9.25"/>
<polygon fill="black" stroke="black" points="136.1,-11 141.1,-9.25 136.1,-7.5 136.1,-11"/>
</g>
<!-- key1 -->
<g id="node3" class="node">
<title>key1</title>
<polygon fill="lightyellow" stroke="black" points="110.75,-76.25 16,-76.25 16,-40.25 110.75,-40.25 110.75,-76.25"/>
<text text-anchor="middle" x="63.38" y="-55.9" font-family="Arial" font-size="8.00">dict_dds Справочник</text>
</g>
<!-- key2 -->
<g id="node4" class="node">
<title>key2</title>
<polygon fill="lightblue" stroke="black" points="214.38,-76.25 144.38,-76.25 144.38,-40.25 214.38,-40.25 214.38,-76.25"/>
<text text-anchor="middle" x="179.38" y="-55.9" font-family="Arial" font-size="8.00">other schemas</text>
</g>
<!-- key1&#45;&gt;key2 -->
<!-- key3 -->
<g id="node5" class="node">
<title>key3</title>
<polygon fill="lightcoral" stroke="black" points="331.12,-76.25 237.88,-76.25 237.88,-40.25 331.12,-40.25 331.12,-76.25"/>
<text text-anchor="middle" x="284.5" y="-55.9" font-family="Arial" font-size="8.00">таблица выключена</text>
</g>
<!-- key2&#45;&gt;key3 -->
</g>
</svg>
