<?xml version="1.0" encoding="UTF-8" standalone="no"?>
<!DOCTYPE svg PUBLIC "-//W3C//DTD SVG 1.1//EN"
 "http://www.w3.org/Graphics/SVG/1.1/DTD/svg11.dtd">
<!-- Generated by graphviz version 11.0.0 (20240428.1522)
 -->
<!-- Pages: 1 -->
<svg width="595pt" height="311pt"
 viewBox="0.00 0.00 428.25 224.00" xmlns="http://www.w3.org/2000/svg" xmlns:xlink="http://www.w3.org/1999/xlink">
<g id="graph0" class="graph" transform="scale(1.38889 1.38889) rotate(0) translate(4 220)">
<polygon fill="white" stroke="none" points="-4,4 -4,-220 424.25,-220 424.25,4 -4,4"/>
<g id="clust1" class="cluster">
<title>cluster_legend</title>
<polygon fill="none" stroke="black" points="11.12,-136 11.12,-208 412.25,-208 412.25,-136 11.12,-136"/>
<text text-anchor="middle" x="211.69" y="-194.5" font-family="Arial" font-size="10.00">Легенда</text>
</g>
<!-- dict_dds.plant_and_subsidiary -->
<g id="node1" class="node">
<title>dict_dds.plant_and_subsidiary</title>
<g id="a_node1"><a xlink:href="/table_info/dict_dds/plant_and_subsidiary" xlink:title="dict_dds.plant_and_subsidiary" target="_blank">
<polygon fill="lightyellow" stroke="black" points="147.25,-108 0,-108 0,-72 147.25,-72 147.25,-108"/>
<text text-anchor="middle" x="73.62" y="-86.5" font-family="Arial" font-size="10.00">dict_dds.plant_and_subsidiary</text>
</a>
</g>
</g>
<!-- rls.rls_t -->
<g id="node2" class="node">
<title>rls.rls_t</title>
<g id="a_node2"><a xlink:href="/table_info/rls/rls_t" xlink:title="rls.rls_t" target="_blank">
<polygon fill="lightblue" stroke="black" points="259.5,-72 187.5,-72 187.5,-36 259.5,-36 259.5,-72"/>
<text text-anchor="middle" x="223.5" y="-50.5" font-family="Arial" font-size="10.00">rls.rls_t</text>
</a>
</g>
</g>
<!-- dict_dds.plant_and_subsidiary&#45;&gt;rls.rls_t -->
<g id="edge1" class="edge">
<title>dict_dds.plant_and_subsidiary&#45;&gt;rls.rls_t</title>
<path fill="none" stroke="black" d="M147.7,-72.21C159.25,-69.4 170.84,-66.58 181.32,-64.02"/>
<polygon fill="black" stroke="black" points="181.44,-65.8 185.89,-62.91 180.62,-62.4 181.44,-65.8"/>
</g>
<!-- dict_dds.plant -->
<g id="node3" class="node">
<title>dict_dds.plant</title>
<g id="a_node3"><a xlink:href="/table_info/dict_dds/plant" xlink:title="dict_dds.plant" target="_blank">
<polygon fill="lightcoral" stroke="black" points="112,-36 35.25,-36 35.25,0 112,0 112,-36"/>
<text text-anchor="middle" x="73.62" y="-14.5" font-family="Arial" font-size="10.00">dict_dds.plant</text>
</a>
</g>
</g>
<!-- dict_dds.plant&#45;&gt;rls.rls_t -->
<g id="edge2" class="edge">
<title>dict_dds.plant&#45;&gt;rls.rls_t</title>
<path fill="none" stroke="black" d="M112.32,-27.18C133.27,-32.28 159.38,-38.63 180.92,-43.88"/>
<polygon fill="black" stroke="black" points="180.42,-45.56 185.69,-45.04 181.24,-42.16 180.42,-45.56"/>
</g>
<!-- key1 -->
<g id="node4" class="node">
<title>key1</title>
<polygon fill="lightyellow" stroke="black" points="128.12,-180 19.12,-180 19.12,-144 128.12,-144 128.12,-180"/>
<text text-anchor="middle" x="73.62" y="-158.5" font-family="Arial" font-size="10.00">dict_dds Справочник</text>
</g>
<!-- key2 -->
<g id="node5" class="node">
<title>key2</title>
<polygon fill="lightblue" stroke="black" points="263.75,-180 183.25,-180 183.25,-144 263.75,-144 263.75,-180"/>
<text text-anchor="middle" x="223.5" y="-158.5" font-family="Arial" font-size="10.00">other schemas</text>
</g>
<!-- key1&#45;&gt;key2 -->
<!-- key3 -->
<g id="node6" class="node">
<title>key3</title>
<polygon fill="lightcoral" stroke="black" points="404.25,-180 299.75,-180 299.75,-144 404.25,-144 404.25,-180"/>
<text text-anchor="middle" x="352" y="-158.5" font-family="Arial" font-size="10.00">таблица выключена</text>
</g>
<!-- key2&#45;&gt;key3 -->
</g>
</svg>
